/* XPM */
static char * minpr_original_xpm[] = {
"22 16 26 1",
" 	c None",
".	c #C6C6C6",
"+	c #A9A9A9",
"@	c #F5F5F5",
"#	c #F3F3F3",
"$	c #F1F1F1",
"%	c #EFEFEF",
"&	c #EEEEEE",
"*	c #EBEBEB",
"=	c #D4D4D4",
"-	c #BDBDBD",
";	c #E4E4E4",
">	c #EAEAEA",
",	c #D0D0D0",
"'	c #51463D",
")	c #E9E9E9",
"!	c #D1D1D1",
"~	c #C0C0C0",
"{	c #E6E6E6",
"]	c #DBDBDB",
"^	c #E5E5E5",
"/	c #E1E1E1",
"(	c #E2E2E2",
"_	c #DFDFDF",
":	c #DDDDDD",
"<	c #B7B7B7",
" .....................",
"+@@@@@@@@@@@@@@@@@@@@@",
"+#####################",
"+$$$$$$$$$$$$$$$$$$$$$",
"+%%%%%%%%%%%%%%%%%%%%%",
"+&&&&&&&&&&&&&&&&&&&&&",
"+******=-;****;-=*****",
"+>>>>>>,''=>>='',>>>>>",
"+)))))))!''~~''!))))))",
"+{{{{{{{{]'''']{{{{{{{",
"+^^^^^^^^^/''/^^^^^^^^",
"+(((((((((((((((((((((",
"+/////////////////////",
"+_____________________",
"+:::::::::::::::::::::",
" <<<<<<<<<<<<<<<<<<<<<"};
