/* XPM */
static char * minufcs_original_xpm[] = {
"22 16 19 1",
" 	c None",
".	c #BABABA",
"+	c #9D9D9C",
"@	c #E5E5E4",
"#	c #E3E3E3",
"$	c #E1E1E1",
"%	c #DFDFDF",
"&	c #DEDEDE",
"*	c #DCDCDB",
"=	c #DBDBDA",
"-	c #BFBDBB",
";	c #DADAD9",
">	c #D7D7D7",
",	c #D6D6D6",
"'	c #D3D3D3",
")	c #D3D3D2",
"!	c #D1D1D0",
"~	c #CFCFCE",
"{	c #ACACAC",
" .....................",
"+@@@@@@@@@@@@@@@@@@@@@",
"+#####################",
"+$$$$$$$$$$$$$$$$$$$$$",
"+%%%%%%%%%%%%%%%%%%%%%",
"+&&&&&&&&&&&&&&&&&&&&&",
"+*********************",
"+=======--====--======",
"+;;;;;;;;--;;--;;;;;;;",
"+>>>>>>>>>---->>>>>>>>",
"+,,,,,,,,,,--,,,,,,,,,",
"+'''''''''''''''''''''",
"+)))))))))))))))))))))",
"+!!!!!!!!!!!!!!!!!!!!!",
"+~~~~~~~~~~~~~~~~~~~~~",
" {{{{{{{{{{{{{{{{{{{{{"};
