/* XPM */
static char * titlefcs_sonar_xpm[] = {
"22 22 192 2",
"  	c #41433D",
". 	c #41433E",
"+ 	c #42433E",
"@ 	c #42443E",
"# 	c #42443F",
"$ 	c #43453F",
"% 	c #44453F",
"& 	c #434540",
"* 	c #434640",
"= 	c #444640",
"- 	c #454640",
"; 	c #454641",
"> 	c #464741",
", 	c #464841",
"' 	c #464842",
") 	c #545E47",
"! 	c #555F47",
"~ 	c #555F48",
"{ 	c #545F48",
"] 	c #556049",
"^ 	c #566049",
"/ 	c #566149",
"( 	c #56624A",
"_ 	c #57634A",
": 	c #58644B",
"< 	c #57644B",
"[ 	c #58644C",
"} 	c #59654C",
"| 	c #59664D",
"1 	c #3A482A",
"2 	c #3A492A",
"3 	c #3B4A2A",
"4 	c #3B492B",
"5 	c #3A492B",
"6 	c #3B4A2B",
"7 	c #3C4A2B",
"8 	c #3B4B2B",
"9 	c #3B4C2B",
"0 	c #3C4B2B",
"a 	c #3C4B2C",
"b 	c #3C4C2C",
"c 	c #3C4D2C",
"d 	c #3D4D2C",
"e 	c #3D4E2D",
"f 	c #3E4C2F",
"g 	c #3F4D2F",
"h 	c #3F4D30",
"i 	c #3F4E30",
"j 	c #404E30",
"k 	c #404F30",
"l 	c #415031",
"m 	c #415131",
"n 	c #425131",
"o 	c #425232",
"p 	c #3D4A2F",
"q 	c #3D4B2F",
"r 	c #3E4B2E",
"s 	c #3E4B2F",
"t 	c #3E4B30",
"u 	c #3E4C30",
"v 	c #3F4C30",
"w 	c #404D30",
"x 	c #404E31",
"y 	c #404F31",
"z 	c #414F31",
"A 	c #414F30",
"B 	c #415032",
"C 	c #3C492F",
"D 	c #3C492E",
"E 	c #3D4A30",
"F 	c #3D4B30",
"G 	c #3F4C31",
"H 	c #3F4D31",
"I 	c #3F4E31",
"J 	c #404E32",
"K 	c #3B472F",
"L 	c #3C482E",
"M 	c #3C482F",
"N 	c #3C4830",
"O 	c #3C4930",
"P 	c #3D4930",
"Q 	c #3E4B31",
"R 	c #3F4C32",
"S 	c #3A452F",
"T 	c #3B452F",
"U 	c #3C462E",
"V 	c #3B4630",
"W 	c #3C4730",
"X 	c #3D4830",
"Y 	c #3D4831",
"Z 	c #3E4931",
"` 	c #3F4A31",
" .	c #3E4930",
"..	c #3E4A31",
"+.	c #39442F",
"@.	c #3A442F",
"#.	c #3A442E",
"$.	c #3A4430",
"%.	c #3A4530",
"&.	c #3B4530",
"*.	c #3B462F",
"=.	c #3C4630",
"-.	c #3C4631",
";.	c #3D4731",
">.	c #39432F",
",.	c #39432E",
"'.	c #394330",
").	c #394430",
"!.	c #38412F",
"~.	c #39412E",
"{.	c #384130",
"].	c #384230",
"^.	c #3A4230",
"/.	c #394230",
"(.	c #3A4330",
"_.	c #3A422F",
":.	c #3A432F",
"<.	c #3B442F",
"[.	c #3B4531",
"}.	c #373F2F",
"|.	c #363F2F",
"1.	c #37402F",
"2.	c #38402E",
"3.	c #38402F",
"4.	c #384030",
"5.	c #394030",
"6.	c #394130",
"7.	c #39402F",
"8.	c #39412F",
"9.	c #39422F",
"0.	c #3A4231",
"a.	c #373E2F",
"b.	c #373D2F",
"c.	c #363E2F",
"d.	c #363E2E",
"e.	c #363F30",
"f.	c #373E30",
"g.	c #383E30",
"h.	c #383F30",
"i.	c #373F30",
"j.	c #393F30",
"k.	c #393F2F",
"l.	c #394131",
"m.	c #363D2F",
"n.	c #363C2F",
"o.	c #363E30",
"p.	c #363D30",
"q.	c #373D30",
"r.	c #383E2F",
"s.	c #384031",
"t.	c #343D2F",
"u.	c #353D2F",
"v.	c #373D2E",
"w.	c #373C2F",
"x.	c #373C30",
"y.	c #383D30",
"z.	c #383F2F",
"A.	c #383F31",
"B.	c #363B2E",
"C.	c #353B2E",
"D.	c #353B2F",
"E.	c #353B30",
"F.	c #353C30",
"G.	c #363C30",
"H.	c #363D31",
"I.	c #353A2E",
"J.	c #363B30",
"K.	c #34392F",
"L.	c #343930",
"M.	c #353930",
"N.	c #353A30",
"O.	c #363A30",
"P.	c #363A2F",
"Q.	c #363B31",
"R.	c #333830",
"S.	c #323830",
"T.	c #343730",
"U.	c #34372F",
"V.	c #343830",
"W.	c #35392F",
"X.	c #353830",
"Y.	c #333530",
"Z.	c #333430",
"`.	c #333630",
" +	c #323630",
".+	c #33362F",
"++	c #33372F",
"@+	c #323430",
"#+	c #32352F",
"$+	c #303230",
"%+	c #313230",
"&+	c #31322F",
"      . + @ @ # $ % % & * = - = ; > > > , ' ",
") ) ) ! ~ { ] ^ / / / ( _ _ : < [ } } } | | ",
"1 1 2 3 4 5 6 7 7 8 9 0 a b b b c d d d e e ",
"f f f g g h i j j j k k k l l l l m n n o o ",
"p p q r s t u v v h h g w x x x x y z A l B ",
"C C C D p E E F t t t f u G H H H I I j x J ",
"K K K L M N O O P P E p E Q Q Q Q Q G v G R ",
"S S T U K V V W W W N C X Y Y Y Y Z `  .Z ..",
"+.+.@.#.@.$.%.&.&.V V *.=.-.-.-.-.;.;.;.X X ",
">.>.>.,.>.'.'.).$.$.%.S %.&.&.&.&.&.=.=.=.W ",
"!.!.!.~.!.{.].^././.(.'._._.:.:.:.@.<.<.&.[.",
"}.|.1.2.3.4.4.5.5.5.6.6.7.8.8.8.!.9.:._.^.0.",
"a.b.c.d.|.e.f.f.g.h.i.1.4.5.5.5.5.j.j.k.5.l.",
"m.n.m.d.c.o.p.p.q.f.i.e.i.h.h.h.h.g.g.r.h.s.",
"t.u.m.v.w.x.q.f.f.f.f.o.f.g.g.y.g.h.h.z.h.A.",
"B.B.C.C.D.E.F.F.F.F.F.F.G.G.G.p.p.p.p.m.p.H.",
"I.I.C.C.D.E.E.E.E.E.E.E.J.G.G.G.G.G.G.n.p.H.",
"K.K.K.K.K.L.L.L.L.L.L.L.M.N.N.N.N.N.O.P.J.Q.",
"R.S.R.T.T.U.T.T.T.T.T.T.T.V.L.L.L.L.M.W.X.X.",
"Y.Y.Z.`.`.`.`.`.`.`.`.`.`.`.`.`.`.`. +`..+++",
"@+@+@+@+@+@+@+@+@+@+@+@+@+@+@+@+@+@+@+@+#+#+",
"$+$+$+$+$+$+$+%+$+%+%+%+%+%+%+%+%+%+%+&+%+%+"};
