/* XPM */
static char * titlefcs_newwave_xpm[] = {
"22 22 7 1",
" 	c #585858",
".	c #626262",
"+	c #595959",
"@	c #5A5A5A",
"#	c #575757",
"$	c #565656",
"%	c #555555",
"                      ",
"......................",
"++++++++++++++++++++++",
"@@@@@@@@@@@@@@@@@@@@@@",
"@@@@@@@@@@@@@@@@@@@@@@",
"++++++++++++++++++++++",
"                      ",
"++++++++++++++++++++++",
"++++++++++++++++++++++",
"                      ",
"######################",
"                      ",
"                      ",
"                      ",
"######################",
"$$$$$$$$$$$$$$$$$$$$$$",
"######################",
"######################",
"$$$$$$$$$$$$$$$$$$$$$$",
"%%%%%%%%%%%%%%%%%%%%%%",
"$$$$$$$$$$$$$$$$$$$$$$",
"$$$$$$$$$$$$$$$$$$$$$$"};
