/* XPM */
static char * titlefcs_human_382e2a_xpm[] = {
"22 22 14 1",
" 	c None",
".	c #200509",
"+	c #1F0409",
"@	c #1B0407",
"#	c #1C0408",
"$	c #1D0408",
"%	c #1E0408",
"&	c #1F0408",
"*	c #210509",
"=	c #220509",
"-	c #22050A",
";	c #24050A",
">	c #25050A",
",	c #26060B",
"......................",
"++++++++++++++++++++++",
"@@@@@@@@@@@@@@@@@@@@@@",
"######################",
"$$$$$$$$$$$$$$$$$$$$$$",
"%%%%%%%%%%%%%%%%%%%%%%",
"%%%%%%%%%%%%%%%%%%%%%%",
"&&&&&&&&&&&&&&&&&&&&&&",
"++++++++++++++++++++++",
"......................",
"......................",
"**********************",
"======================",
"----------------------",
"----------------------",
"----------------------",
";;;;;;;;;;;;;;;;;;;;;;",
";;;;;;;;;;;;;;;;;;;;;;",
";;;;;;;;;;;;;;;;;;;;;;",
">>>>>>>>>>>>>>>>>>>>>>",
",,,,,,,,,,,,,,,,,,,,,,",
"......................"};
