/* XPM */
static char *minufcs[] = {
/* columns rows colors chars-per-pixel */
"22 22 27 1",
"  c #39392E2E2929",
". c #3B3B2F2F2B2B",
"X c #414134342E2E",
"o c #434336362F2F",
"O c #454536363030",
"+ c #4E4E3C3C3434",
"@ c #4F4F3D3D3434",
"# c #52523F3F3636",
"$ c #9D9D9D9D9C9C",
"% c #ACACACACACAC",
"& c gray73",
"* c #BEBEBCBCBBBB",
"= c #BFBFBDBDBBBB",
"- c #CFCFCFCFCECE",
"; c #D1D1D1D1D0D0",
": c #D3D3D3D3D2D2",
"> c LightGray",
", c gray84",
"< c #D7D7D7D7D7D7",
"1 c #DADADADAD9D9",
"2 c #DBDBDBDBDADA",
"3 c #DCDCDCDCDBDB",
"4 c gray87",
"5 c #DFDFDFDFDFDF",
"6 c #E1E1E1E1E1E1",
"7 c gray89",
"8 c #E5E5E5E5E4E4",
/* pixels */
"oooooooooooooooooooooo",
"XXXXXXXXXXXXXXXXXXXXXX",
"                      ",
".&&&&&&&&&&&&&&&&&&&&&",
"$888888888888888888888",
"$777777777777777777777",
"$666666666666666666666",
"$555555555555555555555",
"$444444444444444444444",
"$333333333333333333333",
"$222222222222222222222",
"$111111111111111111111",
"$<<<<<<<========<<<<<<",
"$,,,,,,,********,,,,,,",
"$>>>>>>>>>>>>>>>>>>>>>",
"$:::::::::::::::::::::",
"$;;;;;;;;;;;;;;;;;;;;;",
"$---------------------",
"+%%%%%%%%%%%%%%%%%%%%%",
"@@@@@@@@@@@@@@@@@@@@@@",
"######################",
"OOOOOOOOOOOOOOOOOOOOOO"
};
