/* XPM */
static char * close2a_xpm[] = {
"20 20 45 1",
" 	c #898989",
".	c #000000",
"+	c #A4A4A4",
"@	c #8F8F8F",
"#	c #A8A8A8",
"$	c #909090",
"%	c #939393",
"&	c #949494",
"*	c #ABABAB",
"=	c #919191",
"-	c #A9A9A9",
";	c #8E8E8E",
">	c #848484",
",	c #858585",
"'	c #FFFFFF",
")	c #A0A0A0",
"!	c #808080",
"~	c #9D9D9D",
"{	c #7C7C7C",
"]	c #DEDEDE",
"^	c #9A9A9A",
"/	c #787878",
"(	c #C7C7C7",
"_	c #979797",
":	c #747474",
"<	c #757575",
"[	c #B9B9B9",
"}	c #707070",
"|	c #B4B4B4",
"1	c #6D6D6D",
"2	c #BABABA",
"3	c #6B6B6B",
"4	c #6A6A6A",
"5	c #D1D1D1",
"6	c #D0D0D0",
"7	c #8C8C8C",
"8	c #8D8D8D",
"9	c #676767",
"0	c #8A8A8A",
"a	c #868686",
"b	c #878787",
"c	c #717171",
"d	c #797979",
"e	c #989898",
"f	c #A2A2A2",
"       .+           ",
"@@@@@@@.#@@@@@$@@@@$",
"%&&%%%&.*&%&%%&&%%%&",
"$=====$.-==$==$===$=",
";;;;;;;.#;;;;##;;;;;",
"     ...+   +..+    ",
">>,,.''.)>>).''.)>,>",
"!!!!!.''.~~.''.~!!!!",
"{{{{{{.]]..]].^{{{{{",
"///////.((((._//////",
":::<:::.[[[[.&::::::",
"}}}}}}.||..||.=}}}}}",
"11111.[[.;;.2[.;1111",
"3334.56.7448.65.8343",
"99999..099990...0999",
"9999.aa999999aa.a999",
"3434.b444443444.a334",
"cccc.@ccccccccc.@ccc",
"///d.e/d/dd////._d/d",
"bbbb.fbbbbbbbbb.fbbb"};
