/* XPM */
static char * titlefcs_xpm[] = {
"23 23 19 1",
" 	c None",
".	c #FFFFF0",
"+	c #1F0409",
"@	c #1B0307",
"#	c #1B0407",
"$	c #1C0408",
"%	c #1D0408",
"&	c #1E0407",
"*	c #1E0308",
"=	c #1F0509",
"-	c #200509",
";	c #210508",
">	c #220509",
",	c #22050A",
"'	c #21050A",
")	c #24050A",
"!	c #23050A",
"~	c #240409",
"{	c #25050A",
".......................",
"+++++++++++++++++++++++",
"@@@@@@@@@@@@@@@@@@@@@@@",
"#######################",
"$$$$$$$$$$$$$$$$$$$$$$$",
"%%%%%%%%%%%%%%%%%%%%%%%",
"%%%%%%%%%%%%%%%%%%%%%%%",
"&&&&&&&&&&&&&&&&&&&&&&&",
"***********************",
"+++++++++++++++++++++++",
"=======================",
"-----------------------",
";;;;;;;;;;;;;;;;;;;;;;;",
">>>>>>>>>>>>>>>>>>>>>>>",
",,,,,,,,,,,,,,,,,,,,,,,",
"'''''''''''''''''''''''",
",,,,,,,,,,,,,,,,,,,,,,,",
")))))))))))))))))))))))",
"!!!!!!!!!!!!!!!!!!!!!!!",
"~~~~~~~~~~~~~~~~~~~~~~~",
"{{{{{{{{{{{{{{{{{{{{{{{",
"{{{{{{{{{{{{{{{{{{{{{{{",
"......................."};
