/* XPM */
static char *closefcs[] = {
/* columns rows colors chars-per-pixel */
"22 22 41 1",
"  c #39392E2E2929",
". c #3B3B2F2F2B2B",
"X c #414134342E2E",
"o c #434336362F2F",
"O c #454536363030",
"+ c #4E4E3C3C3434",
"@ c #4F4F3D3D3434",
"# c #52523F3F3636",
"$ c #CBCB6B6B0000",
"% c #CFCF82822020",
"& c #E3E391913131",
"* c #E5E596963636",
"= c #E6E69B9B3B3B",
"- c #CACA96965D5D",
"; c #E8E8A0A04040",
": c #E9E9A5A54545",
"> c #EBEBAAAA4A4A",
", c #ECECAFAF4F4F",
"< c #EDEDB4B45454",
"1 c #EFEFB9B95959",
"2 c #F0F0BEBE5E5E",
"3 c #CACA99996060",
"4 c #CCCC9C9C6363",
"5 c #CCCC9F9F6666",
"6 c #CDCDA2A26969",
"7 c #CECEA5A56C6C",
"8 c #CFCFA8A86F6F",
"9 c #D0D0ABAB7272",
"0 c #D0D0AEAE7575",
"q c #D2D2B1B17878",
"w c #D2D2B4B47B7B",
"e c #D3D3B7B77E7E",
"r c #F2F2C3C36363",
"t c #F3F3C8C86868",
"y c #F5F5CDCD6D6D",
"u c #F6F6D2D27272",
"i c #D4D4BABA8181",
"p c #D5D5BDBD8484",
"a c #C3C3B8B89595",
"s c #D6D6C0C08787",
"d c #D7D7C4C48A8A",
/* pixels */
"oooooooooooooooooooooo",
"XXXXXXXXXXXXXXXXXXXXXX",
"                      ",
"adddddddddddddddddddd.",
"suuuuuuuuuuuuuuuuuuuus",
"pyyyyyyyyyyyyyyyyyyyyp",
"itttttttttttttttttttti",
"errrrrrrrrrrrrrrrrrrre",
"w2222222$%222%$222222w",
"q1111111%$%1%$%111111q",
"0<<<<<<<<%$%$%<<<<<<<0",
"9,,,,,,,,,%$%,,,,,,,,9",
"8>>>>>>>>%$%$%>>>>>>>8",
"7:::::::%$%:%$%::::::7",
"6;;;;;;;$%;;;%$;;;;;;6",
"5====================5",
"4********************4",
"3&&&&&&&&&&&&&&&&&&&&3",
"---------------------+",
"@@@@@@@@@@@@@@@@@@@@@@",
"######################",
"OOOOOOOOOOOOOOOOOOOOOO"
};
