/* XPM */
static char *maxpr[] = {
/* columns rows colors chars-per-pixel */
"22 22 23 1",
"  c #39392E2E2929",
". c #414134342E2E",
"X c #434336362F2F",
"o c #454536363030",
"O c #4F4F3D3D3434",
"+ c #52523F3F3636",
"@ c #515146463D3D",
"# c #B7B7B7B7B7B7",
"$ c #C6C6C6C6C6C6",
"% c #DDDDDDDDDDDD",
"& c #DFDFDFDFDFDF",
"* c #E1E1E1E1E1E1",
"= c #E2E2E2E2E2E2",
"- c gray90",
"; c #E6E6E6E6E6E6",
": c #E9E9E9E9E9E9",
"> c #EAEAEAEAEAEA",
", c gray92",
"< c #EEEEEEEEEEEE",
"1 c #EFEFEFEFEFEF",
"2 c #F1F1F1F1F1F1",
"3 c #F3F3F3F3F3F3",
"4 c gray96",
/* pixels */
"XXXXXXXXXXXXXXXXXXXXXX",
"......................",
"                      ",
"$$$$$$$$$$$$$$$$$$$$$$",
"4444444444444444444444",
"3333333333333333333333",
"2222222222222222222222",
"1111111111111111111111",
"<<<<<<<@@@@@@@@@<<<<<<",
",,,,,,,@@@@@@@@@,,,,,,",
">>>>>>>@>>>>>>>@>>>>>>",
":::::::@:::::::@::::::",
";;;;;;;@;;;;;;;@;;;;;;",
"-------@-------@------",
"=======@@@@@@@@@======",
"**********************",
"&&&&&&&&&&&&&&&&&&&&&&",
"%%%%%%%%%%%%%%%%%%%%%%",
"######################",
"OOOOOOOOOOOOOOOOOOOOOO",
"++++++++++++++++++++++",
"oooooooooooooooooooooo"
};
