/* XPM */
static char *maxufcs[] = {
/* columns rows colors chars-per-pixel */
"22 22 28 1",
"  c #39392E2E2929",
". c #414134342E2E",
"X c #434336362F2F",
"o c #454536363030",
"O c #4F4F3D3D3434",
"+ c #52523F3F3636",
"@ c #ACACACACACAC",
"# c gray73",
"$ c #BDBDBBBBB9B9",
"% c #BEBEBCBCBBBB",
"& c #BFBFBDBDBBBB",
"* c #C1C1BFBFBDBD",
"= c #C2C2C0C0BEBE",
"- c #C3C3C1C1C0C0",
"; c #CFCFCFCFCECE",
": c #D1D1D1D1D0D0",
"> c #D3D3D3D3D2D2",
", c LightGray",
"< c gray84",
"1 c #D7D7D7D7D7D7",
"2 c #DADADADAD9D9",
"3 c #DBDBDBDBDADA",
"4 c #DCDCDCDCDBDB",
"5 c gray87",
"6 c #DFDFDFDFDFDF",
"7 c #E1E1E1E1E1E1",
"8 c gray89",
"9 c #E5E5E5E5E4E4",
/* pixels */
"XXXXXXXXXXXXXXXXXXXXXX",
"......................",
"                      ",
"######################",
"9999999999999999999999",
"8888888888888888888888",
"7777777777777777777777",
"6666666666666666666666",
"5555555---------555555",
"4444444=========444444",
"3333333*3333333*333333",
"2222222*2222222*222222",
"1111111&1111111&111111",
"<<<<<<<%<<<<<<<%<<<<<<",
",,,,,,,$$$$$$$$$,,,,,,",
">>>>>>>>>>>>>>>>>>>>>>",
"::::::::::::::::::::::",
";;;;;;;;;;;;;;;;;;;;;;",
"@@@@@@@@@@@@@@@@@@@@@@",
"OOOOOOOOOOOOOOOOOOOOOO",
"++++++++++++++++++++++",
"oooooooooooooooooooooo"
};
