/* XPM */
static char *stickpr[] = {
/* columns rows colors chars-per-pixel */
"22 22 37 1",
"  c #39392E2E2929",
". c #3B3B2F2F2B2B",
"X c #3C3C30302B2B",
"o c #3E3E32322D2D",
"O c #3F3F32322D2D",
"+ c #404033332E2E",
"@ c #414134342E2E",
"# c #424234342E2E",
"$ c #434335352F2F",
"% c #434336362F2F",
"& c #454536363030",
"* c #464637373030",
"= c #474737373131",
"- c #484838383131",
"; c #494938383131",
": c #4A4A39393232",
"> c #4C4C3B3B3333",
", c #4D4D3C3C3434",
"< c #4E4E3C3C3434",
"1 c #4F4F3D3D3434",
"2 c #52523F3F3636",
"3 c #6B4164B461AE",
"4 c #6B4064B3622E",
"5 c #6C4165B462AE",
"6 c #6DC865B86231",
"7 c #6C4065B3632E",
"8 c #6E4965B86231",
"9 c #6EC866B86331",
"0 c #6F4966B86331",
"q c gray65",
"w c gray73",
"e c gray91",
"r c #EAEAEAEAEAEA",
"t c gray93",
"y c #EFEFEFEFEFEF",
"u c #F1F1F1F1F1F1",
"i c #F4F4F4F4F4F4",
/* pixels */
"%%%%%%%%%%%%%%%%%%%%%%",
"@@@@@@@@@@@@@@@@@@@@@@",
"                      ",
"......................",
"XXXXXXXXXXXXXXXXXXXXXX",
"oooooooooooooooooooooo",
"OOOOOOOOOOOOOOOOOOOOOO",
"++++++++7qwwq4++++++++",
"@@@@@@@5wuytrw3@@@@@@@",
"#######qiuytreq#######",
"$$$$$$$wiuytrew$$$$$$$",
"*******wiuytrew*******",
"=======qiuytreq=======",
"-------9wuytrw6-------",
";;;;;;;;0qwwq8;;;;;;;;",
"::::::::::::::::::::::",
">>>>>>>>>>>>>>>>>>>>>>",
",,,,,,,,,,,,,,,,,,,,,,",
"<<<<<<<<<<<<<<<<<<<<<<",
"1111111111111111111111",
"2222222222222222222222",
"&&&&&&&&&&&&&&&&&&&&&&"
};
