/* XPM */
static char *closeufcs_custom[] = {
/* columns rows colors chars-per-pixel */
"22 16 48 1",
"  c #4F8C5A3A43BD",
". c #52995CF64726",
"X c #55A75FB14A8E",
"o c #59F3674D4B31",
"O c #58EF617B4F7D",
"+ c #58B4626D4DF6",
"@ c #5DC36AB74F73",
"# c #5BC26528515E",
"$ c #5ECF67E354C6",
"% c #61946E2153B5",
"& c #61416BF05573",
"* c #61DD6A9F582F",
"= c #644E6EAB58DB",
"- c #64EA6D5B5B96",
"; c #6565718C57F7",
": c #675C71675C43",
"> c #67F870165EFF",
", c #693674F65C39",
"< c #6A6974225FAB",
"1 c #6B0572D16266",
"2 c #6D7776DE6313",
"3 c #6E13758D65CF",
"4 c #6D077860607C",
"5 c #70D87BCB64BE",
"6 c #70857999667C",
"7 c #712078496937",
"8 c #73927C5569E4",
"9 c #74A87F356900",
"0 c #742E7B046CA0",
"q c #76A07F106D4C",
"w c #773B7DBF7007",
"e c #787A829F6D42",
"r c #79AE81CB70B4",
"t c #7C4A860A7184",
"y c #7B20801475A5",
"u c #7CBB8487741C",
"i c #7FC887427785",
"p c #801B897475C7",
"a c #82D589FE7AED",
"s c #83EC8CDE7A09",
"d c #85E38CB97E55",
"f c #87BD90487E4B",
"g c #88F08F7481BD",
"h c #8B8D93B3828D",
"j c #8BFE92308525",
"k c #BE70BC55BC55",
"l c #D925D925D925",
"z c None",
/* pixels */
"yjjjjjjjjjjjjjjjjjjjjz",
"whhhhhhhhhhhhhhhhhhhhg",
"0ffffffffffffffffffffd",
"7ssssssssssssssssssssa",
"3ppppppppppppppppppppi",
"1tttttttlktttklttttttu",
">eeeeeeeklkeklkeeeeeer",
"-99999999klklk9999999q",
"*555555555klk555555558",
"$44444444klklk44444446",
"#,,,,,,,klk,klk,,,,,,2",
"+;;;;;;;lk;;;kl;;;;;;<",
"X%%%%%%%%%%%%%%%%%%%%:",
".@@@@@@@@@@@@@@@@@@@@=",
" oooooooooooooooooooo&",
"O&&&&&&&&&&&&&&&&&&&&z"
};
