/* XPM */
static char * bar_xpm[] = {
"20 20 56 1",
" 	c None",
".	c #CC4848",
"+	c #CE5252",
"@	c #CA4444",
"#	c #CB4545",
"$	c #CC4646",
"%	c #C83838",
"&	c #C93F3F",
"*	c #C93B3B",
"=	c #C03636",
"-	c #C43838",
";	c #BD3535",
">	c #B83434",
",	c #B03232",
"'	c #AD3131",
")	c #B53333",
"!	c #B63434",
"~	c #A42E2E",
"{	c #A52F2F",
"]	c #A83030",
"^	c #AA3030",
"/	c #9B2B2B",
"(	c #9C2C2C",
"_	c #902828",
":	c #972B2B",
"<	c #892727",
"[	c #8E2828",
"}	c #832323",
"|	c #852525",
"1	c #872525",
"2	c #731F1F",
"3	c #752121",
"4	c #782222",
"5	c #7D2323",
"6	c #6D1D1D",
"7	c #702020",
"8	c #5E1A1A",
"9	c #5F1B1B",
"0	c #691D1D",
"a	c #561818",
"b	c #591919",
"c	c #5B1919",
"d	c #4E1616",
"e	c #531717",
"f	c #451313",
"g	c #461414",
"h	c #4D1515",
"i	c #3A1010",
"j	c #3F1111",
"k	c #401212",
"l	c #320E0E",
"m	c #370F0F",
"n	c #381010",
"o	c #260A0A",
"p	c #290B0B",
"q	c #2F0D0D",
".......+++++++++++++",
"@@@@@#############$$",
"%%&&*&&&&&&&&&&&@@@@",
"====-==---==-%%%%%%%",
";;>>;;;;;;;;;;;;;;;;",
",,',',,,,,,)!!!!!!!!",
"~~{~]~{]^^]^^^^^^^^^",
"/////(((((((((((((~~",
"________::__:::::::/",
"<<<<<<<<<<<<<<[<[[[[",
"}}}}}}}}}}}|||1|1111",
"22322323333445444455",
"66666767777777777777",
"88889999000000000066",
"aabbcccc8ccc88c88888",
"dddddddddddddadaaaea",
"ffffggfgghhhhhhhhhhh",
"iiiiijiijkkjkkkkkkkk",
"llllllmmmmnnmnnnnnnn",
"opppppppppqpqppqqpql"};
