/* XPM */
static char * close_pressed_xpm[] = {
"25 25 198 2",
"  	c None",
". 	c #606060",
"+ 	c #3E3E3D",
"@ 	c #3E3E3E",
"# 	c #3D3E3E",
"$ 	c #3E3D3E",
"% 	c #3E3D3D",
"& 	c #3D3E3D",
"* 	c #3D3D3D",
"= 	c #3D3D3E",
"- 	c #3C3C3C",
"; 	c #3D3C3C",
"> 	c #3C3D3C",
", 	c #3C3C3D",
"' 	c #3D3C3D",
") 	c #3C3D3D",
"! 	c #3D3D3C",
"~ 	c #3C3C3B",
"{ 	c #3C3B3C",
"] 	c #4D4D4D",
"^ 	c #828282",
"/ 	c #B4B4B4",
"( 	c #CACACA",
"_ 	c #4C4C4C",
": 	c #3B3C3C",
"< 	c #3C3B3B",
"[ 	c #3B3B3B",
"} 	c #3F3F3F",
"| 	c #989797",
"1 	c #E1E2E1",
"2 	c #E6E6E6",
"3 	c #E0E0DF",
"4 	c #DFDFDF",
"5 	c #E2E2E2",
"6 	c #979797",
"7 	c #3F3E3E",
"8 	c #3B3B3C",
"9 	c #3B3C3B",
"0 	c #3A3B3A",
"a 	c #3B3B3A",
"b 	c #3A3B3B",
"c 	c #3A3A3A",
"d 	c #414141",
"e 	c #BCBCBC",
"f 	c #E0E0E0",
"g 	c #B7B7B7",
"h 	c #949494",
"i 	c #8E8E8E",
"j 	c #8D8E8D",
"k 	c #949493",
"l 	c #B8B8B8",
"m 	c #E1E1E1",
"n 	c #3F4040",
"o 	c #3A3A3B",
"p 	c #A1A1A1",
"q 	c #DCDCDC",
"r 	c #9B9B9A",
"s 	c #8A8A89",
"t 	c #9F9F9F",
"u 	c #3A3A39",
"v 	c #3A393A",
"w 	c #393939",
"x 	c #595959",
"y 	c #E4E4E4",
"z 	c #989898",
"A 	c #C9C9C9",
"B 	c #CFCFCF",
"C 	c #8D8E8E",
"D 	c #858686",
"E 	c #868685",
"F 	c #8E8D8D",
"G 	c #999999",
"H 	c #E3E3E3",
"I 	c #575758",
"J 	c #393A39",
"K 	c #3A3939",
"L 	c #383939",
"M 	c #393938",
"N 	c #A7A7A7",
"O 	c #C0C0C0",
"P 	c #CECECE",
"Q 	c #D5D5D5",
"R 	c #8A8A8A",
"S 	c #A6A6A6",
"T 	c #383938",
"U 	c #383839",
"V 	c #393839",
"W 	c #DBDBDB",
"X 	c #9E9E9E",
"Y 	c #7F7F7F",
"Z 	c #878787",
"` 	c #E7E7E7",
" .	c #D6D6D6",
"..	c #DADADA",
"+.	c #383838",
"@.	c #383737",
"#.	c #383837",
"$.	c #373738",
"%.	c #383738",
"&.	c #8E8E8D",
"*.	c #7B7B79",
"=.	c #838383",
"-.	c #D6D6D5",
";.	c #E7E7E6",
">.	c #848382",
",.	c #373838",
"'.	c #373737",
").	c #363737",
"!.	c #777777",
"~.	c #808080",
"{.	c #373637",
"].	c #373736",
"^.	c #363636",
"/.	c #373636",
"(.	c #363736",
"_.	c #969696",
":.	c #737373",
"<.	c #7C7D7B",
"[.	c #D3D3D2",
"}.	c #D4D4D4",
"|.	c #7C7C7B",
"1.	c #737473",
"2.	c #989897",
"3.	c #D9D9D9",
"4.	c #363637",
"5.	c #363635",
"6.	c #353635",
"7.	c #353535",
"8.	c #A5A5A5",
"9.	c #B9B9B8",
"0.	c #6F6F6E",
"a.	c #CBCBCA",
"b.	c #797978",
"c.	c #363536",
"d.	c #353536",
"e.	c #545454",
"f.	c #848484",
"g.	c #C2C2C2",
"h.	c #757575",
"i.	c #6B6B6B",
"j.	c #858585",
"k.	c #535353",
"l.	c #353534",
"m.	c #343434",
"n.	c #D8D8D8",
"o.	c #7F7E7D",
"p.	c #676767",
"q.	c #676867",
"r.	c #676866",
"s.	c #676766",
"t.	c #686767",
"u.	c #7F7F7E",
"v.	c #9D9D9D",
"w.	c #343534",
"x.	c #353434",
"y.	c #343333",
"z.	c #333434",
"A.	c #BABAB9",
"B.	c #A2A2A2",
"C.	c #6D6D6D",
"D.	c #626261",
"E.	c #626262",
"F.	c #6D6D6C",
"G.	c #A3A3A3",
"H.	c #BABABA",
"I.	c #343334",
"J.	c #333333",
"K.	c #333334",
"L.	c #939393",
"M.	c #DDDDDD",
"N.	c #949394",
"O.	c #333232",
"P.	c #323232",
"Q.	c #333233",
"R.	c #323333",
"S.	c #323332",
"T.	c #424242",
"U.	c #7B7B7B",
"V.	c #B0B0B0",
"W.	c #C8C8C8",
"X.	c #7B7A7B",
"Y.	c #434342",
"Z.	c #323233",
"`.	c #333332",
" +	c #323132",
".+	c #313232",
"++	c #323231",
"@+	c #313131",
"#+	c #313231",
"$+	c #313132",
"%+	c #323131",
"&+	c #313130",
"*+	c #303131",
"=+	c #303031",
"-+	c #303030",
";+	c #313031",
">+	c #303130",
",+	c #313030",
". . . . . . . . . . . . . . . . . . . . . . . . . ",
"+ @ @ # @ # $ % @ $ + @ @ @ $ @ @ @ @ + $ @ @ @ @ ",
"& * % * * * * * * * * $ = * * * * & * % * & * * * ",
"- ; > , ' * * ) * - ' ; ' - ) ! > ; ; ! * ; - > > ",
"- ~ - ~ - - { ~ ] ^ / ( ( / ^ _ : ~ { - - ~ - - - ",
"- < [ [ [ [ } | 1 2 2 3 4 2 2 5 6 7 8 < [ [ 9 9 [ ",
"0 a b a c d e 2 f g h i j k l m 2 e n b a [ b [ o ",
"c c c c c p 2 q r s s s s s s r q 2 t c c c c c c ",
"u v w w x y y z A B C D E F B A G H y I w J w K v ",
"L M L w N 2 O ^ P 2 Q R R Q 2 P ^ O 2 S w w L T U ",
"T U U V W 2 X Y Z Q `  . .` Q Z Y t 2 ..+.+.+.U +.",
"@.#.$.%.2 2 &.*.*.=.-.;.;.-.>.*.*.&.2 2 %.,.#.$.+.",
"'.).'.'.2 2 R !.!.~.Q ` ` Q ~.!.!.R 2 2 '.{.].'.'.",
"^./.'.(...2 _.:.<.[.;.}.}.;.[.|.1.2.2 3.(.^.^.^.4.",
"5.6.7.^.8.2 9.0.a.;.[.b.b.[.;.a.0.9.2 8.5.c.c.d.^.",
"7.7.7.7.e.y H f.g.( h.i.i.h.( g.j.y H k.7.7.6.7.7.",
"l.7.m.m.m.X 2 n.o.p.q.r.s.t.p.u.n.2 v.w.x.m.x.m.w.",
"m.y.z.m.m.w A.2 4 B.C.D.E.F.G.f 2 H.).m.z.m.I.J.y.",
"y.J.J.K.z.J.^.L.m 2 2 M.M.2 2 4 N.'.J.J.J.J.z.J.y.",
"J.O.P.Q.P.Q.R.S.T.U.V.W.W.V.X.Y.J.Z.O.Q.`.R.Q.P.S.",
" +P.P..+P.P.P.P.P.P.P.P.P.P.P.P.P.++P.++P.++P.P..+",
"@+++@+@+#+++$+.+#+%+.+@+@+$+ +%+%+$+@+++@+@+@+@+$+",
"&+@+@+*+*+&+=+@+@+-+@+;+=+@+;+=+-+;+;+*+@+@+&+>+&+",
"=+-+-+-+-+-+-+-+-+-+,+-+-+-+-+-+-+=+-+-+-+-+-+-+-+",
"=+-+-+-+-+-+-+-+-+-+,+-+-+-+-+-+-+=+-+-+-+-+-+-+-+"};
