/* XPM */
static char * focused_xpm[] = {
"1 25 25 1",
" 	c None",
".	c #3A482C",
"+	c #5B7C3A",
"@	c #5F823E",
"#	c #56733B",
"$	c #57743B",
"%	c #57733A",
"&	c #56733A",
"*	c #55713A",
"=	c #556F3A",
"-	c #546F39",
";	c #526C39",
">	c #506838",
",	c #4F6738",
"'	c #4F6638",
")	c #4F6538",
"!	c #4E6437",
"~	c #4D6237",
"{	c #4C6136",
"]	c #4C6036",
"^	c #4B5F36",
"/	c #4A5E35",
"(	c #526B39",
"_	c #455832",
":	c #353E2C",
".",
"+",
"@",
"#",
"$",
"%",
"&",
"*",
"=",
"-",
"-",
";",
">",
",",
"'",
")",
"!",
"~",
"{",
"]",
"^",
"/",
"(",
"_",
":"};
