/* XPM */
static char * menu_hilight_xpm[] = {
"1 23 23 1",
" 	c None",
".	c #3A482C",
"+	c #5E803C",
"@	c #5C7E3D",
"#	c #56733B",
"$	c #57743B",
"%	c #57733A",
"&	c #55723A",
"*	c #556F3A",
"=	c #546F39",
"-	c #526D39",
";	c #506838",
">	c #4F6738",
",	c #4F6538",
"'	c #4E6437",
")	c #4E6337",
"!	c #4D6237",
"~	c #4C6136",
"{	c #4B5F36",
"]	c #4A5D35",
"^	c #506738",
"/	c #495E35",
"(	c #39452C",
".",
"+",
"@",
"#",
"$",
"%",
"&",
"*",
"=",
"=",
"-",
";",
">",
",",
"'",
")",
"!",
"~",
"{",
"]",
"^",
"/",
"("};
