/* XPM */
static char * min_xpm[] = {
"25 25 101 2",
"  	c None",
". 	c #606060",
"+ 	c #3E3E3D",
"@ 	c #3E3E3E",
"# 	c #3D3E3E",
"$ 	c #3E3D3E",
"% 	c #3E3D3D",
"& 	c #3D3E3D",
"* 	c #3D3D3D",
"= 	c #3D3D3E",
"- 	c #3C3C3C",
"; 	c #3D3C3C",
"> 	c #3C3D3C",
", 	c #3C3C3D",
"' 	c #3D3C3D",
") 	c #3C3D3D",
"! 	c #3D3D3C",
"~ 	c #3C3C3B",
"{ 	c #3C3B3C",
"] 	c #3B3C3C",
"^ 	c #3C3B3B",
"/ 	c #3B3B3B",
"( 	c #3B3C3B",
"_ 	c #3B3B3C",
": 	c #3A3B3A",
"< 	c #3B3B3A",
"[ 	c #3A3B3B",
"} 	c #3A3A3A",
"| 	c #3A3A3B",
"1 	c #3B3A3A",
"2 	c #3A3A39",
"3 	c #3A393A",
"4 	c #393939",
"5 	c #393A3A",
"6 	c #3A3939",
"7 	c #393A39",
"8 	c #39393A",
"9 	c #383939",
"0 	c #393938",
"a 	c #393839",
"b 	c #383938",
"c 	c #383839",
"d 	c #383838",
"e 	c #383737",
"f 	c #383837",
"g 	c #373738",
"h 	c #383738",
"i 	c #373838",
"j 	c #373737",
"k 	c #373837",
"l 	c #363737",
"m 	c #373736",
"n 	c #373637",
"o 	c #363636",
"p 	c #373636",
"q 	c #363736",
"r 	c #363637",
"s 	c #B2B2B2",
"t 	c #E6E6E6",
"u 	c #B7B7B7",
"v 	c #363635",
"w 	c #353635",
"x 	c #353535",
"y 	c #363536",
"z 	c #ADADAD",
"A 	c #353536",
"B 	c #363535",
"C 	c #353534",
"D 	c #343434",
"E 	c #353435",
"F 	c #353434",
"G 	c #343435",
"H 	c #343535",
"I 	c #343534",
"J 	c #343333",
"K 	c #333434",
"L 	c #343433",
"M 	c #343334",
"N 	c #333334",
"O 	c #333333",
"P 	c #333232",
"Q 	c #323232",
"R 	c #333233",
"S 	c #323333",
"T 	c #323332",
"U 	c #323233",
"V 	c #333332",
"W 	c #323132",
"X 	c #313232",
"Y 	c #323231",
"Z 	c #313131",
"` 	c #313231",
" .	c #313132",
"..	c #323131",
"+.	c #313130",
"@.	c #303131",
"#.	c #303031",
"$.	c #303030",
"%.	c #313031",
"&.	c #303130",
"*.	c #313030",
". . . . . . . . . . . . . . . . . . . . . . . . . ",
"+ @ @ # @ # $ % @ $ + @ @ @ $ @ @ @ @ + $ @ @ @ @ ",
"& * % * * * * * * * * $ = * * * * & * % * & * * * ",
"- ; > , ' * * ) * - ' ; ' - ) ! > ; ; ! * ; - > > ",
"- ~ - ~ - - { ~ - - - ~ - - - - ] ~ { - - ~ - - - ",
"- ^ / / / / / ^ ( / ^ ~ / / / - ~ ^ _ ^ / / ( ( / ",
": < [ < } / / < | / / / : < / : 1 / [ [ < / [ / | ",
"} } } } } } } } } } } } } } } } } } } } } } } } } ",
"2 3 4 4 } 5 4 4 4 } 5 5 2 6 } 4 7 7 7 8 4 7 4 6 3 ",
"9 0 9 4 4 4 4 4 4 a 0 4 0 9 0 4 4 9 9 a 4 4 9 b c ",
"b c c a d d d d d d d c d b b d d d d d d d d c d ",
"e f g h i h g j k g f f j j e f j d e d h i f g d ",
"j l j j j j m j j j j l j l j j j j j j j n m j j ",
"o p j q o q r r s t t t t t t u l q o o q o o o r ",
"v w x o o y v o s t t t t t t z v v o v v y y A o ",
"x x x x x x x B x B x x x x x x x A x x x x w x x ",
"C x D D D E E D F G H I D E G I C H F I F D F D I ",
"D J K D D D L D M D D L D L N D D D K D K D M O J ",
"J O O N K O O N N N O N N J N J M O O O O O K O J ",
"O P Q R Q R S T Q O U O O O R V O U P R V S R Q T ",
"W Q Q X Q Q Q Q Q Q Q Q Q Q Q Q Q Y Q Y Q Y Q Q X ",
"Z Y Z Z ` Y  .X ` ..X Z Z  .W .... .Z Y Z Z Z Z  .",
"+.Z Z @.@.+.#.Z Z $.Z %.#.Z %.#.$.%.%.@.Z Z +.&.+.",
"#.$.$.$.$.$.$.$.$.$.*.$.$.$.$.$.$.#.$.$.$.$.$.$.$.",
"#.$.$.$.$.$.$.$.$.$.*.$.$.$.$.$.$.#.$.$.$.$.$.$.$."};
