/* XPM */
static char * stick_xpm[] = {
"25 25 165 2",
"  	c None",
". 	c #606060",
"+ 	c #3E3E3D",
"@ 	c #3E3E3E",
"# 	c #3D3E3E",
"$ 	c #3E3D3E",
"% 	c #3E3D3D",
"& 	c #3D3E3D",
"* 	c #3D3D3D",
"= 	c #3D3D3E",
"- 	c #3C3C3C",
"; 	c #3D3C3C",
"> 	c #3C3D3C",
", 	c #3C3C3D",
"' 	c #3D3C3D",
") 	c #3C3D3D",
"! 	c #3D3D3C",
"~ 	c #3C3C3B",
"{ 	c #3C3B3C",
"] 	c #4D4D4D",
"^ 	c #828282",
"/ 	c #B4B4B4",
"( 	c #CACACA",
"_ 	c #4C4C4C",
": 	c #3B3C3C",
"< 	c #3C3B3B",
"[ 	c #3B3B3B",
"} 	c #3F3F3F",
"| 	c #989797",
"1 	c #E1E2E1",
"2 	c #E6E6E6",
"3 	c #DADADA",
"4 	c #E2E2E2",
"5 	c #979797",
"6 	c #3F3E3E",
"7 	c #3B3B3C",
"8 	c #3B3C3B",
"9 	c #3A3B3A",
"0 	c #3B3B3A",
"a 	c #3A3B3B",
"b 	c #3A3A3A",
"c 	c #414141",
"d 	c #BCBCBC",
"e 	c #DDDDDD",
"f 	c #8C8C8C",
"g 	c #464646",
"h 	c #464645",
"i 	c #8D8D8D",
"j 	c #DEDEDE",
"k 	c #3F4040",
"l 	c #3A3A3B",
"m 	c #A1A1A1",
"n 	c #D3D3D3",
"o 	c #585858",
"p 	c #9F9F9F",
"q 	c #3A3A39",
"r 	c #3A393A",
"s 	c #393939",
"t 	c #595959",
"u 	c #E4E4E4",
"v 	c #E1E1E1",
"w 	c #5A5A5A",
"x 	c #393A3A",
"y 	c #3A3939",
"z 	c #5C5D5C",
"A 	c #575758",
"B 	c #393A39",
"C 	c #383939",
"D 	c #393938",
"E 	c #A7A7A7",
"F 	c #A4A4A4",
"G 	c #393839",
"H 	c #A6A6A6",
"I 	c #383938",
"J 	c #383839",
"K 	c #DBDBDB",
"L 	c #6C6C6C",
"M 	c #383838",
"N 	c #6E6E6E",
"O 	c #383737",
"P 	c #383837",
"Q 	c #373738",
"R 	c #383738",
"S 	c #565657",
"T 	c #373737",
"U 	c #373837",
"V 	c #575757",
"W 	c #373838",
"X 	c #363737",
"Y 	c #565655",
"Z 	c #565656",
"` 	c #373637",
" .	c #373736",
"..	c #363636",
"+.	c #373636",
"@.	c #363736",
"#.	c #6B6B6C",
"$.	c #363637",
"%.	c #6D6E6D",
"&.	c #D9D9D9",
"*.	c #363635",
"=.	c #353635",
"-.	c #353535",
";.	c #A5A5A5",
">.	c #A3A3A3",
",.	c #353636",
"'.	c #353536",
").	c #A3A3A2",
"!.	c #363536",
"~.	c #545454",
"{.	c #363535",
"].	c #E3E3E3",
"^.	c #535353",
"/.	c #353534",
"(.	c #343434",
"_.	c #9E9E9E",
":.	c #555454",
"<.	c #343435",
"[.	c #343535",
"}.	c #343534",
"|.	c #353435",
"1.	c #555555",
"2.	c #9D9D9D",
"3.	c #353434",
"4.	c #343333",
"5.	c #333434",
"6.	c #BABAB9",
"7.	c #898989",
"8.	c #343433",
"9.	c #414140",
"0.	c #8B8B8B",
"a.	c #DFDFDF",
"b.	c #BABABA",
"c.	c #343334",
"d.	c #333333",
"e.	c #333334",
"f.	c #939393",
"g.	c #949394",
"h.	c #333232",
"i.	c #323232",
"j.	c #333233",
"k.	c #323333",
"l.	c #323332",
"m.	c #424242",
"n.	c #7B7B7B",
"o.	c #B0B0B0",
"p.	c #C8C8C8",
"q.	c #7B7A7B",
"r.	c #434342",
"s.	c #323233",
"t.	c #333332",
"u.	c #323132",
"v.	c #313232",
"w.	c #323231",
"x.	c #313131",
"y.	c #313231",
"z.	c #313132",
"A.	c #323131",
"B.	c #313130",
"C.	c #303131",
"D.	c #303031",
"E.	c #303030",
"F.	c #313031",
"G.	c #303130",
"H.	c #313030",
". . . . . . . . . . . . . . . . . . . . . . . . . ",
"+ @ @ # @ # $ % @ $ + @ @ @ $ @ @ @ @ + $ @ @ @ @ ",
"& * % * * * * * * * * $ = * * * * & * % * & * * * ",
"- ; > , ' * * ) * - ' ; ' - ) ! > ; ; ! * ; - > > ",
"- ~ - ~ - - { ~ ] ^ / ( ( / ^ _ : ~ { - - ~ - - - ",
"- < [ [ [ [ } | 1 2 2 3 3 2 2 4 5 6 7 < [ [ 8 8 [ ",
"9 0 a 0 b c d 2 e f g [ 9 h i j 2 d k a 0 [ a [ l ",
"b b b b b m 2 n o b b b b b b o n 2 p b b b b b b ",
"q r s s t u v w s b x x q y b s z v u A s B s y r ",
"C D C s E 2 F s s G D s D C D s s F 2 H s s C I J ",
"I J J G K 2 L M M M M J M I I M M N 2 3 M M M J M ",
"O P Q R 2 2 S T U Q P P T T O P T V 2 2 R W P Q M ",
"T X T T 2 2 Y T T T T X T X T T T Z 2 2 T `  .T T ",
"..+.T @.3 2 #.$.@.X ..T ..+.....X %.2 &.@.......$.",
"*.=.-...;.2 >.......,.....*.'.*.*.).2 ;.*.!.!.'...",
"-.-.-.-.~.u v t -.{.-.-.-.-.-.-.w v ].^.-.-.=.-.-.",
"/.-.(.(.(._.2 n :.<.[.}.(.|.<.1.n 2 2.}.3.(.3.(.}.",
"(.4.5.(.(.s 6.2 j 7.c 8.(.9.0.a.2 b.X (.5.(.c.d.4.",
"4.d.d.e.5.d...f.v 2 2 3 3 2 2 a.g.T d.d.d.d.5.d.4.",
"d.h.i.j.i.j.k.l.m.n.o.p.p.o.q.r.d.s.h.j.t.k.j.i.l.",
"u.i.i.v.i.i.i.i.i.i.i.i.i.i.i.i.i.w.i.w.i.w.i.i.v.",
"x.w.x.x.y.w.z.v.y.A.v.x.x.z.u.A.A.z.x.w.x.x.x.x.z.",
"B.x.x.C.C.B.D.x.x.E.x.F.D.x.F.D.E.F.F.C.x.x.B.G.B.",
"D.E.E.E.E.E.E.E.E.E.H.E.E.E.E.E.E.D.E.E.E.E.E.E.E.",
"D.E.E.E.E.E.E.E.E.E.H.E.E.E.E.E.E.D.E.E.E.E.E.E.E."};
