/* XPM */
static char *minfcs[] = {
/* columns rows colors chars-per-pixel */
"22 22 40 1",
"  c #3C3C3B3B3737",
". c #4B4B4A4A4545",
"X c #4D4D4C4C4747",
"o c #50504E4E4A4A",
"O c #525251514C4C",
"+ c #545453534F4F",
"@ c #585857575252",
"# c #5A5A5A5A5555",
"$ c #888888888888",
"% c #939393939393",
"& c gray59",
"* c #9A9A9A9A9A9A",
"= c #9D9D9D9D9D9D",
"- c #A5A5A5A5A5A5",
"; c #A9A9A9A9A9A9",
": c gray71",
"> c #B6B6B6B6B6B6",
", c #B7B7B7B7B7B7",
"< c gray74",
"1 c #C0C0C0C0C0C0",
"2 c #C6C6C6C6C6C6",
"3 c #D0D0D0D0D0D0",
"4 c gray82",
"5 c gray83",
"6 c gray86",
"7 c #DDDDDDDDDDDD",
"8 c #DFDFDFDFDFDF",
"9 c #E1E1E1E1E1E1",
"0 c #E2E2E2E2E2E2",
"q c #E4E4E4E4E4E4",
"w c gray90",
"e c #E6E6E6E6E6E6",
"r c #E9E9E9E9E9E9",
"t c #EAEAEAEAEAEA",
"y c gray92",
"u c #EEEEEEEEEEEE",
"i c #EFEFEFEFEFEF",
"p c #F1F1F1F1F1F1",
"a c #F3F3F3F3F3F3",
"s c gray96",
/* pixels */
"######################",
"@@@@@@@@@@@@@@@@@@@@@@",
"++++++++++++++++++++++",
"OOOOOOOOOOOOOOOOOOOOOO",
"oooooooooooooooooooooo",
"XXXXXXXXXXXXXXXXXXXXXX",
".222222222222222222222",
";sssssssssssssssssssss",
";aaaaaaaaaaaaaaaaaaaaa",
";ppppppppppppppppppppp",
";iiiiiiiiiiiiiiiiiiiii",
";uuuuuuuuuuuuuuuuuuuuu",
";yyyyyy5<qyyyyq<5yyyyy",
";tttttt3&=5tt5=&3ttttt",
";rrrrrrr4*%11%*4rrrrrr",
";eeeeeeee6-$$-6eeeeeee",
";wwwwwwwww9:>9wwwwwwww",
";000000000000000000000",
";999999999999999999999",
";888888888888888888888",
";777777777777777777777",
" ,,,,,,,,,,,,,,,,,,,,,"
};
