/* XPM */
static char * minfcs_original_xpm[] = {
"22 16 33 1",
" 	c None",
".	c #C6C6C6",
"+	c #A9A9A9",
"@	c #F5F5F5",
"#	c #F3F3F3",
"$	c #F1F1F1",
"%	c #EFEFEF",
"&	c #EEEEEE",
"*	c #EBEBEB",
"=	c #D4D4D4",
"-	c #BDBDBD",
";	c #E4E4E4",
">	c #EAEAEA",
",	c #D0D0D0",
"'	c #969696",
")	c #9D9D9D",
"!	c #E9E9E9",
"~	c #D1D1D1",
"{	c #9A9A9A",
"]	c #939393",
"^	c #C0C0C0",
"/	c #E6E6E6",
"(	c #DBDBDB",
"_	c #A5A5A5",
":	c #888888",
"<	c #E5E5E5",
"[	c #E1E1E1",
"}	c #B5B5B5",
"|	c #B6B6B6",
"1	c #E2E2E2",
"2	c #DFDFDF",
"3	c #DDDDDD",
"4	c #B7B7B7",
" .....................",
"+@@@@@@@@@@@@@@@@@@@@@",
"+#####################",
"+$$$$$$$$$$$$$$$$$$$$$",
"+%%%%%%%%%%%%%%%%%%%%%",
"+&&&&&&&&&&&&&&&&&&&&&",
"+******=-;****;-=*****",
"+>>>>>>,')=>>=)',>>>>>",
"+!!!!!!!~{]^^]{~!!!!!!",
"+////////(_::_(///////",
"+<<<<<<<<<[}|[<<<<<<<<",
"+111111111111111111111",
"+[[[[[[[[[[[[[[[[[[[[[",
"+222222222222222222222",
"+333333333333333333333",
" 444444444444444444444"};
