/* XPM */
static char * titlefcs_synchronicity_444259_xpm[] = {
"22 22 38 1",
" 	c #777594",
".	c #9996C1",
"+	c #9995C1",
"@	c #9996C0",
"#	c #9995C0",
"$	c #9994C0",
"%	c #9894C0",
"&	c #9893C0",
"*	c #908DB9",
"=	c #908CB9",
"-	c #908CB8",
";	c #8F8CB8",
">	c #8F8BB8",
",	c #8F8BB7",
"'	c #8E8BB7",
")	c #8E8AB7",
"!	c #918DBA",
"~	c #918CBA",
"{	c #918DB8",
"]	c #918DB9",
"^	c #908BB9",
"/	c #908CB7",
"(	c #8E8CB8",
"_	c #8F8AB8",
":	c #9592BF",
"<	c #9591BF",
"[	c #9591BE",
"}	c #9491BE",
"|	c #9490BE",
"1	c #9490BD",
"2	c #9390BD",
"3	c #938FBD",
"4	c #6E6C8F",
"5	c #6E6B8F",
"6	c #6E6B8E",
"7	c #6E6B8D",
"8	c #6D6B8D",
"9	c #6D6A8D",
"                      ",
".+.@@@@@@#$$$$$$$%%&%%",
"*==-----;;>>>>,,,,')))",
"!~!{]]]]*=^==-/--;(_>>",
"!~!{]]]]*=^==-/--;(_>>",
"!~!{]]]]*=^==-/--;(_>>",
"!~!{]]]]*=^==-/--;(_>>",
"!~!{]]]]*=^==-/--;(_>>",
"!~!{]]]]*=^==-/--;(_>>",
"!~!{]]]]*=^==-/--;(_>>",
"!~!{]]]]*=^==-/--;(_>>",
"!~!{]]]]*=^==-/--;(_>>",
"!~!{]]]]*=^==-/--;(_>>",
"!~!{]]]]*=^==-/--;(_>>",
"!~!{]]]]*=^==-/--;(_>>",
"!~!{]]]]*=^==-/--;(_>>",
"!~!{]]]]*=^==-/--;(_>>",
"!~!{]]]]*=^==-/--;(_>>",
"!~!{]]]]*=^==-/--;(_>>",
"*==------;>>>>,,,,')))",
":<<[[[[[}}||||11122333",
"4556666666666677778999"};
