/* XPM */
static char * closeufcs_original_xpm[] = {
"22 16 46 1",
" 	c None",
".	c #B7AD8D",
"+	c #C9B883",
"@	c #C9B580",
"#	c #E6C56D",
"$	c #C8B27D",
"%	c #E5C068",
"&	c #C7AF7B",
"*	c #E3BC64",
"=	c #C6AC78",
"-	c #E2B75F",
";	c #C5A975",
">	c #E0B35A",
",	c #D79636",
"'	c #D99F43",
")	c #C5A772",
"!	c #DFAE56",
"~	c #D99C40",
"{	c #D79334",
"]	c #C3A46F",
"^	c #DEA951",
"/	c #D8993E",
"(	c #D69031",
"_	c #C3A16D",
":	c #DDA54D",
"<	c #D7973B",
"[	c #D68E2E",
"}	c #C29F6A",
"|	c #DCA048",
"1	c #D79438",
"2	c #D58B2B",
"3	c #C19C67",
"4	c #DA9C44",
"5	c #D69136",
"6	c #D48829",
"7	c #C09964",
"8	c #D9973F",
"9	c #D38526",
"0	c #D58E33",
"a	c #C09662",
"b	c #D7933A",
"c	c #C0945F",
"d	c #D68E36",
"e	c #BE915C",
"f	c #D48931",
"g	c #BE8E59",
".++++++++++++++++++++ ",
"@####################@",
"$%%%%%%%%%%%%%%%%%%%%$",
"&********************&",
"=--------------------=",
";>>>>>>>,'>>>',>>>>>>;",
")!!!!!!!~{~!~{~!!!!!!)",
"]^^^^^^^^/(/(/^^^^^^^]",
"_:::::::::<[<::::::::_",
"}||||||||12121|||||||}",
"3444444456545654444443",
"7888888890888098888887",
"abbbbbbbbbbbbbbbbbbbba",
"cddddddddddddddddddddc",
"effffffffffffffffffffe",
"ggggggggggggggggggggg "};
