/* XPM */
static char * maxfcs_button_xpm[] = {
"22 16 17 1",
" 	c #C6C6C6",
".	c #F5F5F5",
"+	c #F3F3F3",
"@	c #F1F1F1",
"#	c #EFEFEF",
"$	c #EEEEEE",
"%	c #9B9692",
"&	c #EBEBEB",
"*	c #EAEAEA",
"=	c #E9E9E9",
"-	c #E6E6E6",
";	c #E5E5E5",
">	c #E2E2E2",
",	c #E1E1E1",
"'	c #DFDFDF",
")	c #DDDDDD",
"!	c #B7B7B7",
"                      ",
"......................",
"++++++++++++++++++++++",
"@@@@@@@@@@@@@@@@@@@@@@",
"######################",
"$$$$$$$%%%%%%%%%$$$$$$",
"&&&&&&&%%%%%%%%%&&&&&&",
"*******%*******%******",
"=======%=======%======",
"-------%-------%------",
";;;;;;;%;;;;;;;%;;;;;;",
">>>>>>>%%%%%%%%%>>>>>>",
",,,,,,,,,,,,,,,,,,,,,,",
"''''''''''''''''''''''",
"))))))))))))))))))))))",
"!!!!!!!!!!!!!!!!!!!!!!"};
