/* XPM */
static char * maxufcs_original_xpm[] = {
"22 16 22 1",
" 	c #BABABA",
".	c #E5E5E4",
"+	c #E3E3E3",
"@	c #E1E1E1",
"#	c #DFDFDF",
"$	c #DEDEDE",
"%	c #C3C1C0",
"&	c #DCDCDB",
"*	c #C2C0BE",
"=	c #DBDBDA",
"-	c #C1BFBD",
";	c #DADAD9",
">	c #D7D7D7",
",	c #BFBDBB",
"'	c #D6D6D6",
")	c #BEBCBB",
"!	c #D3D3D3",
"~	c #BDBBB9",
"{	c #D3D3D2",
"]	c #D1D1D0",
"^	c #CFCFCE",
"/	c #ACACAC",
"                      ",
"......................",
"++++++++++++++++++++++",
"@@@@@@@@@@@@@@@@@@@@@@",
"######################",
"$$$$$$$%%%%%%%%%$$$$$$",
"&&&&&&&*********&&&&&&",
"=======-=======-======",
";;;;;;;-;;;;;;;-;;;;;;",
">>>>>>>,>>>>>>>,>>>>>>",
"''''''')''''''')''''''",
"!!!!!!!~~~~~~~~~!!!!!!",
"{{{{{{{{{{{{{{{{{{{{{{",
"]]]]]]]]]]]]]]]]]]]]]]",
"^^^^^^^^^^^^^^^^^^^^^^",
"//////////////////////"};
