/* XPM */
static char * minfcs_button_xpm[] = {
"22 16 19 1",
" 	c None",
".	c #C6C6C6",
"+	c #A9A9A9",
"@	c #F5F5F5",
"#	c #F3F3F3",
"$	c #F1F1F1",
"%	c #EFEFEF",
"&	c #EEEEEE",
"*	c #EBEBEB",
"=	c #EAEAEA",
"-	c #E9E9E9",
";	c #E6E6E6",
">	c #9B9692",
",	c #E5E5E5",
"'	c #E2E2E2",
")	c #E1E1E1",
"!	c #DFDFDF",
"~	c #DDDDDD",
"{	c #B7B7B7",
" .....................",
"+@@@@@@@@@@@@@@@@@@@@@",
"+#####################",
"+$$$$$$$$$$$$$$$$$$$$$",
"+%%%%%%%%%%%%%%%%%%%%%",
"+&&&&&&&&&&&&&&&&&&&&&",
"+*********************",
"+=====================",
"+---------------------",
"+;;;;;;;>>>>>>>>;;;;;;",
"+,,,,,,,>>>>>>>>,,,,,,",
"+'''''''''''''''''''''",
"+)))))))))))))))))))))",
"+!!!!!!!!!!!!!!!!!!!!!",
"+~~~~~~~~~~~~~~~~~~~~~",
" {{{{{{{{{{{{{{{{{{{{{"};
