/* XPM */
static char * close_unfocus_xpm[] = {
"21 21 72 1",
" 	c None",
".	c #4A4A4A",
"+	c #494949",
"@	c #464646",
"#	c #3C3C3C",
"$	c #919191",
"%	c #909090",
"&	c #8F8F8F",
"*	c #7D7D7D",
"=	c #3F3F3F",
"-	c #8E8E8E",
";	c #7B7B7B",
">	c #868686",
",	c #858585",
"'	c #858484",
")	c #848484",
"!	c #747474",
"~	c #7C7C7C",
"{	c #6C6C6C",
"]	c #3E3E3E",
"^	c #737373",
"/	c #727272",
"(	c #727171",
"_	c #656565",
":	c #6A6A6A",
"<	c #696969",
"[	c #5F5F5F",
"}	c #3D3D3D",
"|	c #616161",
"1	c #9A9A9A",
"2	c #585858",
"3	c #545454",
"4	c #575757",
"5	c #515151",
"6	c #4B4B4B",
"7	c #141414",
"8	c #1D1D1D",
"9	c #393939",
"0	c #010101",
"a	c #0E0E0E",
"b	c #383838",
"c	c #040404",
"d	c #050505",
"e	c #111111",
"f	c #0A0A0A",
"g	c #0B0B0B",
"h	c #161616",
"i	c #101010",
"j	c #130F0F",
"k	c #1C0E0E",
"l	c #1A1A1A",
"m	c #151515",
"n	c #161515",
"o	c #1A1313",
"p	c #1E1E1E",
"q	c #1B1B1B",
"r	c #1E1919",
"s	c #271616",
"t	c #1C1A1A",
"u	c #1C1C1C",
"v	c #232323",
"w	c #202020",
"x	c #212121",
"y	c #212020",
"z	c #221F1F",
"A	c #272727",
"B	c #3A3A3A",
"C	c #282828",
"D	c #2C2C2C",
"E	c #424242",
"F	c #414141",
"G	c #6F6F6F",
"..+.++++..+++++++++@#",
"$%&%%&&&%%&&&&%&&&&*=",
"%&-----------------;=",
">,')'))'))'))'),,),!=",
"~~;;;;;;;;;;;;;;;;;{]",
"^/(/(//(//(//(/////_]",
":<<<<<<<<<<<<<<<<<<[}",
"||||||11|||11||||||2}",
"32444411141114444445#",
"66+++..11111..++..+@#",
"777777771117777777789",
"0000000111110000000ab",
"cccddd111d111ddddddeb",
"ffffgg11ggg11ggggggh9",
"iiiiiiijkeiieeieeeel9",
"mmmmmmmnonmmmmmmhhhp9",
"qqqqqqqqqrstqqqquuuv9",
"wwwwwxxxxyzxxxxxxxxAB",
"AAAAAAAAAAACCCCCCCCDB",
"EEEEEEEEEEEEEEEEEEEEF",
"GGGGGGGGGGGGGGGGGGGGG"};
