/* XPM */
static char * close_pressed_xpm[] = {
"21 21 108 2",
"  	c None",
". 	c #686868",
"+ 	c #676767",
"@ 	c #696969",
"# 	c #656565",
"$ 	c #5C5C5C",
"% 	c #A2A2A2",
"& 	c #A1A1A1",
"* 	c #A0A0A0",
"= 	c #929292",
"- 	c #5F5F5F",
"; 	c #9F9F9F",
"> 	c #9E9E9E",
", 	c #909090",
"' 	c #999999",
") 	c #989898",
"! 	c #989797",
"~ 	c #979797",
"{ 	c #979696",
"] 	c #969696",
"^ 	c #8A8A8A",
"/ 	c #919191",
"( 	c #8F8F8F",
"_ 	c #848484",
": 	c #5E5E5E",
"< 	c #898989",
"[ 	c #898888",
"} 	c #7E7E7E",
"| 	c #838383",
"1 	c #828282",
"2 	c #797979",
"3 	c #5D5D5D",
"4 	c #7B7B7B",
"5 	c #7C7C7C",
"6 	c #7D7D7D",
"7 	c #D9D9D9",
"8 	c #D5D5D5",
"9 	c #808080",
"0 	c #818181",
"a 	c #747474",
"b 	c #717171",
"c 	c #757575",
"d 	c #767676",
"e 	c #787878",
"f 	c #CFCFCF",
"g 	c #CCCCCC",
"h 	c #6E6E6E",
"i 	c #6B6B6B",
"j 	c #707070",
"k 	c #737373",
"l 	c #C8C8C8",
"m 	c #6C6C6C",
"n 	c #666666",
"o 	c #3E3E3E",
"p 	c #424242",
"q 	c #464646",
"r 	c #4A4A4A",
"s 	c #505050",
"t 	c #555555",
"u 	c #5A5A5A",
"v 	c #C3C3C3",
"w 	c #444444",
"x 	c #2F2F2F",
"y 	c #333333",
"z 	c #383838",
"A 	c #3D3D3D",
"B 	c #434343",
"C 	c #4F4F4F",
"D 	c #595959",
"E 	c #313131",
"F 	c #343434",
"G 	c #393939",
"H 	c #575757",
"I 	c #353535",
"J 	c #323232",
"K 	c #3A3A3A",
"L 	c #363636",
"M 	c #3C3C3C",
"N 	c #404040",
"O 	c #454545",
"P 	c #545454",
"Q 	c #373737",
"R 	c #494949",
"S 	c #4D4D4D",
"T 	c #525050",
"U 	c #595151",
"V 	c #535353",
"W 	c #525252",
"X 	c #4E4E4E",
"Y 	c #3F3F3F",
"Z 	c #3B3B3B",
"` 	c #414141",
" .	c #4C4C4C",
"..	c #4F4E4E",
"+.	c #534E4E",
"@.	c #515151",
"#.	c #484848",
"$.	c #514D4D",
"%.	c #574B4B",
"&.	c #4E4D4D",
"*.	c #474747",
"=.	c #4F4D4D",
"-.	c #4B4B4B",
";.	c #5B5B5B",
">.	c #616161",
",.	c #626262",
"'.	c #636363",
").	c #878787",
". . + . + + + + . @ + + + + + + + + + # $ ",
"% & & & & & * * & & * * * & & & & & & = - ",
"& & * * ; ; ; > > > > > ; ; ; * * * * , - ",
"' ) ! ~ ~ ~ ~ { ] ] { ] ~ ~ ~ ) ) ~ ) ^ - ",
"/ / , , , ( ( ( ( ( ( ( ( ( , , , , , _ : ",
"^ < [ < [ < < [ < < [ < < [ < < < < < } : ",
"| 1 1 | | | | _ _ _ _ _ | | | | 1 1 1 2 3 ",
"4 5 5 6 } } 7 8 9 0 9 8 7 } } 6 5 5 4 a 3 ",
"b c c d e 2 8 f g 6 g f 8 2 e d c a a h $ ",
"i i i h j k a g l l l g a k j h m i @ n $ ",
"o p q r s t u : l v l : u t s r q p o w u ",
"x y z A B r C g l l l g C r B A z y x z D ",
"E F G o w r 8 f g H g f 8 r w o G I J K D ",
"L G M N O r 7 8 P t P 8 7 r O N A G Q o u ",
"K M o p q R S T U V W s X r q B Y M Z ` u ",
"A o N B q R  ...+.@.s X  .R q B ` Y o w u ",
"p B B q #.r  .S X $.%.&. .r #.q w B B #.u ",
"O q *.#.R  .S S X X =.S S  .r #.#.*.q -.;.",
"-.-. .S S S X C s s s s C X S S S  . .C ;.",
">.>.>.>.>.,.,.'.'.'.'.'.,.,.>.>.>.>.>.>.>.",
").).).).).).).).).).).).).).).).).).).).)."};
