/* XPM */
static char * close_focus_xpm[] = {
"21 21 69 1",
" 	c None",
".	c #686868",
"+	c #676767",
"@	c #656565",
"#	c #5C5C5C",
"$	c #A3A3A3",
"%	c #A2A2A2",
"&	c #A1A1A1",
"*	c #929292",
"=	c #5F5F5F",
"-	c #919191",
";	c #9A9A9A",
">	c #999999",
",	c #999898",
"'	c #989898",
")	c #8B8B8B",
"!	c #848484",
"~	c #5E5E5E",
"{	c #8A8A8A",
"]	c #898989",
"^	c #898888",
"/	c #7E7E7E",
"(	c #838383",
"_	c #828282",
":	c #797979",
"<	c #5D5D5D",
"[	c #7B7B7B",
"}	c #FFFFFF",
"|	c #747474",
"1	c #707070",
"2	c #737373",
"3	c #6E6E6E",
"4	c #696969",
"5	c #3B3B3B",
"6	c #FAFAFA",
"7	c #434343",
"8	c #5A5A5A",
"9	c #2B2B2B",
"0	c #363636",
"a	c #595959",
"b	c #2E2E2E",
"c	c #2F2F2F",
"d	c #393939",
"e	c #333333",
"f	c #343434",
"g	c #3D3D3D",
"h	c #383838",
"i	c #3A3737",
"j	c #423636",
"k	c #404040",
"l	c #3C3C3C",
"m	c #3D3C3C",
"n	c #403A3A",
"o	c #414141",
"p	c #433F3F",
"q	c #4B3D3D",
"r	c #424040",
"s	c #424242",
"t	c #484848",
"u	c #454545",
"v	c #464646",
"w	c #464545",
"x	c #474444",
"y	c #4B4B4B",
"z	c #5B5B5B",
"A	c #4C4C4C",
"B	c #4F4F4F",
"C	c #616161",
"D	c #878787",
"..+.++++..+++++++++@#",
"$%&%%&&&%%&&&&%&&&&*=",
"%&&&&&&&&&&&&&&&&&&-=",
";>,','','','','>>'>)=",
"**-----------------!~",
"{]^]^]]^]]^]]^]]]]]/~",
"(__________________:<",
"[[[[[[}}[[[}}[[[[[[|<",
"1|2222}}}2}}}2222223#",
"44+++..}}}}}..++..+@#",
"55555555}6}5555555578",
"9999999}}}}}99999990a",
"bbbccc}}}c}}}ccccccda",
"eeeeff}}fff}}ffffffg8",
"hhhhhhhijdhhddhddddk8",
"lllllllmnmllllllggg78",
"ooooooooopqroooossst8",
"uuuuuvvvvwxvvvvvvvvyz",
"yyyyyyyyyyyAAAAAAAABz",
"CCCCCCCCCCCCCCCCCCCCC",
"DDDDDDDDDDDDDDDDDDDDD"};
