/* XPM */
static char * hilite_xpm[] = {
"23 23 42 1",
" 	c None",
".	c #626262",
"+	c #616161",
"@	c #676767",
"#	c #666666",
"$	c #757575",
"%	c #747474",
"&	c #818181",
"*	c #808080",
"=	c #7F7F7F",
"-	c #7B7B7B",
";	c #7A7A7A",
">	c #767676",
",	c #6F6F6F",
"'	c #6E6E6E",
")	c #6A6A6A",
"!	c #696969",
"~	c #646464",
"{	c #656565",
"]	c #636363",
"^	c #5F5F5F",
"/	c #606060",
"(	c #5E5E5E",
"_	c #575757",
":	c #565656",
"<	c #474747",
"[	c #313131",
"}	c #242424",
"|	c #252525",
"1	c #282828",
"2	c #292929",
"3	c #2A2A2A",
"4	c #2B2B2B",
"5	c #2C2C2C",
"6	c #2E2E2E",
"7	c #2F2F2F",
"8	c #323232",
"9	c #333333",
"0	c #353535",
"a	c #363636",
"b	c #393939",
"c	c #434343",
"..................+++++",
"@@@@@@@@@@@@@@@@@@#####",
"$$$$$$$$$$$$$$$$$$%%%%%",
"&&&&&&&&&*************=",
"---------;;;;;;;;;;;;;;",
">>>>>>>>>$$$$$$$$$$$$$%",
",,,,,,,,,,,''''''''''''",
"))))))))))))))))!!!!!!!",
"~~~{{{{~~~~~~~~~]]]]]]]",
"^^^////^^^^^^^(((((((((",
"_______________:_______",
"<<<<<<<<<<<<<<<<<<<<<<<",
"[[[[[[[[[[[[[[[[[[[[[[[",
"}}}}}}}}}}}}}}}}}}}}}}}",
"|||||||||||||||||||||||",
"11111111222222222222222",
"33333344444445555555555",
"66666666666677777777777",
"88888888888888888888999",
"00000000000000000000aaa",
"bbbbbbbbbbbbbbbbbbbbbbb",
"ccccccccccccccccccccccc",
"_______________________"};
