/* XPM */
static char * max_pressed_xpm[] = {
"21 21 92 2",
"  	c None",
". 	c #676767",
"+ 	c #686868",
"@ 	c #696969",
"# 	c #A2A2A2",
"$ 	c #A1A1A1",
"% 	c #A0A0A0",
"& 	c #9F9F9F",
"* 	c #9E9E9E",
"= 	c #9D9D9D",
"- 	c #979797",
"; 	c #969696",
"> 	c #989898",
", 	c #909090",
"' 	c #8F8F8F",
") 	c #898989",
"! 	c #828282",
"~ 	c #838383",
"{ 	c #848484",
"] 	c #7B7B7B",
"^ 	c #7C7C7C",
"/ 	c #7D7D7D",
"( 	c #7E7E7E",
"_ 	c #7F7F7F",
": 	c #808080",
"< 	c #818181",
"[ 	c #737373",
"} 	c #747474",
"| 	c #757575",
"1 	c #767676",
"2 	c #787878",
"3 	c #797979",
"4 	c #7A7A7A",
"5 	c #CBCBCB",
"6 	c #6A6A6A",
"7 	c #6B6B6B",
"8 	c #6E6E6E",
"9 	c #707070",
"0 	c #C8C8C8",
"a 	c #727272",
"b 	c #6C6C6C",
"c 	c #3D3D3D",
"d 	c #3E3E3E",
"e 	c #424242",
"f 	c #464646",
"g 	c #4A4A4A",
"h 	c #505050",
"i 	c #555555",
"j 	c #5A5A5A",
"k 	c #CACACA",
"l 	c #C6C6C6",
"m 	c #2E2E2E",
"n 	c #2F2F2F",
"o 	c #333333",
"p 	c #383838",
"q 	c #434343",
"r 	c #D2D2D2",
"s 	c #CCCCCC",
"t 	c #575757",
"u 	c #303030",
"v 	c #323232",
"w 	c #353535",
"x 	c #393939",
"y 	c #444444",
"z 	c #565656",
"A 	c #D5D5D5",
"B 	c #CFCFCF",
"C 	c #373737",
"D 	c #404040",
"E 	c #454545",
"F 	c #4F4F4F",
"G 	c #525252",
"H 	c #545454",
"I 	c #3B3B3B",
"J 	c #3C3C3C",
"K 	c #3F3F3F",
"L 	c #494949",
"M 	c #4E4D4D",
"N 	c #535353",
"O 	c #515151",
"P 	c #4E4E4E",
"Q 	c #4C4C4C",
"R 	c #4D4D4D",
"S 	c #414141",
"T 	c #484848",
"U 	c #504E4E",
"V 	c #474747",
"W 	c #4B4B4B",
"X 	c #616161",
"Y 	c #626262",
"Z 	c #636363",
"` 	c #878787",
". . . . . + + + + + @ . . . . . . . . . . ",
"# $ $ $ $ $ $ $ $ $ $ % % $ $ $ $ $ $ $ $ ",
"% & & & & * & * * = = * * * * * & % % & & ",
"- - - - - - - - ; ; ; - ; - - - - - > - - ",
", , , , , , ' ' ' ' ' ' ' ' ' , , , , , , ",
") ) ) ) ) ) ) ) ) ) ) ) ) ) ) ) ) ) ) ) ) ",
"! ! ! ! ~ ~ ~ ~ { { { { { ~ ~ ~ ~ ! ! ! ! ",
"] ] ^ ^ / ( ( _ : : < : : _ ( ( / ^ ^ ] ] ",
"[ } } | 1 2 3 4 ^ / 5 / ^ 4 3 2 1 1 } } [ ",
"+ @ 6 7 8 9 [ } 1 0 0 0 1 } a 9 8 b 6 6 @ ",
"c d e f g h i j k 0 l 0 k j i h g f e d c ",
"m n o p c q g r s 0 t 0 s r g q c p o n m ",
"u v w x d y z A B z t z B A z y d x w v u ",
"w C x c D E g F G H i H G F g E D c x C w ",
"x I J K e f L M h G N G O P g f q K J I x ",
"c c d D q f L Q P h O O F R L f q S K d d ",
"S e q q f T g Q R P U P R Q g T f y q q e ",
"E E f V T g Q R R P P P R R Q g T T V f f ",
"W W W Q R R R P F h h O h F P R R R Q Q Q ",
"X X X X X X Y Y Z Z Z Z Z Y Y X X X X X X ",
"` ` ` ` ` ` ` ` ` ` ` ` ` ` ` ` ` ` ` ` ` "};
