/* XPM */
static char * min_focus_xpm[] = {
"21 21 34 1",
" 	c None",
".	c #676767",
"+	c #686868",
"@	c #A2A2A2",
"#	c #A1A1A1",
"$	c #A0A0A0",
"%	c #989898",
"&	c #999999",
"*	c #919191",
"=	c #898989",
"-	c #828282",
";	c #7B7B7B",
">	c #737373",
",	c #747474",
"'	c #FFFFFF",
")	c #3B3B3B",
"!	c #2B2B2B",
"~	c #2F2F2F",
"{	c #343434",
"]	c #383838",
"^	c #393939",
"/	c #393838",
"(	c #3C3C3C",
"_	c #3D3D3D",
":	c #414141",
"<	c #424040",
"[	c #424242",
"}	c #454545",
"|	c #464646",
"1	c #464545",
"2	c #4B4B4B",
"3	c #4C4C4C",
"4	c #616161",
"5	c #878787",
".....++++++..........",
"@####@@@@@@##@#######",
"#$$$$$#$$$$##$$$$##$$",
"%%%%%%&%%%%&%%%%%%&%%",
"*********************",
"=====================",
"---------------------",
";;;;;;;;;;;;;;;;;;;;;",
">>>>>>>>>>>,>>>>>,>>>",
".....++''++.''..++.++",
")))))))''')''')))))))",
"!!!!!!!!'''''!!!!!!!!",
"~~~~~~~~~'''~~~~~~~~~",
"{{{{{{{{{{'{{{{{{{{{{",
"]^]^]]]/]]^^^^^]^^^^^",
"((((_((((((___(((____",
"::::::::::<::::::[[[[",
"}}}}}||||}1||||||||||",
"222222222223333333333",
"444444444444444444444",
"555555555555555555555"};
