/* XPM */
static char * stick_focus_xpm[] = {
"21 21 65 1",
" 	c None",
".	c #5C5C5C",
"+	c #616161",
"@	c #676767",
"#	c #686868",
"$	c #797979",
"%	c #A1A1A1",
"&	c #A2A2A2",
"*	c #A3A3A3",
"=	c #787878",
"-	c #A0A0A0",
";	c #747474",
">	c #989898",
",	c #999999",
"'	c #999898",
")	c #9A9A9A",
"!	c #717171",
"~	c #909090",
"{	c #929292",
"]	c #6F6F6F",
"^	c #888888",
"/	c #8A8A8A",
"(	c #6B6B6B",
"_	c #828282",
":	c #838383",
"<	c #7B7B7B",
"[	c #7C7C7C",
"}	c #7C7B7B",
"|	c #666666",
"1	c #FFFFFF",
"2	c #696969",
"3	c #4E4E4E",
"4	c #3B3B3B",
"5	c #484848",
"6	c #2C2C2C",
"7	c #2B2B2B",
"8	c #494949",
"9	c #2F2F2F",
"0	c #2E2E2E",
"a	c #4B4B4B",
"b	c #343434",
"c	c #333333",
"d	c #343333",
"e	c #4D4D4D",
"f	c #393939",
"g	c #383838",
"h	c #393838",
"i	c #383737",
"j	c #4F4F4F",
"k	c #3D3D3D",
"l	c #3C3C3C",
"m	c #3C3B3B",
"n	c #515151",
"o	c #424242",
"p	c #414141",
"q	c #434040",
"r	c #525252",
"s	c #464646",
"t	c #464545",
"u	c #474444",
"v	c #454545",
"w	c #555555",
"x	c #4C4C4C",
"y	c #868686",
"z	c #878787",
".+@@@@@#######@######",
".$%%%%&&&&&&&&*******",
".=-%%%&&&&%%&&&&&&&&&",
".;>,'),)))),),)))))))",
".!~{{{{{{{{{{{{{{{{{{",
".]^//////////////////",
".(_::::::::::::::::::",
".#<[[[}[[[[[[}[[[[[[[",
".|;;;;;11;;;11;;;;;;;",
".+####2111#111######2",
".34444441111144444444",
".56777777111777777777",
".89990099999000999000",
".abbbcd1111111cbbcccc",
".efffghhggggigggggggg",
".jkkkllllllmlllllllll",
".nooppppppqpppppppppp",
".rssssssstussssssvvvv",
".wxxxxxxxxaaaaaaaaaaa",
"+++++++++++++++++++++",
"yzzzzzzzzzzzzzzzzzzzz"};
