/* XPM */
static char * title_focused_xpm[] = {
"21 21 41 1",
" 	c None",
".	c #747474",
"+	c #737373",
"@	c #A8A8A8",
"#	c #A7A7A7",
"$	c #A0A0A0",
"%	c #9F9F9F",
"&	c #9E9E9E",
"*	c #989898",
"=	c #979797",
"-	c #969696",
";	c #909090",
">	c #8F8F8F",
",	c #888888",
"'	c #878787",
")	c #828282",
"!	c #818181",
"~	c #808080",
"{	c #797979",
"]	c #7A7A7A",
"^	c #787878",
"/	c #707070",
"(	c #727272",
"_	c #646464",
":	c #636363",
"<	c #626262",
"[	c #333333",
"}	c #2B2B2B",
"|	c #2C2C2C",
"1	c #303030",
"2	c #343434",
"3	c #393939",
"4	c #3A3A3A",
"5	c #3D3D3D",
"6	c #424242",
"7	c #434343",
"8	c #464646",
"9	c #474747",
"0	c #4D4D4D",
"a	c #4E4E4E",
"b	c #686868",
"................++.++",
"@@@@@@@@@@@@@@#######",
"$$$$$$$$%%%%%%%%%%%&&",
"*******============--",
";;;;;;;;;>;>>>;;>>>>>",
",,,,,,,,',,,,,,,'''''",
")))!)))))!!!)!~!~~~~~",
"{]{]{{{^{^{^^^^{^^^^^",
"/+(((((((+++(((((((((",
"_::::::<<<<<<<<<<<<<<",
"[[[[[[[[[[[[[[[[[[[[[",
"}}}}}}}}}}|||||||||||",
"111111111111111111111",
"[[[[22222222222222222",
"333333333334444444444",
"555555555555555555555",
"666666666666666667777",
"888888888888888899999",
"00000000000000000a0aa",
"bbbbbbbbbbbbbbbbbbbbb",
";;;;;;;;;;;;;;;;;;;;;"};
