/* XPM */
static char * toolbar_xpm[] = {
"21 21 45 1",
" 	c None",
".	c #585858",
"+	c #575757",
"@	c #979797",
"#	c #969696",
"$	c #959595",
"%	c #8E8E8E",
"&	c #8D8D8D",
"*	c #8C8C8C",
"=	c #8B8B8B",
"-	c #848484",
";	c #838383",
">	c #828282",
",	c #7A7A7A",
"'	c #7B7B7B",
")	c #797979",
"!	c #717171",
"~	c #707070",
"{	c #696969",
"]	c #686868",
"^	c #5E5E5E",
"/	c #5F5F5F",
"(	c #545454",
"_	c #565656",
":	c #454545",
"<	c #444444",
"[	c #434343",
"}	c #424242",
"|	c #0A0A0A",
"1	c #010101",
"2	c #020202",
"3	c #060606",
"4	c #070707",
"5	c #0B0B0B",
"6	c #0C0C0C",
"7	c #111111",
"8	c #121212",
"9	c #161616",
"0	c #171717",
"a	c #1C1C1C",
"b	c #1D1D1D",
"c	c #222222",
"d	c #292929",
"e	c #2A2A2A",
"f	c #4A4A4A",
"....+......+...++++++",
"@@@@@@@#########$$#$$",
"%%%%&&&&***********==",
"----;;;;>>;>>>;>>;>>>",
",',,,'',,,,,,,,,,,)))",
"!!!!!!!~~~!!!~~~~~~~~",
"{{{{{{{{{{{{{{]]]]]]]",
"^/////^^^^^^^^^^^^^^^",
"(++++++_++++_________",
":<<<<<<[[[[[[[[[[}}}}",
"|||||||||||||||||||||",
"111111111122222222222",
"333334444444444444444",
"555566666666666666666",
"777777777788888888888",
"999999999999999990000",
"aaaaaaaaaaaaaaaabbbbb",
"ccccccccccccccccccccc",
"dddddddddddeeeeeeeeee",
"fffffffffffffffffffff",
")))))))))))))))))))))"};
