/* XPM */
static char * stuckufcs_grey_original_xpm[] = {
"8 8 18 1",
" 	c None",
".	c #4F4E4B",
"+	c #676664",
"@	c #6F6E6C",
"#	c #4F4D4A",
"$	c #4F4E4A",
"%	c #858482",
"&	c #848381",
"*	c #848380",
"=	c #82817F",
"-	c #868583",
";	c #82817E",
">	c #838380",
",	c #81817E",
"'	c #4E4D4A",
")	c #4E4C49",
"!	c #676663",
"~	c #6F6E6B",
" .+@@+# ",
"$@%&*=@#",
"+-%&*=;+",
"@-%&*=;@",
"@-%&>=,@",
"+-%&>=,+",
"'@%&>=@'",
" )!~~!) "};
