/* XPM */
static char * grip_focus_xpm[] = {
"13 13 9 1",
" 	c None",
".	c #F1B6B6",
"+	c #E58E8E",
"@	c #D46A6A",
"#	c #C95757",
"$	c #B73D3D",
"%	c #A22727",
"&	c #8E1919",
"*	c #811212",
".............",
"+++++++++++++",
"@@@@@@@@@@@@@",
"#############",
"$$$$$$$$$$$$$",
"%%%%%%%%%%%%%",
"&&&&&&&&&&&&&",
"*************",
"*************",
"*************",
"*************",
"*************",
"*************"};
