/* XPM */
static char * min_pressed_xpm[] = {
"20 20 14 1",
" 	c None",
".	c #FBD6D6",
"+	c #F1B6B6",
"@	c #E58E8E",
"#	c #DB7777",
"$	c #D46A6A",
"%	c #C95757",
"&	c #B73D3D",
"*	c #AB2E2E",
"=	c #A22727",
"-	c #530707",
";	c #8E1919",
">	c #FFFFFF",
",	c #811212",
"....................",
"++++++++++++++++++++",
"@@@@@@@@@@@@@@@@@@@@",
"####################",
"$$$$$$$$$$$$$$$$$$$$",
"%%%%%%%%%%%%%%%%%%%%",
"&&&&&&&&&&&&&&&&&&&&",
"********************",
"=====-----------====",
";;;;;->>>>>>>>>-;;;;",
",,,,,-->>>>>>>--,,,,",
",,,,,,-->>>>>--,,,,,",
",,,,,,,-->>>--,,,,,,",
",,,,,,,,-->--,,,,,,,",
",,,,,,,,,---,,,,,,,,",
",,,,,,,,,,,,,,,,,,,,",
",,,,,,,,,,,,,,,,,,,,",
",,,,,,,,,,,,,,,,,,,,",
",,,,,,,,,,,,,,,,,,,,",
",,,,,,,,,,,,,,,,,,,,"};
