/* XPM */
static char * hilite_xpm[] = {
"19 21 4 1",
" 	c None",
".	c #484848",
"+	c #393939",
"@	c #404040",
"...................",
"+++++++++++++++++++",
"+++++++++++++++++++",
"+++++++++++++++++++",
"+++++++++++++++++++",
"+++++++++++++++++++",
"+++++++++++++++++++",
"+++++++++++++++++++",
"+++++++++++++++++++",
"+++++++++++++++++++",
"+++++++++++++++++++",
"+++++++++++++++++++",
"+++++++++++++++++++",
"+++++++++++++++++++",
"+++++++++++++++++++",
"+++++++++++++++++++",
"+++++++++++++++++++",
"+++++++++++++++++++",
"+++++++++++++++++++",
"+++++++++++++++++++",
"@@@@@@@@@@@@@@@@@@@"};
