/* XPM */
static char * max_focus_xpm[] = {
"19 19 40 1",
" 	c None",
".	c #8E8E8E",
"+	c #424242",
"@	c #434343",
"#	c #444444",
"$	c #3E3E3E",
"%	c #3F3F3F",
"&	c #404040",
"*	c #3A3A3A",
"=	c #3B3B3B",
"-	c #3C3C3C",
";	c #3D3D3D",
">	c #363636",
",	c #373737",
"'	c #383838",
")	c #393939",
"!	c #333333",
"~	c #343434",
"{	c #353535",
"]	c #2F2F2F",
"^	c #E7E7E7",
"/	c #313131",
"(	c #2C2C2C",
"_	c #1B1B1B",
":	c #2E2E2E",
"<	c #272727",
"[	c #282828",
"}	c #292929",
"|	c #2A2A2A",
"1	c #242424",
"2	c #252525",
"3	c #323232",
"4	c #262626",
"5	c #202020",
"6	c #212121",
"7	c #222222",
"8	c #1E1E1E",
"9	c #1F1F1F",
"0	c #535353",
"a	c #141414",
"...................",
"++++++@@@@@@@######",
"$$$$$$$%%%%%%%&&&&&",
"**=======-------;;;",
">>>,,,,,,,'''''''))",
"!!!!~~~~~~~~{{{{{{{",
"]]]]]]]>>^^^^^/////",
"(((((((^__^^^^:::::",
"<<[[[[[^^__^^^}}|||",
"1112222^^^33^^44444",
"5555666^^^^33^77777",
"8888888^^^^^3399999",
"0000000000000000000",
"444<<<<<<<<<<<[[[[[",
"0000000000000000000",
"3!!!!!!!!!!!~~~~~~~",
"0000000000000000000",
"%%%%%%%%%%&&&&&&&&&",
"aaaaaaaaaaaaaaaaaaa"};
