/* XPM */
static char * max_focus_xpm[] = {
"19 19 43 1",
" 	c None",
".	c #8E8E8E",
"+	c #3C3C3C",
"@	c #3D3D3D",
"#	c #3E3E3E",
"$	c #373737",
"%	c #383838",
"&	c #393939",
"*	c #313131",
"=	c #323232",
"-	c #333333",
";	c #343434",
">	c #2C2C2C",
",	c #2D2D2D",
"'	c #2E2E2E",
")	c #2F2F2F",
"!	c #272727",
"~	c #282828",
"{	c #292929",
"]	c #222222",
"^	c #303030",
"/	c #D7D7D7",
"(	c #242424",
"_	c #1D1D1D",
":	c #000000",
"<	c #1F1F1F",
"[	c #171717",
"}	c #181818",
"|	c #191919",
"1	c #1A1A1A",
"2	c #121212",
"3	c #131313",
"4	c #141414",
"5	c #151515",
"6	c #0D0D0D",
"7	c #0E0E0E",
"8	c #0F0F0F",
"9	c #090909",
"0	c #0A0A0A",
"a	c #535353",
"b	c #262626",
"c	c #3F3F3F",
"d	c #404040",
"...................",
"++++++@@@@@@@######",
"$$$$$$$%%%%%%%&&&&&",
"**=======-------;;;",
">>>,,,,,,,'''''''))",
"!!!!~~~~~~~~{{{{{{{",
"]]]]]]]^^/////(((((",
"_______/::////<<<<<",
"[[}}}}}//::///||111",
"2223333///__//44455",
"6666777////__/88888",
"9999999/////__00000",
"aaaaaaaaaaaaaaaaaaa",
"bbb!!!!!!!!!!!~~~~~",
"aaaaaaaaaaaaaaaaaaa",
"=-----------;;;;;;;",
"aaaaaaaaaaaaaaaaaaa",
"ccccccccccddddddddd",
"4444444444444444444"};
