/* XPM */
static char * close_focus_xpm[] = {
"19 19 41 1",
" 	c None",
".	c #6D6D6D",
"+	c #6C6C6C",
"@	c #6B6B6B",
"#	c #6A6A6A",
"$	c #696969",
"%	c #2F3737",
"&	c #2E2E2E",
"*	c #121212",
"=	c #2B2B2B",
"-	c #B0B0B0",
";	c #282828",
">	c #272727",
",	c #252525",
"'	c #242424",
")	c #FFFFFF",
"!	c #DEDEDE",
"~	c #222222",
"{	c #1F1F1F",
"]	c #1C1C1C",
"^	c #1B1B1B",
"/	c #1A1A1A",
"(	c #191919",
"_	c #161616",
":	c #141414",
"<	c #151515",
"[	c #040404",
"}	c #070707",
"|	c #060606",
"1	c #050505",
"2	c #080808",
"3	c #0A0A0A",
"4	c #090909",
"5	c #0C0C0C",
"6	c #0E0E0E",
"7	c #0D0D0D",
"8	c #0B0B0B",
"9	c #0F0F0F",
"0	c #131313",
"a	c #181818",
"b	c #171717",
"......+@@#$#@@@@@@+",
"%%%%%%%%%%%%%%%%%%%",
"&**************&&&&",
"=*------------*====",
";*->;;;;;;;;;-*;;;;",
",*-')!''''!)'-*,,,,",
"~*-~!)!~~!)!~-*~~~~",
"{*-{{!)!!)!{{-*{{{{",
"]*-^^^!))!]]]-*]]]]",
"/*-(((!))!///-*////",
"_*-:<!)!!)!__-*____",
"[*-}!)!||!)!1-*[[[[",
"2*-3)!3344!)4-*2222",
"5*-6677777755-*5855",
"9*------------*9999",
"0**************0000",
"((((aaaaabbbbbb__b_",
"aaaaaaaaaaaaaaaaaaa",
"aaaaaaaaaaaaaaaaaaa"};
