/* XPM */
static char * close_unfocus_xpm[] = {
"19 19 38 1",
" 	c None",
".	c #6D6D6D",
"+	c #6C6C6C",
"@	c #6B6B6B",
"#	c #6A6A6A",
"$	c #696969",
"%	c #2F3737",
"&	c #2E2E2E",
"*	c #121212",
"=	c #2B2B2B",
"-	c #878787",
";	c #282828",
">	c #1E1E1E",
",	c #1F1F1F",
"'	c #252525",
")	c #1C1C1C",
"!	c #C3C3C3",
"~	c #AAAAAA",
"{	c #222222",
"]	c #1A1A1A",
"^	c #181818",
"/	c #151515",
"(	c #131313",
"_	c #141414",
":	c #161616",
"<	c #0F0F0F",
"[	c #101010",
"}	c #111111",
"|	c #040404",
"1	c #050505",
"2	c #080808",
"3	c #070707",
"4	c #0C0C0C",
"5	c #0B0B0B",
"6	c #0A0A0A",
"7	c #090909",
"8	c #191919",
"9	c #171717",
"......+@@#$#@@@@@@+",
"%%%%%%%%%%%%%%%%%%%",
"&**************&&&&",
"=*------------*====",
";*->,,,,,,,,,-*;;;;",
"'*-)!~))))~!)-*''''",
"{*-]~!~]]~!~]-*{{{{",
",*-^^~!~~!~^^-*,,,,",
")*-///~!!~///-*))))",
"]*-(((~!!~___-*]]]]",
":*-<[~!~~!~}}-*::::",
"|*-1~!~11~!~|-*||||",
"2*-2!~2233~!3-*2222",
"4*-5566666677-*4544",
"<*------------*<<<<",
"(**************((((",
"8888^^^^^999999::9:",
"^^^^^^^^^^^^^^^^^^^",
"^^^^^^^^^^^^^^^^^^^"};
