/* XPM */
static char * max_focus_xpm[] = {
"19 19 41 1",
" 	c None",
".	c #6D6D6D",
"+	c #6C6C6C",
"@	c #6B6B6B",
"#	c #6A6A6A",
"$	c #696969",
"%	c #2F3737",
"&	c #2E2E2E",
"*	c #2F2F2F",
"=	c #121212",
"-	c #2B2B2B",
";	c #B0B0B0",
">	c #282828",
",	c #272727",
"'	c #252525",
")	c #242424",
"!	c #DEDEDE",
"~	c #222222",
"{	c #FFFFFF",
"]	c #202020",
"^	c #1F1F1F",
"/	c #1C1C1C",
"(	c #1B1B1B",
"_	c #1A1A1A",
":	c #191919",
"<	c #161616",
"[	c #141414",
"}	c #171717",
"|	c #040404",
"1	c #070707",
"2	c #050505",
"3	c #080808",
"4	c #0A0A0A",
"5	c #090909",
"6	c #0B0B0B",
"7	c #0E0E0E",
"8	c #0D0D0D",
"9	c #0C0C0C",
"0	c #0F0F0F",
"a	c #131313",
"b	c #181818",
"......+@@#$#@@@@@@+",
"%%%%%%%%%%%%%%%%%%%",
"&*==============&&*",
"--=;;;;;;;;;;;;=---",
">>=;,>>>>>>>>>;=>>>",
"''=;)!!!!!!!!);='''",
"~~=;~{{{{{{{{~;=~~~",
"]]=;^{^^^^^^{^;=^]]",
"//=;({(((///{/;=///",
"__=;:{:::___{_;=___",
"<<=;[{<<}}}}{<;=<<<",
"||=;1{{{{{{{{2;=|||",
"31=;4!!!!!!!!5;=331",
"66=;7788888899;=666",
"00=;;;;;;;;;;;;=000",
"================a==",
"<<::bbbbb}}}}}}<<<<",
"bbbbbbbbbbbbbbbbbbb",
"bbbbbbbbbbbbbbbbbbb"};
