/* XPM */
static char * stick_unfocus_xpm[] = {
"19 19 27 1",
" 	c None",
".	c #6C6C6C",
"+	c #6B6B6B",
"@	c #6A6A6A",
"#	c #696969",
"$	c #6D6D6D",
"%	c #2F3737",
"&	c #2E2E2E",
"*	c #2B2B2B",
"=	c #282828",
"-	c #252525",
";	c #242424",
">	c #222222",
",	c #1F1F1F",
"'	c #1C1C1C",
")	c #AAAAAA",
"!	c #1A1A1A",
"~	c #161616",
"{	c #040404",
"]	c #080808",
"^	c #0C0C0C",
"/	c #0B0B0B",
"(	c #0F0F0F",
"_	c #131313",
":	c #171717",
"<	c #181818",
"[	c #191919",
".++++++@#@++.$$$$$$",
"%%%%%%%%%%%%%%%%%%%",
"&&&&&&&&&&&&&&&&&&&",
"*******************",
"===================",
"-----------;;------",
">>>>>>>>>>>>>>>>>>>",
",,,,,,,,,,,,,,,,,,,",
"''''''''))))'''''''",
"!!!!!!!!)!!)!!!!!!!",
"~~~~~~~~)~~)~~~~~~~",
"{{{{{{{{)))){{{{{{{",
"]]]]]]]]]]]]]]]]]]]",
"^^/^^^^^/^^^/^/^^/^",
"(((((((((((((((((((",
"___________________",
"~:~~::::::<<<<<[[[[",
"<<<<<<<<<<<<<<<<<<<",
"<<<<<<<<<<<<<<<<<<<"};
