/* XPM */
static char * title_xpm[] = {
"19 19 35 1",
" 	c None",
".	c #6D6D6D",
"+	c #6C6C6C",
"@	c #6B6B6B",
"#	c #6A6A6A",
"$	c #696969",
"%	c #2F3737",
"&	c #2E2E2E",
"*	c #2F2F2F",
"=	c #2B2B2B",
"-	c #272727",
";	c #282828",
">	c #252525",
",	c #242424",
"'	c #222222",
")	c #1F1F1F",
"!	c #202020",
"~	c #1B1B1B",
"{	c #1C1C1C",
"]	c #191919",
"^	c #1A1A1A",
"/	c #111111",
"(	c #141414",
"_	c #151515",
":	c #161616",
"<	c #171717",
"[	c #0A0A0A",
"}	c #0C0C0C",
"|	c #0E0E0E",
"1	c #0F0F0F",
"2	c #101010",
"3	c #121212",
"4	c #131313",
"5	c #0B0B0B",
"6	c #060606",
"......+@@#$#@@@@@@+",
"%%%%%%%%%%%%%%%%%%%",
"&&&&&&&&&&&&&&&&&&*",
"===================",
"---;;;;;;;;;;;;;;;;",
">,,,,,,,,,,,>>>>>>>",
"'''''''''''''''''''",
")))))))))))))))))!!",
"~~~~~~~{{{{{{{{{{{{",
"]]]]]]]^^^^^^^^^^^^",
"//(_::<<<<:::::::::",
"[}|122//3334433/156",
"4(((((((((((((((444",
"(((((((((((((((((((",
"(((((((((((((((((((",
"(((((((((((((((((((",
"(((((((((((((((((((",
"(((((((((((((((((((",
"((((((((((((((((((("};
