/* XPM */
static char * close_unfocused_xpm[] = {
"25 25 116 2",
"  	c None",
". 	c #606060",
"+ 	c #3E3E3D",
"@ 	c #3E3E3E",
"# 	c #3D3E3E",
"$ 	c #3E3D3E",
"% 	c #3E3D3D",
"& 	c #3D3E3D",
"* 	c #3D3D3D",
"= 	c #3D3D3E",
"- 	c #3C3C3C",
"; 	c #3D3C3C",
"> 	c #3C3D3C",
", 	c #3C3C3D",
"' 	c #3D3C3D",
") 	c #3C3D3D",
"! 	c #3D3D3C",
"~ 	c #3C3C3B",
"{ 	c #3C3B3C",
"] 	c #3B3C3C",
"^ 	c #3C3B3B",
"/ 	c #3B3B3B",
"( 	c #3B3C3B",
"_ 	c #3B3B3C",
": 	c #3A3B3A",
"< 	c #3B3B3A",
"[ 	c #3A3B3B",
"} 	c #3A3A3A",
"| 	c #3A3A3B",
"1 	c #3B3A3A",
"2 	c #3A3A39",
"3 	c #3A393A",
"4 	c #393939",
"5 	c #393A3A",
"6 	c #7D7D7D",
"7 	c #848484",
"8 	c #414242",
"9 	c #424141",
"0 	c #393A39",
"a 	c #39393A",
"b 	c #3A3939",
"c 	c #383939",
"d 	c #393938",
"e 	c #9B9B9B",
"f 	c #8A8A8A",
"g 	c #414141",
"h 	c #414140",
"i 	c #393839",
"j 	c #383938",
"k 	c #383839",
"l 	c #383838",
"m 	c #404040",
"n 	c #8B8B8C",
"o 	c #8B8B8B",
"p 	c #383737",
"q 	c #383837",
"r 	c #373738",
"s 	c #383738",
"t 	c #373838",
"u 	c #373737",
"v 	c #373837",
"w 	c #3F3F40",
"x 	c #403F3F",
"y 	c #363737",
"z 	c #373736",
"A 	c #3F3F3F",
"B 	c #373637",
"C 	c #363636",
"D 	c #373636",
"E 	c #363736",
"F 	c #363637",
"G 	c #3E3F3E",
"H 	c #898A8A",
"I 	c #898989",
"J 	c #363635",
"K 	c #353635",
"L 	c #353535",
"M 	c #363536",
"N 	c #838383",
"O 	c #353536",
"P 	c #363535",
"Q 	c #7C7C7C",
"R 	c #353534",
"S 	c #343434",
"T 	c #353435",
"U 	c #353434",
"V 	c #343435",
"W 	c #343535",
"X 	c #343534",
"Y 	c #343333",
"Z 	c #333434",
"` 	c #343433",
" .	c #343334",
"..	c #333334",
"+.	c #333333",
"@.	c #333232",
"#.	c #323232",
"$.	c #333233",
"%.	c #323333",
"&.	c #323332",
"*.	c #323233",
"=.	c #333332",
"-.	c #323132",
";.	c #313232",
">.	c #323231",
",.	c #313131",
"'.	c #313231",
").	c #313132",
"!.	c #323131",
"~.	c #313130",
"{.	c #303131",
"].	c #303031",
"^.	c #303030",
"/.	c #313031",
"(.	c #303130",
"_.	c #313030",
". . . . . . . . . . . . . . . . . . . . . . . . . ",
"+ @ @ # @ # $ % @ $ + @ @ @ $ @ @ @ @ + $ @ @ @ @ ",
"& * % * * * * * * * * $ = * * * * & * % * & * * * ",
"- ; > , ' * * ) * - ' ; ' - ) ! > ; ; ! * ; - > > ",
"- ~ - ~ - - { ~ - - - ~ - - - - ] ~ { - - ~ - - - ",
"- ^ / / / / / ^ ( / ^ ~ / / / - ~ ^ _ ^ / / ( ( / ",
": < [ < } / / < | / / / : < / : 1 / [ [ < / [ / | ",
"} } } } } } } } } } } } } } } } } } } } } } } } } ",
"2 3 4 4 } 5 4 4 6 7 8 5 2 9 7 6 0 0 0 a 4 0 4 b 3 ",
"c d c 4 4 4 4 4 7 e f g h f e 7 4 c c i 4 4 c j k ",
"j k k i l l l l m f e n o e f m l l l l l l l k l ",
"p q r s t s r u v w o e e o x q u l p l s t q r l ",
"u y u u u u z u u A o e e o A u u u u u u B z u u ",
"C D u E C E F F G H e o o e I @ y E C C E C C C F ",
"J K L C C M J C N e I @ @ I e N J J C J J M M O C ",
"L L L L L L L P Q N * L L * N Q L O L L L L K L L ",
"R L S S S T T S U V W X S T V X R W U X U S U S X ",
"S Y Z S S S ` S  .S S ` S ` ..S S S Z S Z S  .+.Y ",
"Y +.+...Z +.+.......+.....Y ..Y  .+.+.+.+.+.Z +.Y ",
"+.@.#.$.#.$.%.&.#.+.*.+.+.+.$.=.+.*.@.$.=.%.$.#.&.",
"-.#.#.;.#.#.#.#.#.#.#.#.#.#.#.#.#.>.#.>.#.>.#.#.;.",
",.>.,.,.'.>.).;.'.!.;.,.,.).-.!.!.).,.>.,.,.,.,.).",
"~.,.,.{.{.~.].,.,.^.,./.].,./.].^././.{.,.,.~.(.~.",
"].^.^.^.^.^.^.^.^.^._.^.^.^.^.^.^.].^.^.^.^.^.^.^.",
"].^.^.^.^.^.^.^.^.^._.^.^.^.^.^.^.].^.^.^.^.^.^.^."};
