/* XPM */
static char * max_pressed_xpm[] = {
"25 25 192 2",
"  	c None",
". 	c #606060",
"+ 	c #3E3E3D",
"@ 	c #3E3E3E",
"# 	c #3D3E3E",
"$ 	c #3E3D3E",
"% 	c #3E3D3D",
"& 	c #3D3E3D",
"* 	c #3D3D3D",
"= 	c #3D3D3E",
"- 	c #3C3C3C",
"; 	c #3D3C3C",
"> 	c #3C3D3C",
", 	c #3C3C3D",
"' 	c #3D3C3D",
") 	c #3C3D3D",
"! 	c #3D3D3C",
"~ 	c #3C3C3B",
"{ 	c #3C3B3C",
"] 	c #4D4D4D",
"^ 	c #828282",
"/ 	c #B4B4B4",
"( 	c #CACACA",
"_ 	c #4C4C4C",
": 	c #3B3C3C",
"< 	c #3C3B3B",
"[ 	c #3B3B3B",
"} 	c #3F3F3F",
"| 	c #989797",
"1 	c #E1E2E1",
"2 	c #E6E6E6",
"3 	c #E0E0DF",
"4 	c #DFDFDF",
"5 	c #E2E2E2",
"6 	c #979797",
"7 	c #3F3E3E",
"8 	c #3B3B3C",
"9 	c #3B3C3B",
"0 	c #3A3B3A",
"a 	c #3B3B3A",
"b 	c #3A3B3B",
"c 	c #3A3A3A",
"d 	c #414141",
"e 	c #BCBCBC",
"f 	c #E0E0E0",
"g 	c #B7B7B7",
"h 	c #949494",
"i 	c #8E8E8E",
"j 	c #8D8E8D",
"k 	c #949493",
"l 	c #B8B8B8",
"m 	c #E1E1E1",
"n 	c #3F4040",
"o 	c #3A3A3B",
"p 	c #A1A1A1",
"q 	c #DCDCDC",
"r 	c #9B9B9A",
"s 	c #8A8A89",
"t 	c #9F9F9F",
"u 	c #3A3A39",
"v 	c #3A393A",
"w 	c #393939",
"x 	c #595959",
"y 	c #E4E4E4",
"z 	c #989898",
"A 	c #858585",
"B 	c #868686",
"C 	c #858686",
"D 	c #C9C9C9",
"E 	c #868585",
"F 	c #999999",
"G 	c #E3E3E3",
"H 	c #575758",
"I 	c #393A39",
"J 	c #3A3939",
"K 	c #383939",
"L 	c #393938",
"M 	c #A7A7A7",
"N 	c #C0C0C0",
"O 	c #A6A6A6",
"P 	c #383938",
"Q 	c #383839",
"R 	c #393839",
"S 	c #DBDBDB",
"T 	c #9E9E9E",
"U 	c #7F7F7F",
"V 	c #E7E7E7",
"W 	c #7F807F",
"X 	c #DADADA",
"Y 	c #383838",
"Z 	c #383737",
"` 	c #383837",
" .	c #373738",
"..	c #383738",
"+.	c #8E8E8D",
"@.	c #7B7B79",
"#.	c #C7C7C6",
"$.	c #E7E7E6",
"%.	c #CBCBC9",
"&.	c #373838",
"*.	c #373737",
"=.	c #363737",
"-.	c #8A8A8A",
";.	c #777777",
">.	c #C5C5C5",
",.	c #C2C2C2",
"'.	c #373637",
").	c #373736",
"!.	c #363636",
"~.	c #373636",
"{.	c #363736",
"].	c #969696",
"^.	c #737373",
"/.	c #737472",
"(.	c #737473",
"_.	c #737372",
":.	c #747372",
"<.	c #989897",
"[.	c #D9D9D9",
"}.	c #363637",
"|.	c #363635",
"1.	c #353635",
"2.	c #353535",
"3.	c #A5A5A5",
"4.	c #B9B9B8",
"5.	c #6F6F6E",
"6.	c #E5E5E4",
"7.	c #717170",
"8.	c #363536",
"9.	c #353536",
"0.	c #545454",
"a.	c #848484",
"b.	c #6B6B6B",
"c.	c #BEBEBE",
"d.	c #C7C7C7",
"e.	c #535353",
"f.	c #353534",
"g.	c #343434",
"h.	c #D8D8D8",
"i.	c #7F7E7D",
"j.	c #676767",
"k.	c #676867",
"l.	c #676866",
"m.	c #676766",
"n.	c #686767",
"o.	c #7F7F7E",
"p.	c #9D9D9D",
"q.	c #343534",
"r.	c #353434",
"s.	c #343333",
"t.	c #333434",
"u.	c #BABAB9",
"v.	c #A2A2A2",
"w.	c #6D6D6D",
"x.	c #626261",
"y.	c #626262",
"z.	c #6D6D6C",
"A.	c #A3A3A3",
"B.	c #BABABA",
"C.	c #343334",
"D.	c #333333",
"E.	c #333334",
"F.	c #939393",
"G.	c #DDDDDD",
"H.	c #949394",
"I.	c #333232",
"J.	c #323232",
"K.	c #333233",
"L.	c #323333",
"M.	c #323332",
"N.	c #424242",
"O.	c #7B7B7B",
"P.	c #B0B0B0",
"Q.	c #C8C8C8",
"R.	c #7B7A7B",
"S.	c #434342",
"T.	c #323233",
"U.	c #333332",
"V.	c #323132",
"W.	c #313232",
"X.	c #323231",
"Y.	c #313131",
"Z.	c #313231",
"`.	c #313132",
" +	c #323131",
".+	c #313130",
"++	c #303131",
"@+	c #303031",
"#+	c #303030",
"$+	c #313031",
"%+	c #303130",
"&+	c #313030",
". . . . . . . . . . . . . . . . . . . . . . . . . ",
"+ @ @ # @ # $ % @ $ + @ @ @ $ @ @ @ @ + $ @ @ @ @ ",
"& * % * * * * * * * * $ = * * * * & * % * & * * * ",
"- ; > , ' * * ) * - ' ; ' - ) ! > ; ; ! * ; - > > ",
"- ~ - ~ - - { ~ ] ^ / ( ( / ^ _ : ~ { - - ~ - - - ",
"- < [ [ [ [ } | 1 2 2 3 4 2 2 5 6 7 8 < [ [ 9 9 [ ",
"0 a b a c d e 2 f g h i j k l m 2 e n b a [ b [ o ",
"c c c c c p 2 q r s s s s s s r q 2 t c c c c c c ",
"u v w w x y y z A B C D D E B A F G y H w I w J v ",
"K L K w M 2 N ^ ^ ^ ^ 2 2 ^ ^ ^ ^ N 2 O w w K P Q ",
"P Q Q R S 2 T U U U U V V W W U U t 2 X Y Y Y Q Y ",
"Z `  ...2 2 +.@.#.$.$.$.$.$.$.%.@.+.2 2 ..&.`  .Y ",
"*.=.*.*.2 2 -.;.>.V V V V V V ,.;.-.2 2 *.'.).*.*.",
"!.~.*.{.X 2 ].^./.(._.$.$.:._._.(.<.2 [.{.!.!.!.}.",
"|.1.2.!.3.2 4.5.5.5.5.6.$.7.5.5.5.4.2 3.|.8.8.9.!.",
"2.2.2.2.0.y G a.b.b.b.c.d.b.b.b.A y G e.2.2.1.2.2.",
"f.2.g.g.g.T 2 h.i.j.k.l.m.n.j.o.h.2 p.q.r.g.r.g.q.",
"g.s.t.g.g.w u.2 4 v.w.x.y.z.A.f 2 B.=.g.t.g.C.D.s.",
"s.D.D.E.t.D.!.F.m 2 2 G.G.2 2 4 H.*.D.D.D.D.t.D.s.",
"D.I.J.K.J.K.L.M.N.O.P.Q.Q.P.R.S.D.T.I.K.U.L.K.J.M.",
"V.J.J.W.J.J.J.J.J.J.J.J.J.J.J.J.J.X.J.X.J.X.J.J.W.",
"Y.X.Y.Y.Z.X.`.W.Z. +W.Y.Y.`.V. + +`.Y.X.Y.Y.Y.Y.`.",
".+Y.Y.++++.+@+Y.Y.#+Y.$+@+Y.$+@+#+$+$+++Y.Y..+%+.+",
"@+#+#+#+#+#+#+#+#+#+&+#+#+#+#+#+#+@+#+#+#+#+#+#+#+",
"@+#+#+#+#+#+#+#+#+#+&+#+#+#+#+#+#+@+#+#+#+#+#+#+#+"};
