/* XPM */
static char * max_xpm[] = {
"25 25 105 2",
"  	c None",
". 	c #606060",
"+ 	c #3E3E3D",
"@ 	c #3E3E3E",
"# 	c #3D3E3E",
"$ 	c #3E3D3E",
"% 	c #3E3D3D",
"& 	c #3D3E3D",
"* 	c #3D3D3D",
"= 	c #3D3D3E",
"- 	c #3C3C3C",
"; 	c #3D3C3C",
"> 	c #3C3D3C",
", 	c #3C3C3D",
"' 	c #3D3C3D",
") 	c #3C3D3D",
"! 	c #3D3D3C",
"~ 	c #3C3C3B",
"{ 	c #3C3B3C",
"] 	c #3B3C3C",
"^ 	c #3C3B3B",
"/ 	c #3B3B3B",
"( 	c #3B3C3B",
"_ 	c #3B3B3C",
": 	c #3A3B3A",
"< 	c #3B3B3A",
"[ 	c #3A3B3B",
"} 	c #3A3A3A",
"| 	c #3A3A3B",
"1 	c #3B3A3A",
"2 	c #3A3A39",
"3 	c #3A393A",
"4 	c #393939",
"5 	c #393A3A",
"6 	c #B3B3B3",
"7 	c #3A3939",
"8 	c #393A39",
"9 	c #39393A",
"0 	c #383939",
"a 	c #393938",
"b 	c #393839",
"c 	c #E6E6E6",
"d 	c #383938",
"e 	c #383839",
"f 	c #383838",
"g 	c #383737",
"h 	c #383837",
"i 	c #373738",
"j 	c #383738",
"k 	c #373838",
"l 	c #373737",
"m 	c #B2B2B2",
"n 	c #B8B8B7",
"o 	c #363737",
"p 	c #373736",
"q 	c #ADADAD",
"r 	c #373637",
"s 	c #363636",
"t 	c #373636",
"u 	c #363736",
"v 	c #363637",
"w 	c #363635",
"x 	c #353635",
"y 	c #353535",
"z 	c #363536",
"A 	c #353636",
"B 	c #E2E2E2",
"C 	c #353536",
"D 	c #363535",
"E 	c #ACACAC",
"F 	c #B8B8B8",
"G 	c #353534",
"H 	c #343434",
"I 	c #353435",
"J 	c #353434",
"K 	c #343435",
"L 	c #343535",
"M 	c #343534",
"N 	c #343333",
"O 	c #333434",
"P 	c #343433",
"Q 	c #343334",
"R 	c #333334",
"S 	c #333333",
"T 	c #333232",
"U 	c #323232",
"V 	c #333233",
"W 	c #323333",
"X 	c #323332",
"Y 	c #323233",
"Z 	c #333332",
"` 	c #323132",
" .	c #313232",
"..	c #323231",
"+.	c #313131",
"@.	c #313231",
"#.	c #313132",
"$.	c #323131",
"%.	c #313130",
"&.	c #303131",
"*.	c #303031",
"=.	c #303030",
"-.	c #313031",
";.	c #303130",
">.	c #313030",
". . . . . . . . . . . . . . . . . . . . . . . . . ",
"+ @ @ # @ # $ % @ $ + @ @ @ $ @ @ @ @ + $ @ @ @ @ ",
"& * % * * * * * * * * $ = * * * * & * % * & * * * ",
"- ; > , ' * * ) * - ' ; ' - ) ! > ; ; ! * ; - > > ",
"- ~ - ~ - - { ~ - - - ~ - - - - ] ~ { - - ~ - - - ",
"- ^ / / / / / ^ ( / ^ ~ / / / - ~ ^ _ ^ / / ( ( / ",
": < [ < } / / < | / / / : < / : 1 / [ [ < / [ / | ",
"} } } } } } } } } } } } } } } } } } } } } } } } } ",
"2 3 4 4 } 5 4 4 4 } 5 6 6 7 } 4 8 8 8 9 4 8 4 7 3 ",
"0 a 0 4 4 4 4 4 4 b a c c 0 a 4 4 0 0 b 4 4 0 d e ",
"d e e b f f f f f f f c c d d f f f f f f f f e f ",
"g h i j k j i l m c c c c c c n l f g f j k h i f ",
"l o l l l l p l m c c c c c c q l l l l l r p l l ",
"s t l u s u v v u o s c c t s s o u s s u s s s v ",
"w x y s s z w s s s A B c a C w w w s w w z z C s ",
"y y y y y y y D y D y E F y y y y C y y y y x y y ",
"G y H H H I I H J K L M H I K M G L J M J H J H M ",
"H N O H H H P H Q H H P H P R H H H O H O H Q S N ",
"N S S R O S S R R R S R R N R N Q S S S S S O S N ",
"S T U V U V W X U S Y S S S V Z S Y T V Z W V U X ",
"` U U  .U U U U U U U U U U U U U ..U ..U ..U U  .",
"+...+.+.@...#. .@.$. .+.+.#.` $.$.#.+...+.+.+.+.#.",
"%.+.+.&.&.%.*.+.+.=.+.-.*.+.-.*.=.-.-.&.+.+.%.;.%.",
"*.=.=.=.=.=.=.=.=.=.>.=.=.=.=.=.=.*.=.=.=.=.=.=.=.",
"*.=.=.=.=.=.=.=.=.=.>.=.=.=.=.=.=.*.=.=.=.=.=.=.=."};
