/* XPM */
static char * min_pressed_xpm[] = {
"25 25 187 2",
"  	c None",
". 	c #606060",
"+ 	c #3E3E3D",
"@ 	c #3E3E3E",
"# 	c #3D3E3E",
"$ 	c #3E3D3E",
"% 	c #3E3D3D",
"& 	c #3D3E3D",
"* 	c #3D3D3D",
"= 	c #3D3D3E",
"- 	c #3C3C3C",
"; 	c #3D3C3C",
"> 	c #3C3D3C",
", 	c #3C3C3D",
"' 	c #3D3C3D",
") 	c #3C3D3D",
"! 	c #3D3D3C",
"~ 	c #3C3C3B",
"{ 	c #3C3B3C",
"] 	c #4D4D4D",
"^ 	c #828282",
"/ 	c #B4B4B4",
"( 	c #CACACA",
"_ 	c #4C4C4C",
": 	c #3B3C3C",
"< 	c #3C3B3B",
"[ 	c #3B3B3B",
"} 	c #3F3F3F",
"| 	c #989797",
"1 	c #E1E2E1",
"2 	c #E6E6E6",
"3 	c #E0E0DF",
"4 	c #DFDFDF",
"5 	c #E2E2E2",
"6 	c #979797",
"7 	c #3F3E3E",
"8 	c #3B3B3C",
"9 	c #3B3C3B",
"0 	c #3A3B3A",
"a 	c #3B3B3A",
"b 	c #3A3B3B",
"c 	c #3A3A3A",
"d 	c #414141",
"e 	c #BCBCBC",
"f 	c #E0E0E0",
"g 	c #B7B7B7",
"h 	c #949494",
"i 	c #8E8E8E",
"j 	c #8D8E8D",
"k 	c #949493",
"l 	c #B8B8B8",
"m 	c #E1E1E1",
"n 	c #3F4040",
"o 	c #3A3A3B",
"p 	c #A1A1A1",
"q 	c #DCDCDC",
"r 	c #9B9B9A",
"s 	c #8A8A89",
"t 	c #9F9F9F",
"u 	c #3A3A39",
"v 	c #3A393A",
"w 	c #393939",
"x 	c #595959",
"y 	c #E4E4E4",
"z 	c #989898",
"A 	c #858585",
"B 	c #868686",
"C 	c #858686",
"D 	c #868685",
"E 	c #868585",
"F 	c #999999",
"G 	c #E3E3E3",
"H 	c #575758",
"I 	c #393A39",
"J 	c #3A3939",
"K 	c #383939",
"L 	c #393938",
"M 	c #A7A7A7",
"N 	c #C0C0C0",
"O 	c #A6A6A6",
"P 	c #383938",
"Q 	c #383839",
"R 	c #393839",
"S 	c #DBDBDB",
"T 	c #9E9E9E",
"U 	c #7F7F7F",
"V 	c #7F7F80",
"W 	c #7F807F",
"X 	c #DADADA",
"Y 	c #383838",
"Z 	c #383737",
"` 	c #383837",
" .	c #373738",
"..	c #383738",
"+.	c #8E8E8D",
"@.	c #7B7B79",
"#.	c #7B7B7A",
"$.	c #373838",
"%.	c #373737",
"&.	c #363737",
"*.	c #8A8A8A",
"=.	c #777777",
"-.	c #767777",
";.	c #373637",
">.	c #373736",
",.	c #363636",
"'.	c #373636",
").	c #363736",
"!.	c #969696",
"~.	c #737373",
"{.	c #C5C5C4",
"].	c #E7E7E6",
"^.	c #C8C8C7",
"/.	c #737473",
"(.	c #989897",
"_.	c #D9D9D9",
":.	c #363637",
"<.	c #363635",
"[.	c #353635",
"}.	c #353535",
"|.	c #A5A5A5",
"1.	c #B9B9B8",
"2.	c #6F6F6E",
"3.	c #C4C4C3",
"4.	c #C1C1C0",
"5.	c #363536",
"6.	c #353536",
"7.	c #545454",
"8.	c #848484",
"9.	c #6B6B6B",
"0.	c #535353",
"a.	c #353534",
"b.	c #343434",
"c.	c #D8D8D8",
"d.	c #7F7E7D",
"e.	c #676767",
"f.	c #676867",
"g.	c #676866",
"h.	c #676766",
"i.	c #686767",
"j.	c #7F7F7E",
"k.	c #9D9D9D",
"l.	c #343534",
"m.	c #353434",
"n.	c #343333",
"o.	c #333434",
"p.	c #BABAB9",
"q.	c #A2A2A2",
"r.	c #6D6D6D",
"s.	c #626261",
"t.	c #626262",
"u.	c #6D6D6C",
"v.	c #A3A3A3",
"w.	c #BABABA",
"x.	c #343334",
"y.	c #333333",
"z.	c #333334",
"A.	c #939393",
"B.	c #DDDDDD",
"C.	c #949394",
"D.	c #333232",
"E.	c #323232",
"F.	c #333233",
"G.	c #323333",
"H.	c #323332",
"I.	c #424242",
"J.	c #7B7B7B",
"K.	c #B0B0B0",
"L.	c #C8C8C8",
"M.	c #7B7A7B",
"N.	c #434342",
"O.	c #323233",
"P.	c #333332",
"Q.	c #323132",
"R.	c #313232",
"S.	c #323231",
"T.	c #313131",
"U.	c #313231",
"V.	c #313132",
"W.	c #323131",
"X.	c #313130",
"Y.	c #303131",
"Z.	c #303031",
"`.	c #303030",
" +	c #313031",
".+	c #303130",
"++	c #313030",
". . . . . . . . . . . . . . . . . . . . . . . . . ",
"+ @ @ # @ # $ % @ $ + @ @ @ $ @ @ @ @ + $ @ @ @ @ ",
"& * % * * * * * * * * $ = * * * * & * % * & * * * ",
"- ; > , ' * * ) * - ' ; ' - ) ! > ; ; ! * ; - > > ",
"- ~ - ~ - - { ~ ] ^ / ( ( / ^ _ : ~ { - - ~ - - - ",
"- < [ [ [ [ } | 1 2 2 3 4 2 2 5 6 7 8 < [ [ 9 9 [ ",
"0 a b a c d e 2 f g h i j k l m 2 e n b a [ b [ o ",
"c c c c c p 2 q r s s s s s s r q 2 t c c c c c c ",
"u v w w x y y z A B C C D E B A F G y H w I w J v ",
"K L K w M 2 N ^ ^ ^ ^ ^ ^ ^ ^ ^ ^ N 2 O w w K P Q ",
"P Q Q R S 2 T U U U U V U W W U U t 2 X Y Y Y Q Y ",
"Z `  ...2 2 +.@.@.#.@.@.@.@.@.@.@.+.2 2 ..$.`  .Y ",
"%.&.%.%.2 2 *.=.=.=.=.-.=.-.=.=.=.*.2 2 %.;.>.%.%.",
",.'.%.).X 2 !.~.{.].].].].].].^./.(.2 _.).,.,.,.:.",
"<.[.}.,.|.2 1.2.3.].].].].].].4.2.1.2 |.<.5.5.6.,.",
"}.}.}.}.7.y G 8.9.9.9.9.9.9.9.9.A y G 0.}.}.[.}.}.",
"a.}.b.b.b.T 2 c.d.e.f.g.h.i.e.j.c.2 k.l.m.b.m.b.l.",
"b.n.o.b.b.w p.2 4 q.r.s.t.u.v.f 2 w.&.b.o.b.x.y.n.",
"n.y.y.z.o.y.,.A.m 2 2 B.B.2 2 4 C.%.y.y.y.y.o.y.n.",
"y.D.E.F.E.F.G.H.I.J.K.L.L.K.M.N.y.O.D.F.P.G.F.E.H.",
"Q.E.E.R.E.E.E.E.E.E.E.E.E.E.E.E.E.S.E.S.E.S.E.E.R.",
"T.S.T.T.U.S.V.R.U.W.R.T.T.V.Q.W.W.V.T.S.T.T.T.T.V.",
"X.T.T.Y.Y.X.Z.T.T.`.T. +Z.T. +Z.`. + +Y.T.T.X..+X.",
"Z.`.`.`.`.`.`.`.`.`.++`.`.`.`.`.`.Z.`.`.`.`.`.`.`.",
"Z.`.`.`.`.`.`.`.`.`.++`.`.`.`.`.`.Z.`.`.`.`.`.`.`."};
