/* XPM */
static char * stick_unfocused_xpm[] = {
"25 25 148 2",
"  	c None",
". 	c #606060",
"+ 	c #3E3E3D",
"@ 	c #3E3E3E",
"# 	c #3D3E3E",
"$ 	c #3E3D3E",
"% 	c #3E3D3D",
"& 	c #3D3E3D",
"* 	c #3D3D3D",
"= 	c #3D3D3E",
"- 	c #3C3C3C",
"; 	c #3D3C3C",
"> 	c #3C3D3C",
", 	c #3C3C3D",
"' 	c #3D3C3D",
") 	c #3C3D3D",
"! 	c #3D3D3C",
"~ 	c #3C3C3B",
"{ 	c #3C3B3C",
"] 	c #454545",
"^ 	c #636363",
"/ 	c #7E7E7E",
"( 	c #8B8B8B",
"_ 	c #3B3C3C",
": 	c #3C3B3B",
"< 	c #3B3B3B",
"[ 	c #6F6E6E",
"} 	c #989898",
"| 	c #9B9B9B",
"1 	c #949494",
"2 	c #6F6F6E",
"3 	c #3B3B3C",
"4 	c #3B3C3B",
"5 	c #3A3B3A",
"6 	c #3B3B3A",
"7 	c #3A3B3B",
"8 	c #3A3A3A",
"9 	c #838383",
"0 	c #969696",
"a 	c #686868",
"b 	c #414141",
"c 	c #414140",
"d 	c #696969",
"e 	c #3A3A3B",
"f 	c #757575",
"g 	c #909090",
"h 	c #4A4A4A",
"i 	c #4B4B4B",
"j 	c #737373",
"k 	c #3A3A39",
"l 	c #3A393A",
"m 	c #393939",
"n 	c #4C4C4C",
"o 	c #9A9A9A",
"p 	c #393A3A",
"q 	c #3A3939",
"r 	c #4D4E4D",
"s 	c #393A39",
"t 	c #383939",
"u 	c #393938",
"v 	c #777777",
"w 	c #747474",
"x 	c #393839",
"y 	c #767676",
"z 	c #383938",
"A 	c #383839",
"B 	c #959595",
"C 	c #555555",
"D 	c #383838",
"E 	c #575757",
"F 	c #383737",
"G 	c #383837",
"H 	c #373738",
"I 	c #383738",
"J 	c #484849",
"K 	c #373737",
"L 	c #373837",
"M 	c #494949",
"N 	c #373838",
"O 	c #363737",
"P 	c #484847",
"Q 	c #373637",
"R 	c #373736",
"S 	c #363636",
"T 	c #373636",
"U 	c #363736",
"V 	c #545455",
"W 	c #363637",
"X 	c #555655",
"Y 	c #939393",
"Z 	c #363635",
"` 	c #353635",
" .	c #353535",
"..	c #353636",
"+.	c #353536",
"@.	c #363536",
"#.	c #464646",
"$.	c #4B4A4A",
"%.	c #363535",
"&.	c #999999",
"*.	c #353534",
"=.	c #343434",
"-.	c #717071",
";.	c #484747",
">.	c #343435",
",.	c #343535",
"'.	c #343534",
").	c #353435",
"!.	c #474847",
"~.	c #717070",
"{.	c #353434",
"].	c #343333",
"^.	c #333434",
"/.	c #818181",
"(.	c #656565",
"_.	c #343433",
":.	c #656566",
"<.	c #343334",
"[.	c #333333",
"}.	c #333334",
"|.	c #6B6B6B",
"1.	c #979797",
"2.	c #6A6A6A",
"3.	c #333232",
"4.	c #323232",
"5.	c #333233",
"6.	c #323333",
"7.	c #323332",
"8.	c #5D5D5D",
"9.	c #7B7B7B",
"0.	c #898989",
"a.	c #5D5C5D",
"b.	c #323233",
"c.	c #333332",
"d.	c #323132",
"e.	c #313232",
"f.	c #323231",
"g.	c #313131",
"h.	c #313231",
"i.	c #313132",
"j.	c #323131",
"k.	c #313130",
"l.	c #303131",
"m.	c #303031",
"n.	c #303030",
"o.	c #313031",
"p.	c #303130",
"q.	c #313030",
". . . . . . . . . . . . . . . . . . . . . . . . . ",
"+ @ @ # @ # $ % @ $ + @ @ @ $ @ @ @ @ + $ @ @ @ @ ",
"& * % * * * * * * * * $ = * * * * & * % * & * * * ",
"- ; > , ' * * ) * - ' ; ' - ) ! > ; ; ! * ; - > > ",
"- ~ - ~ - - { ~ ] ^ / ( ( / ^ ] _ ~ { - - ~ - - - ",
"- : < < < < * [ } | | 1 1 | | } 2 % 3 : < < 4 4 < ",
"5 6 7 6 8 @ 9 | 0 a b < 5 c d 0 | 9 ) 7 6 < 7 < e ",
"8 8 8 8 8 f | g h 8 8 8 8 8 8 i g | j 8 8 8 8 8 8 ",
"k l m m n o } i m 8 p p k q 8 m r } o h m s m q l ",
"t u t m v | w m m x u m u t u m m f | y m m t z A ",
"z A A x B | C D D D D A D z z D D E | 1 D D D A D ",
"F G H I | | J K L H G G K K F G K M | | I N G H D ",
"K O K K | | P K K K K O K O K K K M | | K Q R K K ",
"S T K U 1 | V W U O S K S T S S O X | Y U S S S W ",
"Z `  .S f | w S S S ..S S Z +.Z Z f | f Z @.@.+.S ",
" . . . .#.o } $. .%. . . . . . .h } &.#. . .`  . .",
"*. .=.=.=.-.| g ;.>.,.'.=.).>.!.g | ~.'.{.=.{.=.'.",
"=.].^.=.=.K /.| 0 (.- _.=.~ :.0 | /...=.^.=.<.[.].",
"].[.[.}.^.[. .|.} | | 1 1 | | 1.2. .[.[.[.[.^.[.].",
"[.3.4.5.4.5.6.7.< 8.9.0.0.9.a.~ [.b.3.5.c.6.5.4.7.",
"d.4.4.e.4.4.4.4.4.4.4.4.4.4.4.4.4.f.4.f.4.f.4.4.e.",
"g.f.g.g.h.f.i.e.h.j.e.g.g.i.d.j.j.i.g.f.g.g.g.g.i.",
"k.g.g.l.l.k.m.g.g.n.g.o.m.g.o.m.n.o.o.l.g.g.k.p.k.",
"m.n.n.n.n.n.n.n.n.n.q.n.n.n.n.n.n.m.n.n.n.n.n.n.n.",
"m.n.n.n.n.n.n.n.n.n.q.n.n.n.n.n.n.m.n.n.n.n.n.n.n."};
