/* XPM */
static char * close2a_xpm[] = {
"20 20 16 1",
" 	c None",
".	c #252525",
"+	c #424242",
"@	c #001425",
"#	c #000E1B",
"$	c #00101F",
"%	c #000000",
"&	c #FFFFFF",
"*	c #DEDEDE",
"=	c #C7C7C7",
"-	c #B9B9B9",
";	c #B4B4B4",
">	c #BABABA",
",	c #D1D1D1",
"'	c #D0D0D0",
")	c #000206",
"....................",
"....................",
"....................",
"....................",
".....++......++.....",
"....+@@+....+#$+....",
"%%%+%&&%+..+%&&%%%%%",
"%%%%+%&&%++%&&%+%%%%",
"%%%%%+%**%%**%+%%%%%",
"%%%%%%+%====%+%%%%%%",
"%%%%%%+%----%+%%%%%%",
"%%%%%+%;;%%;;%+%%%%%",
"%%%%+%--%++%>-%+%%%%",
"%%%+%,'%+%%+%',%%%%%",
"%%%%+)%+%%%%+%%%%%%%",
"%%%%%++%%%%%%++%%%%%",
"%%%%%%%%%%%%%%%%%%%%",
"%%%%%%%%%%%%%%%%%%%%",
"%%%%%%%%%%%%%%%%%%%%",
"%%%%%%%%%%%%%%%%%%%%"};
