/* XPM */
static char *closeufcs[] = {
/* columns rows colors chars-per-pixel */
"22 22 53 1",
"  c #39392E2E2929",
". c #3B3B2F2F2B2B",
"X c #414134342E2E",
"o c #434336362F2F",
"O c #454536363030",
"+ c #4E4E3C3C3434",
"@ c #4F4F3D3D3434",
"# c #52523F3F3636",
"$ c #D3D385852626",
"% c #D4D488882929",
"& c #D5D58B8B2B2B",
"* c #D6D68E8E2E2E",
"= c #D4D489893131",
"- c #D5D58E8E3333",
"; c #D6D68E8E3636",
": c #D6D690903131",
"> c #D7D793933434",
", c #D6D691913636",
"< c #D7D796963636",
"1 c #D7D793933A3A",
"2 c #D7D794943838",
"3 c #D7D797973B3B",
"4 c #D9D997973F3F",
"5 c #D8D899993E3E",
"6 c #BEBE8E8E5959",
"7 c #BEBE91915C5C",
"8 c #D9D99C9C4040",
"9 c #D9D99F9F4343",
"0 c #DADA9C9C4444",
"q c #C0C094945F5F",
"w c #DCDCA0A04848",
"e c #DDDDA5A54D4D",
"r c #DEDEA9A95151",
"t c #DFDFAEAE5656",
"y c #E0E0B3B35A5A",
"u c #E2E2B7B75F5F",
"i c #C0C096966262",
"p c #C0C099996464",
"a c #C1C19C9C6767",
"s c #C2C29F9F6A6A",
"d c #C3C3A1A16D6D",
"f c #C3C3A4A46F6F",
"g c #C5C5A7A77272",
"h c #C5C5A9A97575",
"j c #C6C6ACAC7878",
"k c #C7C7AFAF7B7B",
"l c #C8C8B2B27D7D",
"z c #E3E3BCBC6464",
"x c #E5E5C0C06868",
"c c #E6E6C5C56D6D",
"v c #B7B7ADAD8D8D",
"b c #C9C9B5B58080",
"n c #C9C9B8B88383",
/* pixels */
"oooooooooooooooooooooo",
"XXXXXXXXXXXXXXXXXXXXXX",
"                      ",
"vnnnnnnnnnnnnnnnnnnnn.",
"bccccccccccccccccccccb",
"lxxxxxxxxxxxxxxxxxxxxl",
"kzzzzzzzzzzzzzzzzzzzzk",
"juuuuuuuuuuuuuuuuuuuuj",
"hyyyyyyy<9yyy9<yyyyyyh",
"gttttttt8>8t8>8ttttttg",
"frrrrrrrr5:5:5rrrrrrrf",
"deeeeeeeee3*3eeeeeeeed",
"swwwwwwww2&2&2wwwwwwws",
"a0000000,%,0,%,000000a",
"p4444444$-444-$444444p",
"i11111111111111111111i",
"q;;;;;;;;;;;;;;;;;;;;q",
"7====================7",
"666666666666666666666+",
"@@@@@@@@@@@@@@@@@@@@@@",
"######################",
"OOOOOOOOOOOOOOOOOOOOOO"
};
