/* XPM */
static char *minfcs[] = {
/* columns rows colors chars-per-pixel */
"22 22 26 1",
"  c #39392E2E2929",
". c #3B3B2F2F2B2B",
"X c #414134342E2E",
"o c #434336362F2F",
"O c #454536363030",
"+ c #4E4E3C3C3434",
"@ c #4F4F3D3D3434",
"# c #52523F3F3636",
"$ c #9B9B96969292",
"% c #A9A9A9A9A9A9",
"& c #B7B7B7B7B7B7",
"* c #C6C6C6C6C6C6",
"= c #DDDDDDDDDDDD",
"- c #DFDFDFDFDFDF",
"; c #E1E1E1E1E1E1",
": c #E2E2E2E2E2E2",
"> c gray90",
", c #E6E6E6E6E6E6",
"< c #E9E9E9E9E9E9",
"1 c #EAEAEAEAEAEA",
"2 c gray92",
"3 c #EEEEEEEEEEEE",
"4 c #EFEFEFEFEFEF",
"5 c #F1F1F1F1F1F1",
"6 c #F3F3F3F3F3F3",
"7 c gray96",
/* pixels */
"oooooooooooooooooooooo",
"XXXXXXXXXXXXXXXXXXXXXX",
"                      ",
".*********************",
"%777777777777777777777",
"%666666666666666666666",
"%555555555555555555555",
"%444444444444444444444",
"%333333333333333333333",
"%222222222222222222222",
"%111111111111111111111",
"%<<<<<<<<<<<<<<<<<<<<<",
"%,,,,,,,$$$$$$$$,,,,,,",
"%>>>>>>>$$$$$$$$>>>>>>",
"%:::::::::::::::::::::",
"%;;;;;;;;;;;;;;;;;;;;;",
"%---------------------",
"%=====================",
"+&&&&&&&&&&&&&&&&&&&&&",
"@@@@@@@@@@@@@@@@@@@@@@",
"######################",
"OOOOOOOOOOOOOOOOOOOOOO"
};
