/* XPM */
static char *stuckufcs[] = {
/* columns rows colors chars-per-pixel */
"22 22 38 1",
"  c #39392E2E2929",
". c #3B3B2F2F2B2B",
"X c #3C3C30302B2B",
"o c #3E3E32322D2D",
"O c #3F3F32322D2D",
"+ c #404033332E2E",
"@ c #414134342E2E",
"# c #424234342E2E",
"$ c #434335352F2F",
"% c #434336362F2F",
"& c #454536363030",
"* c #464637373030",
"= c #474737373131",
"- c #484838383131",
"; c #494938383131",
": c #4A4A39393232",
"> c #4C4C3B3B3333",
", c #4D4D3C3C3434",
"< c #4E4E3C3C3434",
"1 c #4F4F3D3D3434",
"2 c #52523F3F3636",
"3 c #4E4E4C4C4949",
"4 c #4E4E4D4D4A4A",
"5 c #4F4F4D4D4A4A",
"6 c #4F4F4E4E4A4A",
"7 c #4F4F4E4E4B4B",
"8 c #676766666363",
"9 c #676766666464",
"0 c #6F6F6E6E6B6B",
"q c #6F6F6E6E6C6C",
"w c #818181817E7E",
"e c #828281817E7E",
"r c #828281817F7F",
"t c #838383838080",
"y c #848483838080",
"u c #848483838181",
"i c #858584848282",
"p c #868685858383",
/* pixels */
"%%%%%%%%%%%%%%%%%%%%%%",
"@@@@@@@@@@@@@@@@@@@@@@",
"                      ",
"......................",
"XXXXXXXXXXXXXXXXXXXXXX",
"oooooooooooooooooooooo",
"OOOOOOOOOOOOOOOOOOOOOO",
"++++++++79qq95++++++++",
"@@@@@@@6qiuyrq5@@@@@@@",
"#######9piuyre9#######",
"$$$$$$$qpiuyreq$$$$$$$",
"*******qpiutrwq*******",
"=======9piutrw9=======",
"-------4qiutrq4-------",
";;;;;;;;380083;;;;;;;;",
"::::::::::::::::::::::",
">>>>>>>>>>>>>>>>>>>>>>",
",,,,,,,,,,,,,,,,,,,,,,",
"<<<<<<<<<<<<<<<<<<<<<<",
"1111111111111111111111",
"2222222222222222222222",
"&&&&&&&&&&&&&&&&&&&&&&"
};
