/* XPM */
static char * min_focus_xpm[] = {
"19 19 42 1",
" 	c None",
".	c #6D6D6D",
"+	c #6C6C6C",
"@	c #6B6B6B",
"#	c #6A6A6A",
"$	c #696969",
"%	c #2F3737",
"&	c #2E2E2E",
"*	c #2F2F2F",
"=	c #121212",
"-	c #2B2B2B",
";	c #B0B0B0",
">	c #282828",
",	c #272727",
"'	c #252525",
")	c #242424",
"!	c #222222",
"~	c #202020",
"{	c #1F1F1F",
"]	c #1C1C1C",
"^	c #1B1B1B",
"/	c #1A1A1A",
"(	c #191919",
"_	c #161616",
":	c #141414",
"<	c #151515",
"[	c #171717",
"}	c #040404",
"|	c #070707",
"1	c #FFFFFF",
"2	c #050505",
"3	c #080808",
"4	c #0A0A0A",
"5	c #DEDEDE",
"6	c #090909",
"7	c #0B0B0B",
"8	c #0E0E0E",
"9	c #0D0D0D",
"0	c #0C0C0C",
"a	c #0F0F0F",
"b	c #131313",
"c	c #181818",
"......+@@#$#@@@@@@+",
"%%%%%%%%%%%%%%%%%%%",
"&&*==============&*",
"---=;;;;;;;;;;;;=--",
">>>=;,>>>>>>>>>;=>>",
"'''=;))))))))));=''",
"!!!=;!!!!!!!!!!;=!!",
"~~~=;{{{{{{{{{{;=~~",
"]]]=;^^^^^]]]]];=]]",
"///=;(((((/////;=//",
"___=;:<__[[[[__;=__",
"}}}=;|111111122;=}}",
"33|=;4555555566;=3|",
"777=;8899999900;=77",
"aaa=;;;;;;;;;;;;=aa",
"===============bb==",
"((((ccccc[[[[[[____",
"ccccccccccccccccccc",
"ccccccccccccccccccc"};
