/* XPM */
static char * min_unfocus_xpm[] = {
"19 19 39 1",
" 	c None",
".	c #6D6D6D",
"+	c #6C6C6C",
"@	c #6B6B6B",
"#	c #6A6A6A",
"$	c #696969",
"%	c #2F3737",
"&	c #2F2F2F",
"*	c #121212",
"=	c #2E2E2E",
"-	c #2B2B2B",
";	c #878787",
">	c #282828",
",	c #1E1E1E",
"'	c #1F1F1F",
")	c #252525",
"!	c #1C1C1C",
"~	c #222222",
"{	c #1A1A1A",
"]	c #202020",
"^	c #181818",
"/	c #151515",
"(	c #131313",
"_	c #141414",
":	c #161616",
"<	c #0F0F0F",
"[	c #101010",
"}	c #111111",
"|	c #040404",
"1	c #050505",
"2	c #C3C3C3",
"3	c #070707",
"4	c #080808",
"5	c #AAAAAA",
"6	c #0B0B0B",
"7	c #0A0A0A",
"8	c #090909",
"9	c #191919",
"0	c #171717",
"......+@@#$#@@@@@@+",
"%%%%%%%%%%%%%%%%%%%",
"&&&**************=&",
"---*;;;;;;;;;;;;*--",
">>>*;,''''''''';*>>",
")))*;!!!!!!!!!!;*))",
"~~~*;{{{{{{{{{{;*~~",
"]]]*;^^^^^^^^^^;*]]",
"!!!*;//////////;*!!",
"{{{*;(((((_____;*{{",
":::*;<[}}****}};*::",
"|||*;12222222||;*||",
"333*;4555555533;*43",
"666*;6677777788;*66",
"<<<*;;;;;;;;;;;;*<<",
"*******************",
"9999^^^^^000000::::",
"^^^^^^^^^^^^^^^^^^^",
"^^^^^^^^^^^^^^^^^^^"};
