/* XPM */
static char * toolbar_focused_xpm[] = {
"19 19 31 1",
" 	c None",
".	c #6D6D6D",
"+	c #6C6C6C",
"@	c #6B6B6B",
"#	c #6A6A6A",
"$	c #696969",
"%	c #2F3737",
"&	c #2E2E2E",
"*	c #2F2F2F",
"=	c #515151",
"-	c #4E4E4E",
";	c #4C4C4C",
">	c #4B4B4B",
",	c #494949",
"'	c #474747",
")	c #484848",
"!	c #444444",
"~	c #424242",
"{	c #434343",
"]	c #3B3B3B",
"^	c #3E3E3E",
"/	c #3F3F3F",
"(	c #404040",
"_	c #363636",
":	c #373737",
"<	c #393939",
"[	c #3A3A3A",
"}	c #3C3C3C",
"|	c #3D3D3D",
"1	c #323232",
"2	c #141414",
"......+@@#$#@@@@@@+",
"%%%%%%%%%%%%%%%%%%%",
"&&&&&&&&&&&&&&&&&&*",
"===================",
"-------------------",
";>>>>>>>>>>>;;;;;;;",
",,,,,,,,,,,,,,,,,,,",
"'''''''''''''''''))",
"!!!!!!!!!!!!!!!!!!!",
"~~~~~~~{{{{{{{{{{{{",
"]]^/(((((((((((((((",
"_:<[]]]]}}}||}}][:1",
"|^^^^^^^^^^^^^^^|||",
"^^^^^^^^^^^^^^^^^^^",
"^^^^^^^^^^^^^^^^^^^",
"^^^^^^^^^^^^^^^^^^^",
"^^^^^^^^^^^^^^^^^^^",
"2222222222222222222",
"2222222222222222222"};
