/* XPM */
static char *closeufcs[] = {
/* columns rows colors chars-per-pixel */
"22 22 54 1",
"  c #161615151414",
". c #1E1E1F1F1A1A",
"X c #1E1E20201B1B",
"o c #1F1F20201B1B",
"O c #1F1F20201D1D",
"+ c #212120201D1D",
"@ c gray18",
"# c #4F8C5A3A43BD",
"$ c #52995CF64726",
"% c #55A75FB14A8E",
"& c #59F3674D4B31",
"* c #58EF617B4F7D",
"= c #58B4626D4DF6",
"- c #5DC36AB74F73",
"; c #5BC26528515E",
": c #5ECF67E354C6",
"> c #61946E2153B5",
", c #61416BF05573",
"< c #61DD6A9F582F",
"1 c #644E6EAB58DB",
"2 c #64EA6D5B5B96",
"3 c #6565718C57F7",
"4 c #675C71675C43",
"5 c #67F870165EFF",
"6 c #693674F65C39",
"7 c #6A6974225FAB",
"8 c #6B0572D16266",
"9 c #6D7776DE6313",
"0 c #6E13758D65CF",
"q c #6D077860607C",
"w c #70D87BCB64BE",
"e c #70857999667C",
"r c #712078496937",
"t c #73927C5569E4",
"y c #74A87F356900",
"u c #742E7B046CA0",
"i c #76A07F106D4C",
"p c #773B7DBF7007",
"a c #787A829F6D42",
"s c #79AE81CB70B4",
"d c #7C4A860A7184",
"f c #7B20801475A5",
"g c #7CBB8487741C",
"h c #7FC887427785",
"j c #801B897475C7",
"k c #82D589FE7AED",
"l c #83EC8CDE7A09",
"z c #85E38CB97E55",
"x c #87BD90487E4B",
"c c #88F08F7481BD",
"v c #8B8D93B3828D",
"b c #8BFE92308525",
"n c #BE70BC55BC55",
"m c #D925D925D925",
/* pixels */
"                      ",
"++++++++++++++++++++++",
"......................",
"XXXXXXXXXXXXXXXXXXXXXX",
"......................",
"oooooooooooooooooooooo",
"fbbbbbbbbbbbbbbbbbbbbO",
"pvvvvvvvvvvvvvvvvvvvvc",
"uxxxxxxxxxxxxxxxxxxxxz",
"rllllllllllllllllllllk",
"0jjjjjjjjjjjjjjjjjjjjh",
"8dddddddmndddnmddddddg",
"5aaaaaaanmnanmnaaaaaas",
"2yyyyyyyynmnmnyyyyyyyi",
"<wwwwwwwwwnmnwwwwwwwwt",
":qqqqqqqqnmnmnqqqqqqqe",
";6666666nmn6nmn6666669",
"=3333333mn333nm3333337",
"%>>>>>>>>>>>>>>>>>>>>4",
"$--------------------1",
"#&&&&&&&&&&&&&&&&&&&&,",
"*,,,,,,,,,,,,,,,,,,,,@"
};
