/* XPM */
static char *maxfcs[] = {
/* columns rows colors chars-per-pixel */
"22 22 36 1",
"  c #161615151414",
". c #1E1E1F1F1A1A",
"X c #1E1E20201B1B",
"o c #1F1F20201B1B",
"O c #212120201D1D",
"+ c #898989898989",
"@ c #939393939393",
"# c gray58",
"$ c #959595959595",
"% c #9B9B9B9B9B9B",
"& c gray66",
"* c #B7B7B7B7B7B7",
"= c #B9B9B9B9B9B9",
"- c gray74",
"; c gray",
": c gray76",
"> c #C6C6C6C6C6C6",
", c gray81",
"< c gray82",
"1 c #D2D2D2D2D2D2",
"2 c #DDDDDDDDDDDD",
"3 c #DFDFDFDFDFDF",
"4 c gray88",
"5 c #E1E1E1E1E1E1",
"6 c #E2E2E2E2E2E2",
"7 c gray90",
"8 c #E6E6E6E6E6E6",
"9 c #E9E9E9E9E9E9",
"0 c #EAEAEAEAEAEA",
"q c gray92",
"w c #ECECECECECEC",
"e c #EEEEEEEEEEEE",
"r c #EFEFEFEFEFEF",
"t c #F1F1F1F1F1F1",
"y c #F3F3F3F3F3F3",
"u c gray96",
/* pixels */
"                      ",
"OOOOOOOOOOOOOOOOOOOOOO",
"......................",
"XXXXXXXXXXXXXXXXXXXXXX",
"......................",
"oooooooooooooooooooooo",
">>>>>>>>>>>>>>>>>>>>>>",
"uuuuuuuuuuuuuuuuuuuuuu",
"yyyyyyyyyyyyyyyyyyyyyy",
"tttttttttttttttttttttt",
"rrrrrrrrrrrrrrrrrrrrrr",
"eeeeeeeeeeeeeeeeeeeeee",
"qqqqqqqw-;wqqqqqqqqqqq",
"0000004&++&40000000000",
"999991%@::@%1999999999",
"8888,#%<88<%$,88888888",
"7777<=277772=<77777777",
"6666666666666666666666",
"5555555555555555555555",
"3333333333333333333333",
"2222222222222222222222",
"**********************"
};
