/* XPM */
static char *minfcs[] = {
/* columns rows colors chars-per-pixel */
"22 22 39 1",
"  c #161615151414",
". c #1E1E1F1F1A1A",
"X c #1E1E20201B1B",
"o c #1F1F20201B1B",
"O c #1F1F20201D1D",
"+ c #212120201D1D",
"@ c gray18",
"# c #888888888888",
"$ c #939393939393",
"% c gray59",
"& c #9A9A9A9A9A9A",
"* c #9D9D9D9D9D9D",
"= c #A5A5A5A5A5A5",
"- c #A9A9A9A9A9A9",
"; c gray71",
": c #B6B6B6B6B6B6",
"> c #B7B7B7B7B7B7",
", c gray74",
"< c #C0C0C0C0C0C0",
"1 c #C6C6C6C6C6C6",
"2 c #D0D0D0D0D0D0",
"3 c gray82",
"4 c gray83",
"5 c gray86",
"6 c #DDDDDDDDDDDD",
"7 c #DFDFDFDFDFDF",
"8 c #E1E1E1E1E1E1",
"9 c #E2E2E2E2E2E2",
"0 c #E4E4E4E4E4E4",
"q c gray90",
"w c #E6E6E6E6E6E6",
"e c #E9E9E9E9E9E9",
"r c #EAEAEAEAEAEA",
"t c gray92",
"y c #EEEEEEEEEEEE",
"u c #EFEFEFEFEFEF",
"i c #F1F1F1F1F1F1",
"p c #F3F3F3F3F3F3",
"a c gray96",
/* pixels */
"                      ",
"++++++++++++++++++++++",
"......................",
"XXXXXXXXXXXXXXXXXXXXXX",
"......................",
"oooooooooooooooooooooo",
"O111111111111111111111",
"-aaaaaaaaaaaaaaaaaaaaa",
"-ppppppppppppppppppppp",
"-iiiiiiiiiiiiiiiiiiiii",
"-uuuuuuuuuuuuuuuuuuuuu",
"-yyyyyyyyyyyyyyyyyyyyy",
"-tttttt4,0tttt0,4ttttt",
"-rrrrrr2%*4rr4*%2rrrrr",
"-eeeeeee3&$<<$&3eeeeee",
"-wwwwwwww5=##=5wwwwwww",
"-qqqqqqqqq8;:8qqqqqqqq",
"-999999999999999999999",
"-888888888888888888888",
"-777777777777777777777",
"-666666666666666666666",
"@>>>>>>>>>>>>>>>>>>>>>"
};
