/* XPM */
static char * bar_xpm[] = {
"20 20 32 1",
" 	c None",
".	c #0049A5",
"+	c #0047A1",
"@	c #0048A4",
"#	c #0049A6",
"$	c #0049A8",
"%	c #004AA8",
"&	c #004AA9",
"*	c #004AAA",
"=	c #004AAC",
"-	c #004BAC",
";	c #004CAE",
">	c #004DAF",
",	c #0050B5",
"'	c #0050B6",
")	c #004DB1",
"!	c #0046A0",
"~	c #00459F",
"{	c #004399",
"]	c #004194",
"^	c #003D8B",
"/	c #003B87",
"(	c #003B86",
"_	c #003374",
":	c #002E6A",
"<	c #002F6A",
"[	c #002F6C",
"}	c #00306D",
"|	c #00285E",
"1	c #00295E",
"2	c #00295F",
"3	c #00285C",
"....................",
"....................",
"++++++++++++++++++@.",
"#####$%%&******=-;>;",
",,,,,'''''''''''''')",
"!!!!!!!!!!!!!!!!!~{{",
"{{{{{{{{{{{{{{{{{{{{",
"{{{{{{{{{{{{{{{{{{{{",
"]]]]]]]]]]]]]]]]]]]]",
"^^^^^^^^^^^^^^^^^^^^",
"/(((((((((((((((((((",
"____________________",
":::::<[}}}}}}}}}}}}}",
"||||||||||||||||||12",
"33333333333333333333",
"33333333333333333333",
"33333333333333333333",
"33333333333333333333",
"33333333333333333333",
"11111111111111111111"};
