/* XPM */
static char * max2a_xpm[] = {
"20 20 44 1",
" 	c #898989",
".	c #000000",
"+	c #A4A4A4",
"@	c #8F8F8F",
"#	c #A8A8A8",
"$	c #939393",
"%	c #949494",
"&	c #ABABAB",
"*	c #919191",
"=	c #AAAAAA",
"-	c #909090",
";	c #8E8E8E",
">	c #848484",
",	c #858585",
"'	c #FFFFFF",
")	c #A0A0A0",
"!	c #808080",
"~	c #9D9D9D",
"{	c #7C7C7C",
"]	c #DEDEDE",
"^	c #9A9A9A",
"/	c #787878",
"(	c #C7C7C7",
"_	c #979797",
":	c #747474",
"<	c #B9B9B9",
"[	c #BABABA",
"}	c #707070",
"|	c #717171",
"1	c #B4B4B4",
"2	c #B5B5B5",
"3	c #6D6D6D",
"4	c #6B6B6B",
"5	c #6A6A6A",
"6	c #D1D1D1",
"7	c #D0D0D0",
"8	c #8D8D8D",
"9	c #676767",
"0	c #E5E5E5",
"a	c #8A8A8A",
"b	c #868686",
"c	c #797979",
"d	c #878787",
"e	c #A2A2A2",
"         .+         ",
"@@@@@@@@@.#@@@@@@@@@",
"$%$%$$%%$.&%$$%$$$%%",
"*********.=******-**",
";;;;;;;;;.#####;;;;;",
"         ......+    ",
">>>,,>,,.'''''.)>>>,",
"!!!!!!!!!.''''.~!!!!",
"{{{{{{{{.]]]]].^{{{{",
"///////.((((((._////",
"::::::.<[<<<.<.%::::",
"}}}|}.11122.*..*}}}}",
"3333.<<<<[.;3;;33333",
"44544.677.8545454444",
"999999.0.a9999999999",
"9999999.b99999999999",
"4445444.b44455454454",
"|||||||.@|||||||||||",
"c/////c._//cc///c///",
"ddddddd.eddddddddddd"};
