/* XPM */
static char * close_pressed_xpm[] = {
"19 19 56 1",
" 	c None",
".	c #8E8E8E",
"+	c #424242",
"@	c #434343",
"#	c #444444",
"$	c #535353",
"%	c #3E3E3E",
"&	c #3F3F3F",
"*	c #404040",
"=	c #3A3A3A",
"-	c #3B3B3B",
";	c #3C3C3C",
">	c #3D3D3D",
",	c #363636",
"'	c #454545",
")	c #464646",
"!	c #383838",
"~	c #393939",
"{	c #333333",
"]	c #353535",
"^	c #2F2F2F",
"/	c #D9D9D9",
"(	c #A3A3A3",
"_	c #4F4F4F",
":	c #D8D8D8",
"<	c #313131",
"[	c #2C2C2C",
"}	c #D1D1D1",
"|	c #9B9B9B",
"1	c #D0D0D0",
"2	c #343434",
"3	c #2E2E2E",
"4	c #272727",
"5	c #282828",
"6	c #2A2A2A",
"7	c #292929",
"8	c #373737",
"9	c #C9C9C9",
"0	c #C8C8C8",
"a	c #242424",
"b	c #1F1F1F",
"c	c #C0C0C0",
"d	c #C1C1C1",
"e	c #2B2B2B",
"f	c #212121",
"g	c #262626",
"h	c #202020",
"i	c #232323",
"j	c #949494",
"k	c #CACACA",
"l	c #222222",
"m	c #1E1E1E",
"n	c #9C9C9C",
"o	c #D2D2D2",
"p	c #323232",
"q	c #141414",
"...................",
"++++++@@@@@@@#####$",
"%%%%%%%&&&&&&&****$",
"==-------;;;;;;;>>$",
",,,'''''''))))))!~$",
"{{{+@@@@@@@@####]]$",
"^^^&&&//(_(::&&&<<$",
"[[[,]]}}}|1112]233$",
"445667890000<55566$",
"aaabbb7cddddefffgg$",
"hhhfii999jkkkgggll$",
"mmm557}}n=noo[[[bb$",
"$$$$$$$$$$$$$$$$$$$",
"ggg444444444445555$",
"$$$$$$$$$$$$$$$$$$$",
"p{{{{{{{{{{{222222$",
"$$$$$$$$$$$$$$$$$$$",
"&&&&&&&&&&********$",
"qqqqqqqqqqqqqqqqqq$"};
