/* XPM */
static char * close_unfocus_xpm[] = {
"19 19 44 1",
" 	c None",
".	c #8E8E8E",
"+	c #3C3C3C",
"@	c #3D3D3D",
"#	c #3E3E3E",
"$	c #535353",
"%	c #373737",
"&	c #383838",
"*	c #393939",
"=	c #313131",
"-	c #323232",
";	c #333333",
">	c #343434",
",	c #2C2C2C",
"'	c #2D2D2D",
")	c #2E2E2E",
"!	c #2F2F2F",
"~	c #272727",
"{	c #282828",
"]	c #292929",
"^	c #222222",
"/	c #D7D7D7",
"(	c #303030",
"_	c #242424",
":	c #1D1D1D",
"<	c #1E1E1E",
"[	c #1F1F1F",
"}	c #171717",
"|	c #181818",
"1	c #252525",
"2	c #191919",
"3	c #1A1A1A",
"4	c #121212",
"5	c #131313",
"6	c #141414",
"7	c #151515",
"8	c #0D0D0D",
"9	c #0E0E0E",
"0	c #0F0F0F",
"a	c #090909",
"b	c #0A0A0A",
"c	c #262626",
"d	c #3F3F3F",
"e	c #404040",
"...................",
"++++++@@@@@@@#####$",
"%%%%%%%&&&&&&&****$",
"==-------;;;;;;;>>$",
",,,''''''')))))))!$",
"~~~~{{{{{{{{]]]]]]$",
"^^^^^^//.(.//_____$",
"::::::///.///<[[[[$",
"}}||||1/////<22233$",
"444555://///<66667$",
"888899///.///00000$",
"aaaaaa//.:.//bbbbb$",
"$$$$$$$$$$$$$$$$$$$",
"ccc~~~~~~~~~~~{{{{$",
"$$$$$$$$$$$$$$$$$$$",
"-;;;;;;;;;;;>>>>>>$",
"$$$$$$$$$$$$$$$$$$$",
"ddddddddddeeeeeeee$",
"666666666666666666$"};
