/* XPM */
static char * max_pressed_xpm[] = {
"19 19 61 1",
" 	c None",
".	c #8E8E8E",
"+	c #424242",
"@	c #434343",
"#	c #444444",
"$	c #3E3E3E",
"%	c #3F3F3F",
"&	c #404040",
"*	c #3A3A3A",
"=	c #3B3B3B",
"-	c #3C3C3C",
";	c #3D3D3D",
">	c #363636",
",	c #454545",
"'	c #464646",
")	c #383838",
"!	c #393939",
"~	c #333333",
"{	c #414141",
"]	c #353535",
"^	c #2F2F2F",
"/	c #373737",
"(	c #CFCFCF",
"_	c #CECECE",
":	c #313131",
"<	c #2C2C2C",
"[	c #2E2E2E",
"}	c #CACACA",
"|	c #1F1F1F",
"1	c #1E1E1E",
"2	c #C9C9C9",
"3	c #C8C8C8",
"4	c #2D2D2D",
"5	c #272727",
"6	c #282828",
"7	c #252525",
"8	c #242424",
"9	c #C3C3C3",
"0	c #181818",
"a	c #C2C2C2",
"b	c #C1C1C1",
"c	c #222222",
"d	c #2A2A2A",
"e	c #212121",
"f	c #C4C4C4",
"g	c #C5C5C5",
"h	c #C6C6C6",
"i	c #262626",
"j	c #202020",
"k	c #232323",
"l	c #CBCBCB",
"m	c #CCCCCC",
"n	c #CDCDCD",
"o	c #292929",
"p	c #D1D1D1",
"q	c #D2D2D2",
"r	c #D3D3D3",
"s	c #535353",
"t	c #323232",
"u	c #343434",
"v	c #141414",
"...................",
"++++++@@@@@@@######",
"$$$$$$$%%%%%%%&&&&&",
"**=======-------;;;",
">>>,,,,,,,'''''')!!",
"~~~{++{{{&&&&&&%]]]",
"^^^)///--(((__>]:::",
"<<<[[[[}|1233344[[[",
"55678889900abbccddd",
"888eeccfgg[[hh7iiii",
"jjjk777lllm]]n6occc",
"1116ooopqqqr--44|||",
"sssssssssssssssssss",
"iii5555555555566666",
"sssssssssssssssssss",
"t~~~~~~~~~~~uuuuuuu",
"sssssssssssssssssss",
"%%%%%%%%%%&&&&&&&&&",
"vvvvvvvvvvvvvvvvvvv"};
