/* XPM */
static char * min_focus_xpm[] = {
"19 19 41 1",
" 	c None",
".	c #8E8E8E",
"+	c #424242",
"@	c #434343",
"#	c #444444",
"$	c #3E3E3E",
"%	c #3F3F3F",
"&	c #404040",
"*	c #3A3A3A",
"=	c #3B3B3B",
"-	c #3C3C3C",
";	c #3D3D3D",
">	c #363636",
",	c #373737",
"'	c #383838",
")	c #393939",
"!	c #333333",
"~	c #343434",
"{	c #353535",
"]	c #2F2F2F",
"^	c #303030",
"/	c #313131",
"(	c #2C2C2C",
"_	c #2D2D2D",
":	c #2E2E2E",
"<	c #272727",
"[	c #282828",
"}	c #292929",
"|	c #2A2A2A",
"1	c #242424",
"2	c #252525",
"3	c #262626",
"4	c #202020",
"5	c #212121",
"6	c #E7E7E7",
"7	c #222222",
"8	c #1E1E1E",
"9	c #1F1F1F",
"0	c #535353",
"a	c #323232",
"b	c #141414",
"...................",
"++++++@@@@@@@######",
"$$$$$$$%%%%%%%&&&&&",
"**=======-------;;;",
">>>,,,,,,,'''''''))",
"!!!!~~~~~~~~{{{{{{{",
"]]]]]]^^^^^^^//////",
"(((((((_______:::::",
"<<[[[[[[[}}}}}}}|||",
"1112222222333333333",
"44445555.666666.777",
"88888888.666666.999",
"0000000000000000000",
"333<<<<<<<<<<<[[[[[",
"0000000000000000000",
"a!!!!!!!!!!!~~~~~~~",
"0000000000000000000",
"%%%%%%%%%%&&&&&&&&&",
"bbbbbbbbbbbbbbbbbbb"};
