/* XPM */
static char * min_pressed_xpm[] = {
"19 19 45 1",
" 	c None",
".	c #8E8E8E",
"+	c #424242",
"@	c #434343",
"#	c #444444",
"$	c #3E3E3E",
"%	c #3F3F3F",
"&	c #404040",
"*	c #3A3A3A",
"=	c #3B3B3B",
"-	c #3C3C3C",
";	c #3D3D3D",
">	c #363636",
",	c #454545",
"'	c #464646",
")	c #383838",
"!	c #393939",
"~	c #333333",
"{	c #353535",
"]	c #2F2F2F",
"^	c #343434",
"/	c #313131",
"(	c #2C2C2C",
"_	c #2A2A2A",
":	c #2B2B2B",
"<	c #2D2D2D",
"[	c #2E2E2E",
"}	c #272727",
"|	c #282828",
"1	c #212121",
"2	c #222222",
"3	c #242424",
"4	c #252525",
"5	c #262626",
"6	c #202020",
"7	c #838383",
"8	c #BCBCBC",
"9	c #828282",
"0	c #1E1E1E",
"a	c #898989",
"b	c #C9C9C9",
"c	c #1F1F1F",
"d	c #535353",
"e	c #323232",
"f	c #141414",
"...................",
"++++++@@@@@@@######",
"$$$$$$$%%%%%%%&&&&&",
"**=======-------;;;",
">>>,,,,,,,'''''')!!",
"~~~;;$$$$$$$%%%%{{{",
"]]]~~~^^^^^^^{{{///",
"(((____::::(((<<[[[",
"}}|1111112222222___",
"3334444444544444555",
"666}||||78888889222",
"000(((((abbbbbbaccc",
"ddddddddddddddddddd",
"555}}}}}}}}}}}|||||",
"ddddddddddddddddddd",
"e~~~~~~~~~~~^^^^^^^",
"ddddddddddddddddddd",
"%%%%%%%%%%&&&&&&&&&",
"fffffffffffffffffff"};
