/* XPM */
static char * stick_unfocus_xpm[] = {
"19 19 41 1",
" 	c None",
".	c #8E8E8E",
"+	c #535353",
"@	c #424242",
"#	c #434343",
"$	c #444444",
"%	c #3E3E3E",
"&	c #3F3F3F",
"*	c #404040",
"=	c #3A3A3A",
"-	c #3B3B3B",
";	c #3C3C3C",
">	c #3D3D3D",
",	c #363636",
"'	c #373737",
")	c #383838",
"!	c #393939",
"~	c #333333",
"{	c #343434",
"]	c #353535",
"^	c #2F2F2F",
"/	c #303030",
"(	c #D7D7D7",
"_	c #313131",
":	c #2C2C2C",
"<	c #191919",
"[	c #2D2D2D",
"}	c #2E2E2E",
"|	c #272727",
"1	c #282828",
"2	c #292929",
"3	c #2A2A2A",
"4	c #242424",
"5	c #252525",
"6	c #262626",
"7	c #202020",
"8	c #212121",
"9	c #222222",
"0	c #1E1E1E",
"a	c #1F1F1F",
"b	c #141414",
"...................",
"+@@@@@#######$$$$$$",
"+%%%%%%&&&&&&&*****",
"+=-------;;;;;;;>>>",
"+,,''''''')))))))!!",
"+~~~{{{{{{{{]]]]]]]",
"+^^^^^/((((((______",
"+::::::(.<<.([}}}}}",
"+|11111(.<<.(222333",
"+445555((((((666666",
"+777888888889999999",
"+000000000000aaaaaa",
"+++++++++++++++++++",
"+66|||||||||||11111",
"+++++++++++++++++++",
"+~~~~~~~~~~~{{{{{{{",
"+++++++++++++++++++",
"+&&&&&&&&&*********",
"+bbbbbbbbbbbbbbbbbb"};
