/* XPM */
static char * stick_pressed_xpm[] = {
"19 19 65 1",
" 	c None",
".	c #8E8E8E",
"+	c #535353",
"@	c #424242",
"#	c #434343",
"$	c #444444",
"%	c #3E3E3E",
"&	c #3F3F3F",
"*	c #404040",
"=	c #3A3A3A",
"-	c #3B3B3B",
";	c #3C3C3C",
">	c #3D3D3D",
",	c #363636",
"'	c #373737",
")	c #454545",
"!	c #464646",
"~	c #383838",
"{	c #393939",
"]	c #333333",
"^	c #414141",
"/	c #353535",
"(	c #2F2F2F",
"_	c #D5D5D5",
":	c #D3D3D3",
"<	c #D2D2D2",
"[	c #D1D1D1",
"}	c #D0D0D0",
"|	c #CFCFCF",
"1	c #343434",
"2	c #313131",
"3	c #2C2C2C",
"4	c #323232",
"5	c #CECECE",
"6	c #828282",
"7	c #202020",
"8	c #1F1F1F",
"9	c #7F7F7F",
"0	c #C9C9C9",
"a	c #2B2B2B",
"b	c #2E2E2E",
"c	c #272727",
"d	c #282828",
"e	c #2A2A2A",
"f	c #292929",
"g	c #C7C7C7",
"h	c #7C7C7C",
"i	c #191919",
"j	c #181818",
"k	c #787878",
"l	c #C2C2C2",
"m	c #222222",
"n	c #232323",
"o	c #242424",
"p	c #252525",
"q	c #212121",
"r	c #C1C1C1",
"s	c #C3C3C3",
"t	c #C4C4C4",
"u	c #C5C5C5",
"v	c #C6C6C6",
"w	c #262626",
"x	c #1E1E1E",
"y	c #2D2D2D",
"z	c #141414",
"...................",
"+@@@@@#######$$$$$$",
"+%%%%%%&&&&&&&*****",
"+=-------;;;;;;;>>>",
"+,,'))))))!!!!!!~{{",
"+]]]#######@@^*%///",
"+(((%>>_:<[}|,/1222",
"+333/1456789033abbb",
"+cddefdghijklmmneee",
"+oopq78rlstuvwcdwww",
"+77787qmnopwdfeammm",
"+xxxnopwcdea3yb(888",
"+++++++++++++++++++",
"+wwcccccccccccddddd",
"+++++++++++++++++++",
"+]]]]]]]]]]]1111111",
"+++++++++++++++++++",
"+&&&&&&&&&*********",
"+zzzzzzzzzzzzzzzzzz"};
