/* XPM */
static char * stuck_pressed_xpm[] = {
"19 19 50 1",
" 	c None",
".	c #8E8E8E",
"+	c #535353",
"@	c #424242",
"#	c #434343",
"$	c #444444",
"%	c #3E3E3E",
"&	c #3F3F3F",
"*	c #404040",
"=	c #3A3A3A",
"-	c #3B3B3B",
";	c #3C3C3C",
">	c #3D3D3D",
",	c #363636",
"'	c #373737",
")	c #454545",
"!	c #464646",
"~	c #383838",
"{	c #393939",
"]	c #333333",
"^	c #353535",
"/	c #2F2F2F",
"(	c #D1D1D1",
"_	c #D0D0D0",
":	c #313131",
"<	c #2C2C2C",
"[	c #2E2E2E",
"}	c #CACACA",
"|	c #C9C9C9",
"1	c #2D2D2D",
"2	c #272727",
"3	c #282828",
"4	c #252525",
"5	c #242424",
"6	c #C3C3C3",
"7	c #C2C2C2",
"8	c #232323",
"9	c #2A2A2A",
"0	c #222222",
"a	c #C4C4C4",
"b	c #C5C5C5",
"c	c #C6C6C6",
"d	c #262626",
"e	c #202020",
"f	c #292929",
"g	c #1E1E1E",
"h	c #2B2B2B",
"i	c #1F1F1F",
"j	c #343434",
"k	c #141414",
"...................",
"+@@@@@#######$$$$$$",
"+%%%%%%&&&&&&&*****",
"+=-------;;;;;;;>>>",
"+,,'))))))!!!!!!~{{",
"+]]]#####@@@#@@@^^^",
"+///{~{((((__~~':::",
"+<<<//[}}}}||1[[[[[",
"+233455666677888999",
"+554000abbbbc444ddd",
"+eee44ddd22233ff000",
"+ggg999hhhh<<111iii",
"+++++++++++++++++++",
"+dd2222222222233333",
"+++++++++++++++++++",
"+]]]]]]]]]]]jjjjjjj",
"+++++++++++++++++++",
"+&&&&&&&&&*********",
"+kkkkkkkkkkkkkkkkkk"};
