/* XPM */
static char * stuck_focus_xpm[] = {
"19 19 40 1",
" 	c None",
".	c #8E8E8E",
"+	c #535353",
"@	c #424242",
"#	c #434343",
"$	c #444444",
"%	c #3E3E3E",
"&	c #3F3F3F",
"*	c #404040",
"=	c #3A3A3A",
"-	c #3B3B3B",
";	c #3C3C3C",
">	c #3D3D3D",
",	c #363636",
"'	c #373737",
")	c #383838",
"!	c #393939",
"~	c #333333",
"{	c #343434",
"]	c #353535",
"^	c #2F2F2F",
"/	c #303030",
"(	c #E7E7E7",
"_	c #313131",
":	c #2C2C2C",
"<	c #2D2D2D",
"[	c #2E2E2E",
"}	c #272727",
"|	c #282828",
"1	c #292929",
"2	c #2A2A2A",
"3	c #242424",
"4	c #252525",
"5	c #262626",
"6	c #202020",
"7	c #212121",
"8	c #222222",
"9	c #1E1E1E",
"0	c #1F1F1F",
"a	c #141414",
"...................",
"+@@@@@#######$$$$$$",
"+%%%%%%&&&&&&&*****",
"+=-------;;;;;;;>>>",
"+,,''''''')))))))!!",
"+~~~{{{{{{{{]]]]]]]",
"+^^^^^/((((((______",
"+::::::((((((<[[[[[",
"+}|||||((((((111222",
"+334444((((((555555",
"+666777777778888888",
"+999999999999000000",
"+++++++++++++++++++",
"+55}}}}}}}}}}}|||||",
"+++++++++++++++++++",
"+~~~~~~~~~~~{{{{{{{",
"+++++++++++++++++++",
"+&&&&&&&&&*********",
"+aaaaaaaaaaaaaaaaaa"};
