/* XPM */
static char * title_xpm[] = {
"19 19 42 1",
" 	c None",
".	c #8E8E8E",
"+	c #3C3C3C",
"@	c #3D3D3D",
"#	c #3E3E3E",
"$	c #373737",
"%	c #383838",
"&	c #393939",
"*	c #313131",
"=	c #323232",
"-	c #333333",
";	c #343434",
">	c #2C2C2C",
",	c #2D2D2D",
"'	c #2E2E2E",
")	c #2F2F2F",
"!	c #272727",
"~	c #282828",
"{	c #292929",
"]	c #222222",
"^	c #232323",
"/	c #242424",
"(	c #1D1D1D",
"_	c #1E1E1E",
":	c #1F1F1F",
"<	c #171717",
"[	c #181818",
"}	c #191919",
"|	c #1A1A1A",
"1	c #121212",
"2	c #131313",
"3	c #141414",
"4	c #151515",
"5	c #0D0D0D",
"6	c #0E0E0E",
"7	c #0F0F0F",
"8	c #090909",
"9	c #0A0A0A",
"0	c #535353",
"a	c #262626",
"b	c #3F3F3F",
"c	c #404040",
"...................",
"++++++@@@@@@@######",
"$$$$$$$%%%%%%%&&&&&",
"**=======-------;;;",
">>>,,,,,,,'''''''))",
"!!!!~~~~~~~~{{{{{{{",
"]]]]]]^^^^^^^//////",
"(((((((_______:::::",
"<<[[[[[[[}}}}}}}|||",
"1112222222333333344",
"5555666666667777777",
"8888888888888999999",
"0000000000000000000",
"aaa!!!!!!!!!!!~~~~~",
"0000000000000000000",
"=-----------;;;;;;;",
"0000000000000000000",
"bbbbbbbbbbccccccccc",
"3333333333333333333"};
