/* XPM */
static char * toolbar_focused_xpm[] = {
"19 21 20 1",
" 	c None",
".	c #8E8E8E",
"+	c #424242",
"@	c #414141",
"#	c #404040",
"$	c #3F3F3F",
"%	c #3E3E3E",
"&	c #3D3D3D",
"*	c #3C3C3C",
"=	c #3B3B3B",
"-	c #3A3A3A",
";	c #393939",
">	c #535353",
",	c #262626",
"'	c #272727",
")	c #282828",
"!	c #323232",
"~	c #333333",
"{	c #343434",
"]	c #141414",
"...................",
"+++++++++++++++++++",
"@@@@@@@@@@@@@@@@@@@",
"@@@@###############",
"$$$$$$$$$$$$$$$$$$$",
"%%%%%%%%%%%%%%%%%%%",
"%%%%%%%%%%%%%%%%%%%",
"%%%%%%%%%%%%%%%%%%%",
"&&&&&&&&&&&&&&&&&&&",
"*******************",
"===================",
"------------------;",
";;;;;;;;;;;;;;;;;;;",
";;;;;;;;;;;;;;;;;;;",
">>>>>>>>>>>>>>>>>>>",
",,,''''''''''')))))",
">>>>>>>>>>>>>>>>>>>",
"!~~~~~~~~~~~{{{{{{{",
">>>>>>>>>>>>>>>>>>>",
"$$$$$$$$$$#########",
"]]]]]]]]]]]]]]]]]]]"};
