/* XPM */
static char * toolbar_xpm[] = {
"19 21 39 1",
" 	c None",
".	c #8E8E8E",
"+	c #353535",
"@	c #363636",
"#	c #313131",
"$	c #323232",
"%	c #2B2B2B",
"&	c #2C2C2C",
"*	c #2D2D2D",
"=	c #2E2E2E",
"-	c #262626",
";	c #272727",
">	c #282828",
",	c #292929",
"'	c #232323",
")	c #242424",
"!	c #1E1E1E",
"~	c #1F1F1F",
"{	c #202020",
"]	c #191919",
"^	c #1A1A1A",
"/	c #1B1B1B",
"(	c #151515",
"_	c #161616",
":	c #171717",
"<	c #101010",
"[	c #111111",
"}	c #121212",
"|	c #131313",
"1	c #0B0B0B",
"2	c #0C0C0C",
"3	c #0D0D0D",
"4	c #090909",
"5	c #535353",
"6	c #333333",
"7	c #343434",
"8	c #3F3F3F",
"9	c #404040",
"0	c #141414",
"...................",
"+++++++++++++@@@@@@",
"#######$$$$$$$$$$$$",
"%%&&&&&&&*******===",
"---;;;;;;;>>>>>>>,,",
"'''')))))))))))))))",
"!!!!!!~~~~~~~{{{{{{",
"]]]]]]]^^^^^^^/////",
"((______________:::",
"<<<[[[[[[[}}}}}}}||",
"1111222222223333333",
"4444444444444444444",
"4444444444444444444",
"4444444444444444444",
"5555555555555555555",
"---;;;;;;;;;;;>>>>>",
"5555555555555555555",
"$666666666667777777",
"5555555555555555555",
"8888888888999999999",
"0000000000000000000"};
