/* XPM */
static char * menufcs_industrial_xpm[] = {
"23 23 3 1",
" 	c None",
".	c #FFFFF0",
"+	c #6484A4",
".......................",
"+++++++++++++++++++++++",
"+++++++++++++++++++++++",
"+++++++++++++++++++++++",
"+++++++++++++++++++++++",
"+++++++++++++++++++++++",
"+++++++++++++++++++++++",
"+++++++++++++++++++++++",
"+++++++++++++++++++++++",
"+++++++++++++++++++++++",
"+++++++++++++++++++++++",
"+++++++++++++++++++++++",
"+++++++++++++++++++++++",
"+++++++++++++++++++++++",
"+++++++++++++++++++++++",
"+++++++++++++++++++++++",
"+++++++++++++++++++++++",
"+++++++++++++++++++++++",
"+++++++++++++++++++++++",
"+++++++++++++++++++++++",
"+++++++++++++++++++++++",
"+++++++++++++++++++++++",
"......................."};
