/* XPM */
static char * menufcs_dustsand_xpm[] = {
"23 23 32 1",
" 	c #FFFFF0",
".	c #CBAB8C",
"+	c #CBAA8B",
"@	c #CBAA8C",
"#	c #CBAB8B",
"$	c #CAA889",
"%	c #CAA98A",
"&	c #C7A787",
"*	c #C8A787",
"=	c #C6A485",
"-	c #C6A486",
";	c #C5A283",
">	c #C5A383",
",	c #C3A181",
"'	c #C3A280",
")	c #C09E7E",
"!	c #C09F7E",
"~	c #BF9C7B",
"{	c #BE9B7B",
"]	c #BD9977",
"^	c #BB9675",
"/	c #B89472",
"(	c #B2906F",
"_	c #AD8B6B",
":	c #A88768",
"<	c #A38365",
"[	c #9E7F62",
"}	c #997A5E",
"|	c #94765B",
"1	c #8E7258",
"2	c #896E54",
"3	c #846A51",
"                       ",
"..+@@##..@@@...........",
"$$$%%%%%%%%%%%%%%%%%%%%",
"&&&********************",
"======-----------------",
";;>>>>>>>>>>>>>>>>>>>>>",
",,,,,,,,,,,,'''''''''''",
")))))))!!!!!!!!!!!!!!!!",
"~~~{{{{{{{{{{{{{{{{{{{{",
"]]]]]]]]]]]]]]]]]]]]]]]",
"^^^^^^^^^^^^^^^^^^^^^^^",
"///////////////////////",
"(((((((((((((((((((((((",
"_______________________",
":::::::::::::::::::::::",
"<<<<<<<<<<<<<<<<<<<<<<<",
"[[[[[[[[[[[[[[[[[[[[[[[",
"}}}}}}}}}}}}}}}}}}}}}}}",
"|||||||||||||||||||||||",
"11111111111111111111111",
"22222222222222222222222",
"33333333333333333333333",
"                       "};
