/* XPM */
static char * 00_xpm[] = {
"19 19 49 1",
" 	c None",
".	c #AFAFAF",
"+	c #919191",
"@	c #909090",
"#	c #8F8F8F",
"$	c #8E8E8E",
"%	c #8D8D8D",
"&	c #8C8C8C",
"*	c #8B8B8B",
"=	c #898989",
"-	c #888888",
";	c #878787",
">	c #868686",
",	c #858585",
"'	c #848484",
")	c #838383",
"!	c #818181",
"~	c #808080",
"{	c #7F7F7F",
"]	c #7E7E7E",
"^	c #7D7D7D",
"/	c #7C7C7C",
"(	c #7B7B7B",
"_	c #6F6F6F",
":	c #6E6E6E",
"<	c #6B6B6B",
"[	c #3B3B3B",
"}	c #3A3A3A",
"|	c #393939",
"1	c #383838",
"2	c #636363",
"3	c #343434",
"4	c #333333",
"5	c #323232",
"6	c #5B5B5B",
"7	c #2E2E2E",
"8	c #2D2D2D",
"9	c #2C2C2C",
"0	c #2B2B2B",
"a	c #535353",
"b	c #262626",
"c	c #252525",
"d	c #242424",
"e	c #3E3E3E",
"f	c #181818",
"g	c #171717",
"h	c #202020",
"i	c #0D0D0D",
"j	c #0B0B0B",
"...................",
"+++@@@#$#$$%%%&&&**",
"==---;;;;>>,,''''))",
"!!!~~~{{]]^]^^//(((",
"____:::::::::::::::",
"<[[}}}|||111|||111<",
"2333345455555455552",
"6778889900009900006",
"abccccdddddddddddda",
"efffffgggggggggggge",
"hiiiiiiiiiiiiiiiiih",
"hjjjjjjjjjjjjjjjjjh",
"hjjjjjjjjjjjjjjjjjh",
"hjjjjjjjjjjjjjjjjjh",
"hjjjjjjjjjjjjjjjjjh",
"hhhhhhhhhhhhhhhhhhh",
"hhhhhhhhhhhhhhhhhhh",
"hhhhhhhhhhhhhhhhhhh",
"hhhhhhhhhhhhhhhhhhh"};
