/* XPM */
static char * bbb_xpm[] = {
"19 19 66 1",
" 	c None",
".	c #767676",
"+	c #525252",
"@	c #393939",
"#	c #313131",
"$	c #101010",
"%	c #0F0F0F",
"&	c #111111",
"*	c #171717",
"=	c #242424",
"-	c #515151",
";	c #303030",
">	c #121212",
",	c #141414",
"'	c #1A1A1A",
")	c #272727",
"!	c #3B3B3B",
"~	c #535353",
"{	c #2F2F2F",
"]	c #161616",
"^	c #151515",
"/	c #1D1D1D",
"(	c #2A2A2A",
"_	c #3E3E3E",
":	c #555555",
"<	c #191919",
"[	c #1B1B1B",
"}	c #212121",
"|	c #2D2D2D",
"1	c #414141",
"2	c #585858",
"3	c #1E1E1E",
"4	c #202020",
"5	c #262626",
"6	c #323232",
"7	c #464646",
"8	c #5D5D5D",
"9	c #2B2B2B",
"0	c #232323",
"a	c #2C2C2C",
"b	c #4C4C4C",
"c	c #636363",
"d	c #292929",
"e	c #2E2E2E",
"f	c #363636",
"g	c #434343",
"h	c #565656",
"i	c #6B6B6B",
"j	c #3F3F3F",
"k	c #474747",
"l	c #575757",
"m	c #595959",
"n	c #666666",
"o	c #747474",
"p	c #838383",
"q	c #727272",
"r	c #737373",
"s	c #7C7C7C",
"t	c #858585",
"u	c #8F8F8F",
"v	c #222222",
"w	c #898989",
"x	c #8B8B8B",
"y	c #8E8E8E",
"z	c #939393",
"A	c #989898",
"...................",
"+++++++++++++++++++",
"@@@@@@@@@@@@@@@@@@@",
"###################",
"$$$$%%%%%%%%&*=@-;;",
">>>>>>>>>>>>,')!~{{",
"]]^^^^^^^^^^*/(_:{{",
"<<<<<<<<<<<<[}|12||",
"333333///3334567899",
"======000===5a@bcdd",
"eeeeeee|eeee;fghi))",
"jjjjjjjjjjjj1k+c.55",
"llllllllllllm8nop==",
"qqqqqqqqqqqqr.stuvv",
"wwwwwwwwwwwwwxyzA44",
"3333333333333333333",
"///////////////////",
"[[[[[[[[[[[[[[[[[[[",
"<<<<<<<<<<<<<<<<<<<"};
