/* XPM */
static char * close_pressed_xpm[] = {
"19 19 250 2",
"  	c None",
". 	c #767676",
"+ 	c #777777",
"@ 	c #787878",
"# 	c #797979",
"$ 	c #545454",
"% 	c #555555",
"& 	c #565656",
"* 	c #575757",
"= 	c #585858",
"- 	c #595959",
"; 	c #595A5A",
"> 	c #59595A",
", 	c #525252",
"' 	c #3C3C3C",
") 	c #3E3E3E",
"! 	c #404040",
"~ 	c #424242",
"{ 	c #444444",
"] 	c #454546",
"^ 	c #464747",
"/ 	c #474748",
"( 	c #464748",
"_ 	c #434444",
": 	c #3B3B3B",
"< 	c #3A3A3A",
"[ 	c #373737",
"} 	c #3D3D3D",
"| 	c #404041",
"1 	c #424243",
"2 	c #444546",
"3 	c #454748",
"4 	c #46484A",
"5 	c #434546",
"6 	c #414243",
"7 	c #3F4041",
"8 	c #353535",
"9 	c #333333",
"0 	c #1C1C1C",
"a 	c #202020",
"b 	c #242525",
"c 	c #292A2B",
"d 	c #2C2E2F",
"e 	c #2E3133",
"f 	c #303436",
"g 	c #313538",
"h 	c #313639",
"i 	c #303538",
"j 	c #2F3336",
"k 	c #2D2F31",
"l 	c #2E3031",
"m 	c #363737",
"n 	c #51575B",
"o 	c #8C9DA9",
"p 	c #43484C",
"q 	c #343434",
"r 	c #222222",
"s 	c #282829",
"t 	c #2D2E2F",
"u 	c #333537",
"v 	c #363A3C",
"w 	c #393F42",
"x 	c #3B4146",
"y 	c #3C4348",
"z 	c #3A4146",
"A 	c #383E42",
"B 	c #363B3E",
"C 	c #383B3D",
"D 	c #3E4042",
"E 	c #575C61",
"F 	c #8E9FAB",
"G 	c #454A4E",
"H 	c #2A2A2B",
"I 	c #313233",
"J 	c #37393A",
"K 	c #3C4042",
"L 	c #40464A",
"M 	c #CDE7F7",
"N 	c #BBD7E8",
"O 	c #455057",
"P 	c #444F57",
"Q 	c #BAD6E8",
"R 	c #CBE6F7",
"S 	c #40474B",
"T 	c #414649",
"U 	c #474A4C",
"V 	c #585C5F",
"W 	c #8FA0AD",
"X 	c #414446",
"Y 	c #313232",
"Z 	c #383A3B",
"` 	c #404345",
" .	c #495156",
"..	c #BBD7E9",
"+.	c #C7E5F8",
"@.	c #B7D6EA",
"#.	c #4B5B65",
"$.	c #B5D6EA",
"%.	c #C5E4F8",
"&.	c #B9D6E9",
"*.	c #485157",
"=.	c #494F54",
"-.	c #4E5255",
";.	c #5E6366",
">.	c #91A2AE",
",.	c #424547",
"'.	c #363636",
").	c #383839",
"!.	c #3F4143",
"~.	c #474B4D",
"{.	c #4C5357",
"].	c #505A60",
"^.	c #525F67",
"/.	c #BADAEE",
"(.	c #C1E3F8",
"_.	c #BEE2F8",
":.	c #BFE2F8",
"<.	c #B3D5EA",
"[.	c #4F5D67",
"}.	c #4F5A61",
"|.	c #4F575D",
"1.	c #54595D",
"2.	c #63696C",
"3.	c #92A3AF",
"4.	c #3E3E3F",
"5.	c #464849",
"6.	c #4C5154",
"7.	c #51595D",
"8.	c #555F66",
"9.	c #56646D",
"0.	c #556671",
"a.	c #BAE0F8",
"b.	c #526572",
"c.	c #53626D",
"d.	c #535F67",
"e.	c #545D63",
"f.	c #5A6064",
"g.	c #696F73",
"h.	c #92A3B0",
"i.	c #404446",
"j.	c #464647",
"k.	c #4C4E50",
"l.	c #53575A",
"m.	c #585E63",
"n.	c #5B656B",
"o.	c #5C6972",
"p.	c #BBE1F8",
"q.	c #B1D4EA",
"r.	c #586772",
"s.	c #59656C",
"t.	c #5A6369",
"u.	c #61676A",
"v.	c #707579",
"w.	c #3E4143",
"x.	c #323232",
"y.	c #535354",
"z.	c #585A5B",
"A.	c #5D6163",
"B.	c #61676B",
"C.	c #646C72",
"D.	c #BAD7E9",
"E.	c #61737F",
"F.	c #C2E3F8",
"G.	c #B7D6E9",
"H.	c #626D73",
"I.	c #656C71",
"J.	c #6B6F73",
"K.	c #797E81",
"L.	c #3C3F41",
"M.	c #303030",
"N.	c #777E84",
"O.	c #7B8288",
"P.	c #7E868D",
"Q.	c #808A92",
"R.	c #818D96",
"S.	c #CAE6F7",
"T.	c #B9D6E8",
"U.	c #7F919E",
"V.	c #7E919E",
"W.	c #B6D5E8",
"X.	c #C8E5F7",
"Y.	c #808D97",
"Z.	c #808D94",
"`.	c #838D94",
" +	c #89939B",
".+	c #373A3C",
"++	c #2C2C2C",
"@+	c #90A1AD",
"#+	c #93A6B3",
"$+	c #94A7B5",
"%+	c #94A8B7",
"&+	c #93A9B8",
"*+	c #93AAB9",
"=+	c #92A9B9",
"-+	c #92A9B8",
";+	c #92A8B7",
">+	c #92A6B5",
",+	c #92A5B3",
"'+	c #91A3B0",
")+	c #8FA1AD",
"!+	c #8D9EAB",
"~+	c #333538",
"{+	c #282828",
"]+	c #A3C8E3",
"^+	c #A5C9E4",
"/+	c #A6CAE4",
"(+	c #A6CBE5",
"_+	c #A7CBE5",
":+	c #A7CCE6",
"<+	c #A6CCE6",
"[+	c #A6CCE7",
"}+	c #A5CCE7",
"|+	c #A5CBE6",
"1+	c #A6CBE6",
"2+	c #A5CAE5",
"3+	c #A5CAE4",
"4+	c #A4C9E4",
"5+	c #242424",
"6+	c #252525",
"7+	c #2B2B2C",
"8+	c #2E2F2F",
"9+	c #2F3132",
"0+	c #323435",
"a+	c #343739",
"b+	c #333739",
"c+	c #323537",
"d+	c #313435",
"e+	c #34383B",
"f+	c #323538",
"g+	c #2F3234",
"h+	c #2C2F31",
"i+	c #212121",
"j+	c #232323",
"k+	c #272727",
"l+	c #29292A",
"m+	c #2A2B2C",
"n+	c #2B2D2D",
"o+	c #2C2D2E",
"p+	c #2B2C2D",
"q+	c #28292A",
"r+	c #262727",
"s+	c #1F1F1F",
"t+	c #1E1E1E",
"u+	c #1D1D1D",
"v+	c #212222",
"w+	c #232424",
"x+	c #212122",
"y+	c #1B1B1B",
"z+	c #191919",
"A+	c #1A1A1A",
". + + + @ @ # # # # # @ @ + + + . . . ",
"$ $ % & * = - ; > > - = * & % $ $ , , ",
"' ) ! ~ { ] ^ / ( ( ^ ] _ ~ ! ) ' : < ",
"[ < } | 1 2 3 4 4 4 3 5 6 7 } < [ 8 9 ",
"0 a b c d e f g h i j e k l m n o p q ",
"r s t u v w x y y y z A B C D E F G q ",
"H I J K L M N O O P Q R S T U V W X [ ",
"Y Z ` G  ...+.@.#.$.%.&.*.=.-.;.>.,.'.",
").!.~.{.].^./.(._.:.<.[.}.|.1.2.3.,.8 ",
"4.5.6.7.8.9.0._.a.a.b.c.d.e.f.g.h.i.q ",
"j.k.l.m.n.o.$._.a.p.q.r.s.t.u.v.3.w.x.",
"y.z.A.B.C.D.%.<.E.q.F.G.H.I.J.K.>.L.M.",
"N.O.P.Q.R.S.T.U.V.V.W.X.Y.Z.`. +W .+++",
"F @+h.#+$+%+&+*+=+=+-+;+>+,+'+)+!+~+{+",
"]+^+/+(+_+:+<+[+[+}+|+1+(+2+3+4+]+e 5+",
"6+{+7+8+9+0+u a+b+b+c+d+9+e+f+g+h+r a ",
"i+j+6+k+l+m+n+o+o+o+p+m+q+r+6+j+i+s+t+",
"u+t+s+i+v+j+5+b b b w+j+x+i+s+t+u+y+y+",
"z+A+A+y+0 u+t+t+t+t+t+u+0 y+A+A+z+z+z+"};
