/* XPM */
static char * min_pressed_xpm[] = {
"19 19 258 2",
"  	c None",
". 	c #767676",
"+ 	c #777777",
"@ 	c #787878",
"# 	c #787979",
"$ 	c #777878",
"% 	c #525252",
"& 	c #535353",
"* 	c #545454",
"= 	c #555556",
"- 	c #565656",
"; 	c #575758",
"> 	c #575858",
", 	c #585959",
"' 	c #585859",
") 	c #535454",
"! 	c #393939",
"~ 	c #3A3A3A",
"{ 	c #3B3B3B",
"] 	c #3C3C3C",
"^ 	c #3E3E3E",
"/ 	c #404040",
"( 	c #414243",
"_ 	c #424344",
": 	c #444546",
"< 	c #454647",
"[ 	c #434546",
"} 	c #3F4040",
"| 	c #3D3E3E",
"1 	c #323232",
"2 	c #333333",
"3 	c #353535",
"4 	c #373838",
"5 	c #3A3B3B",
"6 	c #3C3E3E",
"7 	c #3F4041",
"8 	c #404244",
"9 	c #434547",
"0 	c #434648",
"a 	c #434749",
"b 	c #424547",
"c 	c #3E4041",
"d 	c #3C3D3E",
"e 	c #3A3A3B",
"f 	c #373738",
"g 	c #343434",
"h 	c #899BA8",
"i 	c #424343",
"j 	c #323334",
"k 	c #2A2C2D",
"l 	c #282B2D",
"m 	c #292D2F",
"n 	c #2C3134",
"o 	c #2D3336",
"p 	c #2E3337",
"q 	c #2D3236",
"r 	c #25292B",
"s 	c #232527",
"t 	c #1F2021",
"u 	c #1B1C1D",
"v 	c #171818",
"w 	c #8B9CA9",
"x 	c #474849",
"y 	c #393B3D",
"z 	c #333638",
"A 	c #323639",
"B 	c #343A3E",
"C 	c #363E43",
"D 	c #384046",
"E 	c #384146",
"F 	c #374046",
"G 	c #333A3E",
"H 	c #2F3438",
"I 	c #2B2F31",
"J 	c #26282A",
"K 	c #212223",
"L 	c #1C1D1E",
"M 	c #363637",
"N 	c #8C9DAA",
"O 	c #4D4F50",
"P 	c #404345",
"Q 	c #3B4043",
"R 	c #3B4246",
"S 	c #3D464C",
"T 	c #3F4A50",
"U 	c #404C54",
"V 	c #404D55",
"W 	c #3E4950",
"X 	c #3C454C",
"Y 	c #383F44",
"Z 	c #33383C",
"` 	c #2D3033",
" .	c #282A2B",
"..	c #222324",
"+.	c #363636",
"@.	c #8D9FAC",
"#.	c #525556",
"$.	c #474B4D",
"%.	c #42484C",
"&.	c #434C51",
"*.	c #455158",
"=.	c #47545D",
"-.	c #475761",
";.	c #475862",
">.	c #465661",
",.	c #45545D",
"'.	c #435058",
").	c #404950",
"!.	c #3A4146",
"~.	c #353A3D",
"{.	c #2E3133",
"].	c #313131",
"^.	c #353636",
"/.	c #8EA0AC",
"(.	c #585B5D",
"_.	c #4D5255",
":.	c #495155",
"<.	c #4A545A",
"[.	c #4C5961",
"}.	c #4D5D68",
"|.	c #4D5F6B",
"1.	c #4B5E6B",
"2.	c #4A5E6A",
"3.	c #4A5C67",
"4.	c #495861",
"5.	c #465159",
"6.	c #414A4F",
"7.	c #3B4144",
"8.	c #34383A",
"9.	c #2E3031",
"0.	c #2F2F2F",
"a.	c #333434",
"b.	c #8EA0AD",
"c.	c #5E6163",
"d.	c #54585B",
"e.	c #4E565B",
"f.	c #4F5960",
"g.	c #505E66",
"h.	c #51626D",
"i.	c #506471",
"j.	c #4D6371",
"k.	c #4D6270",
"l.	c #4E616D",
"m.	c #4D5D66",
"n.	c #4B575F",
"o.	c #464F54",
"p.	c #41464A",
"q.	c #3A3E40",
"r.	c #343637",
"s.	c #2D2D2D",
"t.	c #313232",
"u.	c #66696B",
"v.	c #5B6063",
"w.	c #565D62",
"x.	c #555F66",
"y.	c #56646D",
"z.	c #576772",
"A.	c #566976",
"B.	c #546976",
"C.	c #536875",
"D.	c #546672",
"E.	c #54636D",
"F.	c #515D64",
"G.	c #484E52",
"H.	c #424648",
"I.	c #3D3E40",
"J.	c #2B2B2B",
"K.	c #2F2F30",
"L.	c #707374",
"M.	c #666A6D",
"N.	c #60666B",
"O.	c #5F686E",
"P.	c #C2DFF2",
"Q.	c #CBEAFF",
"R.	c #C8E9FF",
"S.	c #C6E8FF",
"T.	c #C7E8FF",
"U.	c #C9E9FF",
"V.	c #CCEAFF",
"W.	c #C6E3F5",
"X.	c #585F64",
"Y.	c #54595D",
"Z.	c #505254",
"`.	c #4B4D4E",
" +	c #292929",
".+	c #2C2C2C",
"++	c #848D93",
"@+	c #7F8A90",
"#+	c #7E8991",
"$+	c #7E8A94",
"%+	c #7E8D97",
"&+	c #B4D2E4",
"*+	c #B2D2E5",
"=+	c #B2D1E5",
"-+	c #B3D1E4",
";+	c #B6D1E3",
">+	c #7A868E",
",+	c #778189",
"'+	c #757D84",
")+	c #727A80",
"!+	c #252525",
"~+	c #282828",
"{+	c #8C9EAB",
"]+	c #8EA1AE",
"^+	c #90A3B1",
"/+	c #91A5B3",
"(+	c #91A7B5",
"_+	c #91A8B7",
":+	c #91A8B8",
"<+	c #90A8B9",
"[+	c #90A8B8",
"}+	c #90A7B7",
"|+	c #90A6B5",
"1+	c #8FA4B3",
"2+	c #8FA3B1",
"3+	c #8DA0AE",
"4+	c #8A9CA9",
"5+	c #222222",
"6+	c #A1C7E3",
"7+	c #A3C8E3",
"8+	c #A3C9E4",
"9+	c #A4CAE4",
"0+	c #A4CAE5",
"a+	c #A5CAE5",
"b+	c #A5CBE6",
"c+	c #A4CBE6",
"d+	c #A4C9E4",
"e+	c #A2C8E3",
"f+	c #1F1F1F",
"g+	c #202020",
"h+	c #232323",
"i+	c #282829",
"j+	c #2D2F30",
"k+	c #2F3133",
"l+	c #313436",
"m+	c #313537",
"n+	c #323638",
"o+	c #2C2F30",
"p+	c #272829",
"q+	c #222323",
"r+	c #1D1D1D",
"s+	c #1E1E1E",
"t+	c #212121",
"u+	c #222223",
"v+	c #242525",
"w+	c #262728",
"x+	c #28292A",
"y+	c #292B2C",
"z+	c #292A2C",
"A+	c #1B1B1B",
"B+	c #1C1C1C",
"C+	c #1F2020",
"D+	c #202121",
"E+	c #232424",
"F+	c #202021",
"G+	c #191919",
"H+	c #1A1A1A",
"I+	c #1D1E1E",
". . . . + + @ @ @ # # # @ @ $ + + . . ",
"% % & * * = - ; > , ' ' > ; - = * ) & ",
"! ~ { ] ^ / ( _ : < < < [ _ ( } | ] { ",
"1 2 3 4 5 6 7 8 9 0 a 0 b 8 c d e f 3 ",
"1 g h i j k l m n o p q n m r s t u v ",
"1 3 w x y z A B C D E F C G H I J K L ",
"2 M N O P Q R S T U V U W X Y Z `  ...",
"1 +.@.#.$.%.&.*.=.-.;.>.,.'.).!.~.{. .",
"].^./.(._.:.<.[.}.|.1.2.3.4.5.6.7.8.9.",
"0.a.b.c.d.e.f.g.h.i.j.k.l.m.n.o.p.q.r.",
"s.t./.u.v.w.x.y.z.A.B.C.D.E.F.e.G.H.I.",
"J.K.@.L.M.N.O.P.Q.R.S.T.U.V.W.X.Y.Z.`.",
" +.+N ++@+#+$+%+&+*+=+=+-+&+;+>+,+'+)+",
"!+~+w {+]+^+/+(+_+:+<+[+}+|+1+2+3+{+4+",
"5+!+6+7+8+9+0+a+b+c+c+c+c+0+0+d+8+e+6+",
"f+g+h+!+i+k j+k+l+m+n+m+l+{.o+k p+!+q+",
"r+s+f+t+u+v+w+x+y+k k k z+x+w+v+u+t+f+",
"A+A+B+r+s+C+D+u+q+E+E+E+q+K F+C+s+r+B+",
"G+G+G+G+H+A+B+r+r+I+I+I+r+r+B+A+H+G+G+"};
