/* XPM */
static char * stick_focus_xpm[] = {
"19 19 72 1",
" 	c None",
".	c #767676",
"+	c #525252",
"@	c #393939",
"#	c #313131",
"$	c #303030",
"%	c #8698A5",
"&	c #242424",
"*	c #171717",
"=	c #111111",
"-	c #0F0F0F",
";	c #101010",
">	c #21272B",
",	c #2F2F2F",
"'	c #3B3B3B",
")	c #272727",
"!	c #1A1A1A",
"~	c #141414",
"{	c #121212",
"]	c #1B1D1F",
"^	c #3E3E3E",
"/	c #2A2A2A",
"(	c #1D1D1D",
"_	c #151515",
":	c #161616",
"<	c #2D2D2D",
"[	c #414141",
"}	c #212121",
"|	c #1B1B1B",
"1	c #191919",
"2	c #394348",
"3	c #575F64",
"4	c #565E63",
"5	c #37444B",
"6	c #2B2B2B",
"7	c #464646",
"8	c #323232",
"9	c #262626",
"0	c #202020",
"a	c #1C1C1C",
"b	c #555C61",
"c	c #C8E0F0",
"d	c #C6E1F0",
"e	c #575F66",
"f	c #1E1E1E",
"g	c #292929",
"h	c #4C4C4C",
"i	c #2C2C2C",
"j	c #222222",
"k	c #565C61",
"l	c #C2DCEC",
"m	c #C7E2F1",
"n	c #575F65",
"o	c #232323",
"p	c #565656",
"q	c #434343",
"r	c #363636",
"s	c #2E2E2E",
"t	c #3D4246",
"u	c #575D63",
"v	c #575D62",
"w	c #41494D",
"x	c #636363",
"y	c #474747",
"z	c #3F3F3F",
"A	c #7B8388",
"B	c #737B80",
"C	c #6E767B",
"D	c #6C7379",
"E	c #6B7278",
"F	c #9FC6E2",
"G	c #26292B",
"...................",
"+++++++++++++++++++",
"@@@@@@@@@@@@@@@@@@@",
"###################",
"$$%@&*=--------;;>%",
",,%')!~{{{{{{{{{{]%",
",,%^/(*__________:%",
"<<%[<}|12345*11111%",
"66%7890abcde(fffff%",
"gg%h@i9jklmno&&&&&%",
"))%pqr$stuvwssssss%",
"99%x+y[zzzzzzzzzzz%",
"&&%ABCDEEEEEEEEEEE%",
"jj%%%%%%%%%%%%%%%%%",
"00FFFFFFFFFFFFFFFFF",
"ffGGGGfffffffffffff",
"(((((((((((((((((((",
"|||||||||||||||||||",
"1111111111111111111"};
