/* XPM */
static char * stick_pressed_xpm[] = {
"19 19 111 2",
"  	c None",
". 	c #767676",
"+ 	c #525252",
"@ 	c #393939",
"# 	c #313131",
"$ 	c #383B3D",
"% 	c #303030",
"& 	c #889FAF",
"* 	c #545454",
"= 	c #3F3F3F",
"- 	c #292929",
"; 	c #242424",
"> 	c #232323",
", 	c #212121",
"' 	c #252525",
") 	c #272727",
"! 	c #2B2B2B",
"~ 	c #2E2E2E",
"{ 	c #323232",
"] 	c #7E9CB2",
"^ 	c #2F2F2F",
"/ 	c #8CA6B9",
"( 	c #535353",
"_ 	c #282828",
": 	c #202020",
"< 	c #1F1F1F",
"[ 	c #222222",
"} 	c #2A2A2A",
"| 	c #2D2D2D",
"1 	c #81A1B8",
"2 	c #8BA3B5",
"3 	c #1E1E1E",
"4 	c #333333",
"5 	c #82A2B9",
"6 	c #90A8BA",
"7 	c #555555",
"8 	c #404040",
"9 	c #464646",
"0 	c #676767",
"a 	c #616161",
"b 	c #2C2C2C",
"c 	c #343434",
"d 	c #8EA9BB",
"e 	c #585858",
"f 	c #434343",
"g 	c #353535",
"h 	c #262626",
"i 	c #C4C4C4",
"j 	c #373737",
"k 	c #83A3BA",
"l 	c #5D5D5D",
"m 	c #494949",
"n 	c #3A3A3A",
"o 	c #696969",
"p 	c #BDBDBD",
"q 	c #C2C2C2",
"r 	c #383838",
"s 	c #3C3C3C",
"t 	c #85A5BC",
"u 	c #93ACBE",
"v 	c #666666",
"w 	c #6F6F6F",
"x 	c #5F5F5F",
"y 	c #414141",
"z 	c #454545",
"A 	c #88A8BF",
"B 	c #98B1C3",
"C 	c #727272",
"D 	c #606060",
"E 	c #444444",
"F 	c #3E3E3E",
"G 	c #484848",
"H 	c #4C4C4C",
"I 	c #505050",
"J 	c #8DADC4",
"K 	c #9EB7C8",
"L 	c #828282",
"M 	c #5B5B5B",
"N 	c #575757",
"O 	c #565656",
"P 	c #595959",
"Q 	c #5C5C5C",
"R 	c #626262",
"S 	c #6A6A6A",
"T 	c #95B5CC",
"U 	c #A3BDCE",
"V 	c #929292",
"W 	c #878787",
"X 	c #7F7F7F",
"Y 	c #797979",
"Z 	c #757575",
"` 	c #737373",
" .	c #717171",
"..	c #7C7C7C",
"+.	c #838383",
"@.	c #9DBDD4",
"#.	c #A8C9E0",
"$.	c #A5BDCF",
"%.	c #A1BACC",
"&.	c #9FB7C9",
"*.	c #9CB5C7",
"=.	c #9BB3C6",
"-.	c #9AB3C4",
";.	c #9AB2C4",
">.	c #9AB3C5",
",.	c #9BB4C6",
"'.	c #9FB8CA",
").	c #A4C4DB",
"!.	c #1D1D1D",
"~.	c #1B1B1B",
"{.	c #191919",
". . . . . . . . . . . . . . . . . . . ",
"+ + + + + + + + + + + + + + + + + + + ",
"@ @ @ @ @ @ @ @ @ @ @ @ @ @ @ @ @ @ @ ",
"# # # # # # # # # # # # # # # # # # $ ",
"% % & * = % - ; > , , , > ' ) ! ~ { ] ",
"^ ^ / ( = % _ > , : < : [ ; ) } | # 1 ",
"^ ^ 2 * = % _ > : 3 3 3 : > ) } ~ 4 5 ",
"| | 6 7 8 { - > 9 0 a ~ , ; _ b % c 5 ",
"! ! d e f g b h 0 i i = [ ) ! ^ 4 j k ",
"- - 6 l m n % } o p q * h ! ^ c r s t ",
") ) u v + f @ c + v w x % c r s y z A ",
"h h B C D + m E y = F = y z G H I * J ",
"; ; K L C 0 D M e N O N P Q x R v S T ",
"[ [ U V W X Y Z ` C  .C ` . Y ..X +.@.",
": : #.$.%.&.*.=.-.;.;.-.>.,.*.K '.%.).",
"3 3 3 3 3 3 3 3 3 3 3 3 3 3 3 3 3 3 3 ",
"!.!.!.!.!.!.!.!.!.!.!.!.!.!.!.!.!.!.!.",
"~.~.~.~.~.~.~.~.~.~.~.~.~.~.~.~.~.~.~.",
"{.{.{.{.{.{.{.{.{.{.{.{.{.{.{.{.{.{.{."};
