/* XPM */
static char * stuck_focus_xpm[] = {
"19 19 173 2",
"  	c None",
". 	c #767676",
"+ 	c #757575",
"@ 	c #747474",
"# 	c #747475",
"$ 	c #747575",
"% 	c #515151",
"& 	c #505050",
"* 	c #505051",
"= 	c #515252",
"- 	c #525353",
"; 	c #525354",
"> 	c #525252",
", 	c #515152",
"' 	c #505151",
") 	c #383838",
"! 	c #373737",
"~ 	c #383839",
"{ 	c #393A3A",
"] 	c #3B3C3C",
"^ 	c #3C3E3E",
"/ 	c #3E3F40",
"( 	c #3D3E3F",
"_ 	c #3B3C3D",
": 	c #3A3A3B",
"< 	c #383939",
"[ 	c #373838",
"} 	c #303030",
"| 	c #2F2F2F",
"1 	c #2E2E2E",
"2 	c #303131",
"3 	c #323334",
"4 	c #353637",
"5 	c #38393B",
"6 	c #393B3D",
"7 	c #383A3C",
"8 	c #363738",
"9 	c #333435",
"0 	c #313232",
"a 	c #2F3030",
"b 	c #36393B",
"c 	c #8196A6",
"d 	c #4E4E4E",
"e 	c #393939",
"f 	c #2D2D2D",
"g 	c #29292A",
"h 	c #272929",
"i 	c #2A2C2D",
"j 	c #2B2D2F",
"k 	c #2D2F31",
"l 	c #2C2E30",
"m 	c #2B2D2E",
"n 	c #292B2C",
"o 	c #28292A",
"p 	c #2A2A2A",
"q 	c #7794A8",
"r 	c #2C2C2C",
"s 	c #829AAB",
"t 	c #4A4A4A",
"u 	c #2A2B2B",
"v 	c #262728",
"w 	c #282A2B",
"x 	c #2A2C2E",
"y 	c #2A2D2F",
"z 	c #292B2D",
"A 	c #272828",
"B 	c #262727",
"C 	c #272727",
"D 	c #7795AB",
"E 	c #7E94A4",
"F 	c #494949",
"G 	c #343434",
"H 	c #232424",
"I 	c #232425",
"J 	c #242627",
"K 	c #252729",
"L 	c #26292B",
"M 	c #26282A",
"N 	c #242525",
"O 	c #262626",
"P 	c #7693A8",
"Q 	c #292929",
"R 	c #8095A5",
"S 	c #484848",
"T 	c #333333",
"U 	c #1F2020",
"V 	c #1E1F20",
"W 	c #393A3B",
"X 	c #515354",
"Y 	c #4E5051",
"Z 	c #212223",
"` 	c #202122",
" .	c #202121",
"..	c #212121",
"+.	c #7390A4",
"@.	c #282828",
"#.	c #7C94A4",
"$.	c #1F1F1F",
"%.	c #1A1A1A",
"&.	c #474748",
"*.	c #848585",
"=.	c #848586",
"-.	c #2F3031",
";.	c #1B1B1C",
">.	c #1C1C1C",
",.	c #1E1E1E",
"'.	c #232323",
").	c #738FA3",
"!.	c #252525",
"~.	c #7D92A2",
"{.	c #4C4C4C",
"].	c #434343",
"^.	c #777777",
"/.	c #797979",
"(.	c #353535",
"_.	c #181818",
":.	c #202020",
"<.	c #2B2B2B",
"[.	c #313131",
"}.	c #7490A4",
"|.	c #8197A6",
"1.	c #555555",
"2.	c #404040",
"3.	c #414141",
"4.	c #464646",
"5.	c #3D3D3D",
"6.	c #7793A7",
"7.	c #242424",
"8.	c #879DAD",
"9.	c #616161",
"0.	c #4D4D4D",
"a.	c #3F3F3F",
"b.	c #3A3A3A",
"c.	c #474747",
"d.	c #7D9AAE",
"e.	c #222222",
"f.	c #8FA6B5",
"g.	c #717171",
"h.	c #5F5F5F",
"i.	c #3E3E3E",
"j.	c #444444",
"k.	c #5C5C5C",
"l.	c #87A4B9",
"m.	c #97AFBF",
"n.	c #838383",
"o.	c #6B6B6B",
"p.	c #636363",
"q.	c #5D5D5D",
"r.	c #595959",
"s.	c #575757",
"t.	c #565656",
"u.	c #686868",
"v.	c #6F6F6F",
"w.	c #91AFC5",
"x.	c #9FBED4",
"y.	c #99AFC0",
"z.	c #92A9B9",
"A.	c #8CA2B2",
"B.	c #869CAB",
"C.	c #8397A7",
"D.	c #8095A3",
"E.	c #7F93A2",
"F.	c #7E92A1",
"G.	c #7F94A2",
"H.	c #8095A4",
"I.	c #8398A7",
"J.	c #8CA2B1",
"K.	c #90A7B7",
"L.	c #95ACBD",
"M.	c #9BBACF",
"N.	c #1D1D1D",
"O.	c #1B1B1B",
"P.	c #191919",
". . + + + @ @ @ # + + + $ # @ @ + + + ",
"% % % & & & * % = - ; - > , ' & & & % ",
") ) ! ! ! ! ~ { ] ^ / ( _ : < [ ! ! ! ",
"} } | 1 1 | 2 3 4 5 6 7 8 9 0 a 1 1 b ",
"| 1 c d e f g h i j k l m n o g p 1 q ",
"f r s t ! u v v w x y y z o A B C r D ",
"f r E F G C H I J K L M K J N H O r P ",
"p Q R S T O U V W X Y m Z `  ...O r +.",
"@.C #.F G C $.%.&.*.=.-.;.>.,.'.@.f ).",
"O !.~.{.) p ..>.].^./.(._.>.:.O <.[.}.",
"!.'.|.1.2.[.@.'.(.3.4.5.$.'.C r T e 6.",
"7.'.8.9.0.a.(.| r p Q p r } G b.2.c.d.",
"e...f.g.h.> t ].a.i.5.i.2.j.F d 1.k.l.",
"..:.m.n.. o.p.q.r.s.t.s.r.q.p.u.v.. w.",
"$.,.x.y.z.A.B.C.D.E.F.G.H.I.B.J.K.L.M.",
"N.N.N.>.>.O.O.%.%.%.%.%.%.%.O.O.>.>.N.",
">.>.>.>.O.O.O.O.%.%.%.%.%.O.O.O.O.>.>.",
"%.%.%.%.%.%.%.P.P.P.P.P.P.P.%.%.%.%.%.",
"P.P._._._._._._._._._._._._._._._._._."};
