/* XPM */
static char *maxpr[] = {
/* columns rows colors chars-per-pixel */
"22 22 29 1",
"  c #161615151414",
". c #1E1E1F1F1A1A",
"X c #1E1E20201B1B",
"o c #1F1F20201B1B",
"O c #212120201D1D",
"+ c #515146463D3D",
"@ c #B7B7B7B7B7B7",
"# c #B9B9B9B9B9B9",
"$ c gray76",
"% c #C6C6C6C6C6C6",
"& c gray81",
"* c gray82",
"= c #D2D2D2D2D2D2",
"- c #DDDDDDDDDDDD",
"; c #DFDFDFDFDFDF",
": c gray88",
"> c #E1E1E1E1E1E1",
", c #E2E2E2E2E2E2",
"< c gray90",
"1 c #E6E6E6E6E6E6",
"2 c #E9E9E9E9E9E9",
"3 c #EAEAEAEAEAEA",
"4 c gray92",
"5 c #ECECECECECEC",
"6 c #EEEEEEEEEEEE",
"7 c #EFEFEFEFEFEF",
"8 c #F1F1F1F1F1F1",
"9 c #F3F3F3F3F3F3",
"0 c gray96",
/* pixels */
"                      ",
"OOOOOOOOOOOOOOOOOOOOOO",
"......................",
"XXXXXXXXXXXXXXXXXXXXXX",
"......................",
"oooooooooooooooooooooo",
"%%%%%%%%%%%%%%%%%%%%%%",
"0000000000000000000000",
"9999999999999999999999",
"8888888888888888888888",
"7777777777777777777777",
"6666666666666666666666",
"44444445++544444444444",
"333333:++++:3333333333",
"22222=++$$++=222222222",
"1111&++*11*++&11111111",
"<<<<*#-<<<<-#*<<<<<<<<",
",,,,,,,,,,,,,,,,,,,,,,",
">>>>>>>>>>>>>>>>>>>>>>",
";;;;;;;;;;;;;;;;;;;;;;",
"----------------------",
"@@@@@@@@@@@@@@@@@@@@@@"
};
