/* XPM */
static char * selectedfcs_xpm[] = {
"16 16 2 1",
" 	c None",
".	c #3C3B37",
"                ",
"                ",
"                ",
"                ",
"                ",
"      .....     ",
"      .....     ",
"      .....     ",
"      .....     ",
"      .....     ",
"                ",
"                ",
"                ",
"                ",
"                ",
"                "};
