/* XPM */
static char *stuckufcs[] = {
/* columns rows colors chars-per-pixel */
"22 22 35 1",
"  c #161615151414",
". c #1E1E1F1F1A1A",
"X c #1E1E20201B1B",
"o c #1F1F20201B1B",
"O c #1F1F20201D1D",
"+ c #212120201D1D",
"@ c #212122221E1E",
"# c #242425252121",
"$ c #262625252222",
"% c #262627272424",
"& c #272728282525",
"* c #282828282626",
"= c #282829292626",
"- c #2A2A2A2A2929",
"; c #2B2B2B2B2A2A",
": c #2B2B2D2D2C2C",
"> c #2D2D2D2D2D2D",
", c gray18",
"< c #4E4E4C4C4949",
"1 c #4E4E4D4D4A4A",
"2 c #4F4F4D4D4A4A",
"3 c #4F4F4E4E4A4A",
"4 c #4F4F4E4E4B4B",
"5 c #676766666363",
"6 c #676766666464",
"7 c #6F6F6E6E6B6B",
"8 c #6F6F6E6E6C6C",
"9 c #818181817E7E",
"0 c #828281817E7E",
"q c #828281817F7F",
"w c #838383838080",
"e c #848483838080",
"r c #848483838181",
"t c #858584848282",
"y c #868685858383",
/* pixels */
"                      ",
"++++++++++++++++++++++",
"......................",
"XXXXXXXXXXXXXXXXXXXXXX",
"......................",
"oooooooooooooooooooooo",
"OOOOOOOOOOOOOOOOOOOOOO",
"@@@@@@@@@@@@@@@@@@@@@@",
"@@@@@@@@@@@@@@@@@@@@@@",
"######################",
"########468862########",
"$$$$$$$38treq82$$$$$$$",
"%%%%%%%6ytreq06%%%%%%%",
"&&&&&&&8ytreq08&&&&&&&",
"=======8ytrwq98=======",
"=======6ytrwq96=======",
"*******18trwq81*******",
"--------<5775<--------",
";;;;;;;;;;;;;;;;;;;;;;",
"::::::::::::::::::::::",
">>>>>>>>>>>>>>>>>>>>>>",
",,,,,,,,,,,,,,,,,,,,,,"
};
