/* XPM */
static char * max_unfocus_xpm[] = {
"21 21 36 1",
" 	c None",
".	c #494949",
"+	c #4A4A4A",
"@	c #909090",
"#	c #8F8F8F",
"$	c #8E8E8E",
"%	c #8D8D8D",
"&	c #848484",
"*	c #858585",
"=	c #7B7B7B",
"-	c #727272",
";	c #696969",
">	c #616161",
",	c #575757",
"'	c #9A9A9A",
")	c #585858",
"!	c #141414",
"~	c #010101",
"{	c #050505",
"]	c #191919",
"^	c #0B0B0B",
"/	c #101010",
"(	c #111111",
"_	c #111010",
":	c #151515",
"<	c #161616",
"[	c #1B1B1B",
"}	c #1C1A1A",
"|	c #1C1C1C",
"1	c #202020",
"2	c #212121",
"3	c #212020",
"4	c #272727",
"5	c #282828",
"6	c #424242",
"7	c #6F6F6F",
".....++++++..........",
"@####@@@@@@##@#######",
"$%%%%%$%%%%$$%%%%$$%%",
"&&&&&&*&&&&*&&&&&&*&&",
"=====================",
"---------------------",
";;;;;;;;;;;;;;;;;;;;;",
">>>>>>>>>>>>>>>>>>>>>",
",,,,,,,,,,'),,,,,),,,",
".....++..'''++..++.++",
"!!!!!!!!'''''!!!!!!!!",
"~~~~~~~'''~'''~~~~~~~",
"{{{{{{]''{{{'']{{{{{{",
"^^^^^^^^^^^^^^^^^^^^^",
"/(/(///_//(((((/(((((",
"::::<::::::<<<:::<<<<",
"[[[[[[[[[[}[[[[[[||||",
"111112222132222222222",
"444444444445555555555",
"666666666666666666666",
"777777777777777777777"};
