/* XPM */
static char * min_unfocus_xpm[] = {
"21 21 35 1",
" 	c None",
".	c #494949",
"+	c #4A4A4A",
"@	c #909090",
"#	c #8F8F8F",
"$	c #8E8E8E",
"%	c #8D8D8D",
"&	c #848484",
"*	c #858585",
"=	c #7B7B7B",
"-	c #727272",
";	c #696969",
">	c #616161",
",	c #575757",
"'	c #585858",
")	c #9A9A9A",
"!	c #141414",
"~	c #010101",
"{	c #050505",
"]	c #0B0B0B",
"^	c #101010",
"/	c #111111",
"(	c #111010",
"_	c #151515",
":	c #161616",
"<	c #1B1B1B",
"[	c #1C1A1A",
"}	c #1C1C1C",
"|	c #202020",
"1	c #212121",
"2	c #212020",
"3	c #272727",
"4	c #282828",
"5	c #424242",
"6	c #6F6F6F",
".....++++++..........",
"@####@@@@@@##@#######",
"$%%%%%$%%%%$$%%%%$$%%",
"&&&&&&*&&&&*&&&&&&*&&",
"=====================",
"---------------------",
";;;;;;;;;;;;;;;;;;;;;",
">>>>>>>>>>>>>>>>>>>>>",
",,,,,,,,,,,',,,,,',,,",
".....++))++.))..++.++",
"!!!!!!!)))!)))!!!!!!!",
"~~~~~~~~)))))~~~~~~~~",
"{{{{{{{{{))){{{{{{{{{",
"]]]]]]]]]])]]]]]]]]]]",
"^/^/^^^(^^/////^/////",
"____:______:::___::::",
"<<<<<<<<<<[<<<<<<}}}}",
"|||||1111|21111111111",
"333333333334444444444",
"555555555555555555555",
"666666666666666666666"};
