/* XPM */
static char * stuck_unfocus_xpm[] = {
"21 21 70 1",
" 	c None",
".	c #3B3B3B",
"+	c #414141",
"@	c #494949",
"#	c #4A4A4A",
"$	c #5E5E5E",
"%	c #8F8F8F",
"&	c #909090",
"*	c #919191",
"=	c #5D5D5D",
"-	c #8D8D8D",
";	c #8E8E8E",
">	c #595959",
",	c #848484",
"'	c #858585",
")	c #858484",
"!	c #868686",
"~	c #555555",
"{	c #7A7A7A",
"]	c #7C7C7C",
"^	c #525252",
"/	c #717171",
"(	c #737373",
"_	c #4E4E4E",
":	c #696969",
"<	c #6A6A6A",
"[	c #616161",
"}	c #626262",
"|	c #626161",
"1	c #474747",
"2	c #585858",
"3	c #4B4B4B",
"4	c #9A9A9A",
"5	c #2B2B2B",
"6	c #141414",
"7	c #232323",
"8	c #020202",
"9	c #010101",
"0	c #252525",
"a	c #060606",
"b	c #050505",
"c	c #040404",
"d	c #272727",
"e	c #0B0B0B",
"f	c #0A0A0A",
"g	c #0C0A0A",
"h	c #2A2A2A",
"i	c #111111",
"j	c #101010",
"k	c #121010",
"l	c #111010",
"m	c #100F0F",
"n	c #2C2C2C",
"o	c #161616",
"p	c #151515",
"q	c #151414",
"r	c #2E2E2E",
"s	c #1C1C1C",
"t	c #1B1B1B",
"u	c #1D1A1A",
"v	c #303030",
"w	c #212121",
"x	c #212020",
"y	c #221F1F",
"z	c #202020",
"A	c #333333",
"B	c #282828",
"C	c #424242",
"D	c #6E6E6E",
"E	c #6F6F6F",
".+@@@@@#######@######",
".$%%%%&&&&&&&&*******",
".=-;;%&&&&%%&&&&&&&&&",
".>,')!'!!!!'!'!!!!!!!",
".~{]]]]]]]]]]]]]]]]]]",
".^/((((((((((((((((((",
"._:<<<<<<<<<<<<<<<<<<",
".#[}}}|}}}}}}|}}}}}}}",
".12>>>>>>>>>>>>>>>>>>",
".+####344###44######3",
".56666644464446666666",
".78999994444499999999",
".0abbccbb444cccbbbccc",
".deeefg4444444feeffff",
".hiiijkljjjjmjjjjjjjj",
".noooppppppqppppppppp",
".rssttttttutttttttttt",
".vwwwwwwwxywwwwwwzzzz",
".ABBBBBBBBddddddddddd",
"+CCCCCCCCCCCCCCCCCCCC",
"DEEEEEEEEEEEEEEEEEEEE"};
