/* XPM */
static char * unselect_xpm[] = {
"23 23 2 1",
" 	c None",
".	c #FFFFFF",
"                       ",
"                       ",
"                       ",
"                       ",
"                       ",
"                       ",
"                       ",
"                       ",
"                       ",
"            ......     ",
"            .    .     ",
"            .    .     ",
"            .    .     ",
"            .    .     ",
"            ......     ",
"                       ",
"                       ",
"                       ",
"                       ",
"                       ",
"                       ",
"                       ",
"                       "};
