/* XPM */
static char * bullet_hilite_xpm[] = {
"19 19 3 1",
" 	c None",
".	c #9B9B9B",
"+	c #BAB887",
"                   ",
"                   ",
"                   ",
"                   ",
"                   ",
"                   ",
"             .     ",
"             +.    ",
"              +.   ",
"               +.  ",
"              +.   ",
"             +.    ",
"             .     ",
"                   ",
"                   ",
"                   ",
"                   ",
"                   ",
"                   "};
