/* XPM */
static char *closeufcs[] = {
/* columns rows colors chars-per-pixel */
"22 22 39 1",
"  c #3C3C3B3B3737",
". c #4B4B4A4A4545",
"X c #4D4D4C4C4747",
"o c #50504E4E4A4A",
"O c #525251514C4C",
"+ c #545453534F4F",
"@ c #585857575252",
"# c #5A5A5A5A5555",
"$ c #C1F43E8B4F68",
"% c #B4754B5558D2",
"& c #B5044F0A5C21",
"* c #B59252C05F6F",
"= c #A9AA5590605B",
"- c #B621567662BD",
"; c #C2A6432E538A",
": c #C35847D157AC",
"> c #C40A4C745BCD",
", c #D60DD2575883",
"< c #D628D2935CE6",
"1 c #C489C192601B",
"2 c #C49FC1C2639E",
"3 c #C4B5C1F06720",
"4 c #C4CAC2206AA1",
"5 c #C4E0C2506E24",
"6 c #D643D2CD6149",
"7 c #D65DD30965AB",
"8 c #D679D3446A0E",
"9 c #D693D3806E71",
"0 c #C4F5C27F71A6",
"q c #75FD9F348DFC",
"w c #5BB4A96D88F6",
"e c #62A9A0D686DE",
"r c #66F6A27A899D",
"t c #6B43A41C8C5D",
"y c #6F90A5BF8F1D",
"u c #6114AB798C66",
"i c #6675AD848FD5",
"p c #6BD5AF909345",
"a c #73DDA76291DC",
/* pixels */
"######################",
"@@@@@@@@@@@@@@@@@@@@@@",
"++++++++++++++++++++++",
"OOOOOOOOOOOOOOOOOOOOOO",
"oooooooooooooooooooooo",
"XXXXXXXXXXXXXXXXXXXXXX",
"qaaaaaaaaaaaaaaaaaaaa.",
"yppppppppppppppppppppy",
"tiiiiiiiiiiiiiiiiiiiit",
"ruuuuuuuuuuuuuuuuuuuur",
"ewwwwwwwwwwwwwwwwwwwwe",
"0999999999999999999990",
"5888888888888888888885",
"4777777777777777777774",
"3666666666666666666663",
"2<<<<<<<<<<<<<<<<<<<<2",
"1,,,,,,,,,,,,,,,,,,,,1",
"->>>>>>>>>>>>>>>>>>>>-",
"*::::::::::::::::::::*",
"&;;;;;;;;;;;;;;;;;;;;&",
"%$$$$$$$$$$$$$$$$$$$$%",
"=%%%%%%%%%%%%%%%%%%%% "
};
