/* XPM */
static char * grips_xpm[] = {
"21 4 3 1",
" 	c None",
".	c #F0EBE2",
"+	c #A29276",
".....................",
".....................",
".....................",
"+++++++++++++++++++++"};
