/* XPM */
static char * close_xpm[] = {
"25 25 115 2",
"  	c None",
". 	c #606060",
"+ 	c #3E3E3D",
"@ 	c #3E3E3E",
"# 	c #3D3E3E",
"$ 	c #3E3D3E",
"% 	c #3E3D3D",
"& 	c #3D3E3D",
"* 	c #3D3D3D",
"= 	c #3D3D3E",
"- 	c #3C3C3C",
"; 	c #3D3C3C",
"> 	c #3C3D3C",
", 	c #3C3C3D",
"' 	c #3D3C3D",
") 	c #3C3D3D",
"! 	c #3D3D3C",
"~ 	c #3C3C3B",
"{ 	c #3C3B3C",
"] 	c #3B3C3C",
"^ 	c #3C3B3B",
"/ 	c #3B3B3B",
"( 	c #3B3C3B",
"_ 	c #3B3B3C",
": 	c #3A3B3A",
"< 	c #3B3B3A",
"[ 	c #3A3B3B",
"} 	c #3A3A3A",
"| 	c #3A3A3B",
"1 	c #3B3A3A",
"2 	c #3A3A39",
"3 	c #3A393A",
"4 	c #393939",
"5 	c #393A3A",
"6 	c #B3B3B3",
"7 	c #BEBEBE",
"8 	c #474848",
"9 	c #484747",
"0 	c #393A39",
"a 	c #39393A",
"b 	c #3A3939",
"c 	c #383939",
"d 	c #393938",
"e 	c #BDBDBD",
"f 	c #E6E6E6",
"g 	c #C8C8C8",
"h 	c #474747",
"i 	c #474746",
"j 	c #393839",
"k 	c #383938",
"l 	c #383839",
"m 	c #383838",
"n 	c #464646",
"o 	c #CACACA",
"p 	c #383737",
"q 	c #383837",
"r 	c #373738",
"s 	c #383738",
"t 	c #373838",
"u 	c #373737",
"v 	c #373837",
"w 	c #454546",
"x 	c #464545",
"y 	c #363737",
"z 	c #373736",
"A 	c #454545",
"B 	c #373637",
"C 	c #363636",
"D 	c #373636",
"E 	c #363736",
"F 	c #363637",
"G 	c #444544",
"H 	c #444444",
"I 	c #363635",
"J 	c #353635",
"K 	c #353535",
"L 	c #363536",
"M 	c #353536",
"N 	c #363535",
"O 	c #B1B1B1",
"P 	c #434343",
"Q 	c #353534",
"R 	c #343434",
"S 	c #353435",
"T 	c #353434",
"U 	c #343435",
"V 	c #343535",
"W 	c #343534",
"X 	c #343333",
"Y 	c #333434",
"Z 	c #343433",
"` 	c #343334",
" .	c #333334",
"..	c #333333",
"+.	c #333232",
"@.	c #323232",
"#.	c #333233",
"$.	c #323333",
"%.	c #323332",
"&.	c #323233",
"*.	c #333332",
"=.	c #323132",
"-.	c #313232",
";.	c #323231",
">.	c #313131",
",.	c #313231",
"'.	c #313132",
").	c #323131",
"!.	c #313130",
"~.	c #303131",
"{.	c #303031",
"].	c #303030",
"^.	c #313031",
"/.	c #303130",
"(.	c #313030",
". . . . . . . . . . . . . . . . . . . . . . . . . ",
"+ @ @ # @ # $ % @ $ + @ @ @ $ @ @ @ @ + $ @ @ @ @ ",
"& * % * * * * * * * * $ = * * * * & * % * & * * * ",
"- ; > , ' * * ) * - ' ; ' - ) ! > ; ; ! * ; - > > ",
"- ~ - ~ - - { ~ - - - ~ - - - - ] ~ { - - ~ - - - ",
"- ^ / / / / / ^ ( / ^ ~ / / / - ~ ^ _ ^ / / ( ( / ",
": < [ < } / / < | / / / : < / : 1 / [ [ < / [ / | ",
"} } } } } } } } } } } } } } } } } } } } } } } } } ",
"2 3 4 4 } 5 4 4 6 7 8 5 2 9 7 6 0 0 0 a 4 0 4 b 3 ",
"c d c 4 4 4 4 4 e f g h i g f e 4 c c j 4 4 c k l ",
"k l l j m m m m n g f o o f g n m m m m m m m l m ",
"p q r s t s r u v w o f f o x q u m p m s t q r m ",
"u y u u u u z u u A o f f o A u u u u u u B z u u ",
"C D u E C E F F G g f o o f g H y E C C E C C C F ",
"I J K C C L I C e f g H H g f e I I C I I L L M C ",
"K K K K K K K N O e P K K P e O K M K K K K J K K ",
"Q K R R R S S R T U V W R S U W Q V T W T R T R W ",
"R X Y R R R Z R ` R R Z R Z  .R R R Y R Y R ` ..X ",
"X .... .Y .... . . ... . .X  .X ` ..........Y ..X ",
"..+.@.#.@.#.$.%.@...&.......#.*...&.+.#.*.$.#.@.%.",
"=.@.@.-.@.@.@.@.@.@.@.@.@.@.@.@.@.;.@.;.@.;.@.@.-.",
">.;.>.>.,.;.'.-.,.).-.>.>.'.=.).).'.>.;.>.>.>.>.'.",
"!.>.>.~.~.!.{.>.>.].>.^.{.>.^.{.].^.^.~.>.>.!./.!.",
"{.].].].].].].].].].(.].].].].].].{.].].].].].].].",
"{.].].].].].].].].].(.].].].].].].{.].].].].].].]."};
