/* XPM */
static char * stuckfcs_dust_original_xpm[] = {
"8 8 41 1",
" 	c None",
".	c #3A2719",
"+	c #4E311E",
"@	c #4B2F1D",
"#	c #372518",
"$	c #734325",
"%	c #C5672E",
"&	c #D86B2D",
"*	c #D36A2C",
"=	c #B55E2A",
"-	c #5D3921",
";	c #432A18",
">	c #D56B2D",
",	c #D16525",
"'	c #CD6223",
")	c #C86022",
"!	c #C45D20",
"~	c #B65B26",
"{	c #382517",
"]	c #7F4725",
"^	c #DB6A26",
"/	c #C85F21",
"(	c #5A341C",
"_	c #894820",
":	c #DA6A26",
"<	c #C65D1F",
"[	c #63361A",
"}	c #593219",
"|	c #DC6A27",
"1	c #C35C1F",
"2	c #412715",
"3	c #A15120",
"4	c #D76725",
"5	c #D06324",
"6	c #CC6122",
"7	c #CA6021",
"8	c #83421B",
"9	c #67371A",
"0	c #9A4D1E",
"a	c #94491D",
"b	c #583118",
"  .+@#  ",
" $%&*=- ",
";>,')!~{",
"]^,')!/(",
"_:,')!<[",
"}|,')!12",
" 345678 ",
"  90ab  "};
