/* XPM */
static char * stuck_pressed_xpm[] = {
"21 21 110 2",
"  	c None",
". 	c #5C5C5C",
"+ 	c #616161",
"@ 	c #676767",
"# 	c #686868",
"$ 	c #797979",
"% 	c #A1A1A1",
"& 	c #A2A2A2",
"* 	c #A3A3A3",
"= 	c #787878",
"- 	c #A0A0A0",
"; 	c #747474",
"> 	c #989898",
", 	c #999999",
"' 	c #999898",
") 	c #9A9A9A",
"! 	c #9B9B9B",
"~ 	c #717171",
"{ 	c #909090",
"] 	c #929292",
"^ 	c #939393",
"/ 	c #949494",
"( 	c #707070",
"_ 	c #898989",
": 	c #8B8B8B",
"< 	c #8C8C8C",
"[ 	c #8D8D8D",
"} 	c #8E8E8E",
"| 	c #8F8F8F",
"1 	c #8A8A8A",
"2 	c #6C6C6C",
"3 	c #838383",
"4 	c #848484",
"5 	c #868686",
"6 	c #888888",
"7 	c #6A6A6A",
"8 	c #7D7D7D",
"9 	c #7F7F7F",
"0 	c #818181",
"a 	c #868585",
"b 	c #888787",
"c 	c #7E7E7E",
"d 	c #7C7C7C",
"e 	c #777777",
"f 	c #858585",
"g 	c #878787",
"h 	c #767676",
"i 	c #757575",
"j 	c #5D5D5D",
"k 	c #636363",
"l 	c #737373",
"m 	c #E0E0E0",
"n 	c #DCDCDC",
"o 	c #7B7B7B",
"p 	c #6B6B6B",
"q 	c #525252",
"r 	c #434343",
"s 	c #494949",
"t 	c #505050",
"u 	c #575757",
"v 	c #5F5F5F",
"w 	c #DDDDDD",
"x 	c #DADADA",
"y 	c #D7D7D7",
"z 	c #6F6F6F",
"A 	c #404040",
"B 	c #3E3E3E",
"C 	c #4D4D4D",
"D 	c #373737",
"E 	c #3C3C3C",
"F 	c #555555",
"G 	c #D8D8D8",
"H 	c #D5D5D5",
"I 	c #363636",
"J 	c #313131",
"K 	c #2F2F2F",
"L 	c #393939",
"M 	c #464646",
"N 	c #565656",
"O 	c #4E4E4E",
"P 	c #383838",
"Q 	c #343434",
"R 	c #424242",
"S 	c #484848",
"T 	c #4F4F4F",
"U 	c #D9D9D9",
"V 	c #414141",
"W 	c #3B3B3B",
"X 	c #353535",
"Y 	c #515151",
"Z 	c #444444",
"` 	c #575656",
" .	c #606060",
"..	c #646464",
"+.	c #3F3F3F",
"@.	c #4A4A4A",
"#.	c #535353",
"$.	c #595959",
"%.	c #454545",
"&.	c #5A5A5A",
"*.	c #5E5C5C",
"=.	c #474747",
"-.	c #595858",
";.	c #5A5757",
">.	c #585858",
",.	c #4C4C4C",
"'.	c #4B4B4B",
").	c #626262",
"!.	c #656565",
"~.	c #666666",
". + @ @ @ @ @ # # # # # # # @ # # # # # # ",
". $ % % % % & & & & & & & & * * * * * * * ",
". = - % % % & & & & % % & & & & & & & & & ",
". ; > , ' ) ) ! ! ! ! ) ! ) ) ) ) ) ) ) ) ",
". ~ { ] ] ] ^ / / / / / / / ^ ] ] ] ] ] ] ",
". ( _ : < [ [ } | { { { | } [ [ < : : 1 1 ",
". 2 3 4 5 6 _ 1 < [ [ [ < 1 _ 6 5 4 3 3 3 ",
". 7 8 9 0 3 a 6 _ 1 : 1 _ b 5 3 0 9 c 8 d ",
". # e $ d 9 3 f g 6 _ 6 g f 3 9 d $ = h i ",
"j k 2 ( l e d m n 4 4 4 n m o e l ( 2 p 7 ",
"j q r s t u v w x y z y x w v u t s r A B ",
"j C D E r C F . G y H y G . F C r E I J K ",
"j C L B M C N j k y y y k j N O M B P Q J ",
"j O E R S T u m n x U x n m u T S V W P X ",
". Y A Z s T ` .  .k ..k  .. N T S r +.E L ",
". q R M @.O #.$.. v + v . $.#.O s %.V +.B ",
". q %.S @.O q u &.. *.. &.u q O @.=.Z r R ",
". #.S @.C T q F u -.;.$.u F q T C s S M %.",
". F C O T q #.F u >.u u N F q Y O C ,.'.'.",
"+ + + ).k ..!.~.~.@ @ @ ~.~.!...k ).+ + + ",
"5 g g g g g 6 6 6 6 6 6 6 6 6 g g g g g g "};
