/* XPM */
static char * toolbar_focused_xpm[] = {
"21 21 40 1",
" 	c None",
".	c #434343",
"+	c #747474",
"@	c #737373",
"#	c #6D6D6D",
"$	c #6C6C6C",
"%	c #6B6B6B",
"&	c #656565",
"*	c #646464",
"=	c #5E5E5E",
"-	c #5F5F5F",
";	c #5D5D5D",
">	c #575757",
",	c #565656",
"'	c #515151",
")	c #505050",
"!	c #484848",
"~	c #494949",
"{	c #404040",
"]	c #424242",
"^	c #353535",
"/	c #343434",
"(	c #333333",
"_	c #323232",
":	c #070707",
"<	c #000000",
"[	c #010101",
"}	c #040404",
"|	c #050505",
"1	c #080808",
"2	c #090909",
"3	c #0D0D0D",
"4	c #101010",
"5	c #111111",
"6	c #151515",
"7	c #161616",
"8	c #1A1A1A",
"9	c #1F1F1F",
"0	c #202020",
"a	c #393939",
".....................",
"+++++++@@@@@@@@@@@@@@",
"####$$$$$$$$$$$$$$$%%",
"&&&&&&&&**&***&**&***",
"=-===--===========;;;",
">>>>>>>,,,>>>,,,,,,,,",
"'''''''''''''')))))))",
"!~~~~~!!!!!!!!!!!!!!!",
"{......]....]]]]]]]]]",
"^//////((((((((((____",
":::::::::::::::::::::",
"<<<<<<<<<<[[[[[[[[[[[",
"}}}}}||||||||||||||||",
"111122222222222222222",
"333333333333333333333",
"444444444444444445555",
"666666666666666677777",
"888888888888888888888",
"999999999990000000000",
"aaaaaaaaaaaaaaaaaaaaa",
";;;;;;;;;;;;;;;;;;;;;"};
