/* XPM */
static char *maxufcs[] = {
/* columns rows colors chars-per-pixel */
"22 22 22 1",
"  c #161615151414",
". c #1E1E1F1F1A1A",
"X c #1E1E20201B1B",
"o c #1F1F20201B1B",
"O c #212120201D1D",
"+ c #ACACACACACAC",
"@ c gray73",
"# c #C3C3C1C1C0C0",
"$ c #CFCFCFCFCECE",
"% c #D1D1D1D1D0D0",
"& c #D3D3D3D3D2D2",
"* c LightGray",
"= c gray84",
"- c #D7D7D7D7D7D7",
"; c #DADADADAD9D9",
": c #DBDBDBDBDADA",
"> c #DCDCDCDCDBDB",
", c gray87",
"< c #DFDFDFDFDFDF",
"1 c #E1E1E1E1E1E1",
"2 c gray89",
"3 c #E5E5E5E5E4E4",
/* pixels */
"                      ",
"OOOOOOOOOOOOOOOOOOOOOO",
"......................",
"XXXXXXXXXXXXXXXXXXXXXX",
"......................",
"oooooooooooooooooooooo",
"@@@@@@@@@@@@@@@@@@@@@@",
"3333333333333333333333",
"2222222222222222222222",
"1111111111111111111111",
"<<<<<<<<<<<<<<<<<<<<<<",
",,,,,,,,,,,,,,,,,,,,,,",
">>>>>>>>##>>>>>>>>>>>>",
":::::::####:::::::::::",
";;;;;;##;;##;;;;;;;;;;",
"-----##----##---------",
"======================",
"**********************",
"&&&&&&&&&&&&&&&&&&&&&&",
"%%%%%%%%%%%%%%%%%%%%%%",
"$$$$$$$$$$$$$$$$$$$$$$",
"++++++++++++++++++++++"
};
