/* XPM */
static char *minpr[] = {
/* columns rows colors chars-per-pixel */
"22 22 32 1",
"  c #161615151414",
". c #1E1E1F1F1A1A",
"X c #1E1E20201B1B",
"o c #1F1F20201B1B",
"O c #1F1F20201D1D",
"+ c #212120201D1D",
"@ c gray18",
"# c #515146463D3D",
"$ c #A9A9A9A9A9A9",
"% c #B7B7B7B7B7B7",
"& c gray74",
"* c #C0C0C0C0C0C0",
"= c #C6C6C6C6C6C6",
"- c #D0D0D0D0D0D0",
"; c gray82",
": c gray83",
"> c gray86",
", c #DDDDDDDDDDDD",
"< c #DFDFDFDFDFDF",
"1 c #E1E1E1E1E1E1",
"2 c #E2E2E2E2E2E2",
"3 c #E4E4E4E4E4E4",
"4 c gray90",
"5 c #E6E6E6E6E6E6",
"6 c #E9E9E9E9E9E9",
"7 c #EAEAEAEAEAEA",
"8 c gray92",
"9 c #EEEEEEEEEEEE",
"0 c #EFEFEFEFEFEF",
"q c #F1F1F1F1F1F1",
"w c #F3F3F3F3F3F3",
"e c gray96",
/* pixels */
"                      ",
"++++++++++++++++++++++",
"......................",
"XXXXXXXXXXXXXXXXXXXXXX",
"......................",
"oooooooooooooooooooooo",
"O=====================",
"$eeeeeeeeeeeeeeeeeeeee",
"$wwwwwwwwwwwwwwwwwwwww",
"$qqqqqqqqqqqqqqqqqqqqq",
"$000000000000000000000",
"$999999999999999999999",
"$888888:&388883&:88888",
"$777777-##:77:##-77777",
"$6666666;##**##;666666",
"$55555555>####>5555555",
"$4444444441##144444444",
"$222222222222222222222",
"$111111111111111111111",
"$<<<<<<<<<<<<<<<<<<<<<",
"$,,,,,,,,,,,,,,,,,,,,,",
"@%%%%%%%%%%%%%%%%%%%%%"
};
