/* XPM */
static char *stuckfcs[] = {
/* columns rows colors chars-per-pixel */
"22 22 32 1",
"  c #161615151414",
". c #1E1E1F1F1A1A",
"X c #1E1E20201B1B",
"o c #1F1F20201B1B",
"O c #1F1F20201D1D",
"+ c #212120201D1D",
"@ c #212122221E1E",
"# c #242425252121",
"$ c #262625252222",
"% c #262627272424",
"& c #272728282525",
"* c #282828282626",
"= c #282829292626",
"- c #2A2A2A2A2929",
"; c #2B2B2B2B2A2A",
": c #2B2B2D2D2C2C",
"> c #2D2D2D2D2D2D",
", c gray18",
"< c #5D655D655BA2",
"1 c #5DA85DA85CA6",
"2 c #5E655E655CA1",
"3 c #5EA85EA85DA6",
"4 c #5EAA5EAA5E29",
"5 c #5FAA5FAA5F29",
"6 c gray65",
"7 c gray73",
"8 c gray91",
"9 c #EAEAEAEAEAEA",
"0 c gray93",
"q c #EFEFEFEFEFEF",
"w c #F1F1F1F1F1F1",
"e c #F4F4F4F4F4F4",
/* pixels */
"                      ",
"++++++++++++++++++++++",
"......................",
"XXXXXXXXXXXXXXXXXXXXXX",
"......................",
"oooooooooooooooooooooo",
"OOOOOOOOOOOOOOOOOOOOOO",
"@@@@@@@@@@@@@@@@@@@@@@",
"@@@@@@@@@@@@@@@@@@@@@@",
"######################",
"########26776<########",
"$$$$$$$27wq097<$$$$$$$",
"%%%%%%%6ewq0986%%%%%%%",
"&&&&&&&7ewq0987&&&&&&&",
"=======7ewq0987=======",
"=======6ewq0986=======",
"*******37wq0971*******",
"--------567764--------",
";;;;;;;;;;;;;;;;;;;;;;",
"::::::::::::::::::::::",
">>>>>>>>>>>>>>>>>>>>>>",
",,,,,,,,,,,,,,,,,,,,,,"
};
