/* XPM */
static char * titlefcs_amaranth_929292_xpm[] = {
"22 22 26 1",
" 	c None",
".	c #CDCDCD",
"+	c #F5F5F5",
"@	c #EEEEEE",
"#	c #E7E7E7",
"$	c #E6E6E6",
"%	c #E5E5E5",
"&	c #E4E4E4",
"*	c #E4E2E3",
"=	c #E3E2E3",
"-	c #E3E2E2",
";	c #E2E1E1",
">	c #E1E1E1",
",	c #DFE0DF",
"'	c #DFE0E0",
")	c #DEDEDE",
"!	c #DBDBDB",
"~	c #D9D9D9",
"{	c #D7D7D7",
"]	c #D6D6D6",
"^	c #D4D4D4",
"/	c #D1D1D1",
"(	c #CFCFCF",
"_	c #CCCCCC",
":	c #C8C8C8",
"<	c #929292",
"......................",
"++++++++++++++++++++++",
"@@@@@@@@@@@@@@@@@@@@@@",
"######################",
"$$$$$$$$$$$$$$$$$$$$$$",
"######################",
"%%%%%%%%%%%%%%%%%%%%%%",
"&&&&&&&&&&&&&&&&&&&&&&",
"***=========----------",
";;;>>>>>>>>>>>>>>>>>>>",
",,,,,,,,,,,,''''''''''",
"))))))))))))))))))))))",
"!!!!!!!!!!!!!!!!!!!!!!",
"~~~~~~~~~~~~~~~~~~~~~~",
"{{{{{{{{{{{{{{{{{{{{{{",
"]]]]]]]]]]]]]]]]]]]]]]",
"^^^^^^^^^^^^^^^^^^^^^^",
"//////////////////////",
"((((((((((((((((((((((",
"______________________",
"::::::::::::::::::::::",
"<<<<<<<<<<<<<<<<<<<<<<"};
