/* XPM */
static char * titlefcs_gilouche_2f4862_xpm[] = {
"22 22 36 1",
" 	c #5A7C9F",
".	c #5B7C9F",
"+	c #6B9CCE",
"@	c #6B9CCD",
"#	c #6A9CCD",
"$	c #6A9ACD",
"%	c #6A9BCD",
"&	c #699BCC",
"*	c #699ACC",
"=	c #6091C5",
"-	c #6091C4",
";	c #5F91C4",
">	c #5F90C4",
",	c #5E90C3",
"'	c #5E8FC3",
")	c #5D8FC3",
"!	c #6192C5",
"~	c #6192C4",
"{	c #6092C5",
"]	c #6090C5",
"^	c #5F8FC4",
"/	c #5E90C4",
"(	c #6191C4",
"_	c #5F8FC3",
":	c #6396CB",
"<	c #6396CA",
"[	c #6296CA",
"}	c #6295CA",
"|	c #6195C9",
"1	c #6194C9",
"2	c #6094C9",
"3	c #4B719A",
"4	c #4B7199",
"5	c #4A7199",
"6	c #4A7099",
"7	c #497099",
"  ....................",
"+@#####$%%%%&&&&&*****",
"=-;;;;;>>>>>,,,,,'''')",
"!~{{{{=]====;;;;;>^>>/",
"!~{{{{=]====;;;;;>^>>/",
"!~{{{{=]====;;;;;>^>>/",
"!~{{{{=]====;;;;;>^>>/",
"!~{{{{=]====;;;;;>^>>/",
"!~{{{{=]====;;;;;>^>>/",
"!~{{{{=]====;;;;;>^>>/",
"!~{{{{=]====;;;;;>^>>/",
"!~{{{{=]====;;;;;>^>>/",
"!~{{{{=]====;;;;;>^>>/",
"!~{{{{=]====;;;;;>^>>/",
"!~{{{{=]====;;;;;>^>>/",
"!~{{{{=]====;;;;;>^>>/",
"!~{{{{=]====;;;;;>^>>/",
"!~{{{{=]====;;;;;>^>>/",
"!~{{{{=]====;;;;;>^>>/",
"=(-;;;;>>>>],,,,,,''_'",
":<[[[[[}}}}}|||||11112",
"3455555666667777777767"};
