/* XPM */
static char * stuckufcs_original_xpm[] = {
"8 8 30 1",
" 	c None",
".	c #6C5D3F",
"+	c #816B41",
"@	c #81673D",
"#	c #6D5536",
"$	c #807248",
"%	c #897342",
"&	c #896F3D",
"*	c #886A37",
"=	c #886532",
"-	c #805D33",
";	c #6B6141",
">	c #897948",
",	c #88612C",
"'	c #6B4D2D",
")	c #80744B",
"!	c #805929",
"~	c #807449",
"{	c #887948",
"]	c #887342",
"^	c #886F3D",
"/	c #7F5827",
"(	c #695E3D",
"_	c #684927",
":	c #7F6F43",
"<	c #7F5A2B",
"[	c #685837",
"}	c #806839",
"|	c #7F6336",
"1	c #684F2D",
"  .+@#  ",
" $%&*=- ",
";>%&*=,'",
")>%&*=,!",
"~{]^*=,/",
"({]^*=,_",
" :]^*=< ",
"  [}|1  "};
