/* XPM */
static char *maxpr[] = {
/* columns rows colors chars-per-pixel */
"22 22 30 1",
"  c #515146463D3D",
". c #4D4D4C4C4747",
"X c #50504E4E4A4A",
"o c #525251514C4C",
"O c #545453534F4F",
"+ c #585857575252",
"@ c #5A5A5A5A5555",
"# c #B7B7B7B7B7B7",
"$ c #B9B9B9B9B9B9",
"% c gray76",
"& c #C6C6C6C6C6C6",
"* c gray81",
"= c gray82",
"- c #D2D2D2D2D2D2",
"; c #DDDDDDDDDDDD",
": c #DFDFDFDFDFDF",
"> c gray88",
", c #E1E1E1E1E1E1",
"< c #E2E2E2E2E2E2",
"1 c gray90",
"2 c #E6E6E6E6E6E6",
"3 c #E9E9E9E9E9E9",
"4 c #EAEAEAEAEAEA",
"5 c gray92",
"6 c #ECECECECECEC",
"7 c #EEEEEEEEEEEE",
"8 c #EFEFEFEFEFEF",
"9 c #F1F1F1F1F1F1",
"0 c #F3F3F3F3F3F3",
"q c gray96",
/* pixels */
"@@@@@@@@@@@@@@@@@@@@@@",
"++++++++++++++++++++++",
"OOOOOOOOOOOOOOOOOOOOOO",
"oooooooooooooooooooooo",
"XXXXXXXXXXXXXXXXXXXXXX",
"......................",
"&&&&&&&&&&&&&&&&&&&&&&",
"qqqqqqqqqqqqqqqqqqqqqq",
"0000000000000000000000",
"9999999999999999999999",
"8888888888888888888888",
"7777777777777777777777",
"55555556  655555555555",
"444444>    >4444444444",
"33333-  %%  -333333333",
"2222*  =22=  *22222222",
"1111=$;1111;$=11111111",
"<<<<<<<<<<<<<<<<<<<<<<",
",,,,,,,,,,,,,,,,,,,,,,",
"::::::::::::::::::::::",
";;;;;;;;;;;;;;;;;;;;;;",
"######################"
};
