/* XPM */
static char *stickpr[] = {
/* columns rows colors chars-per-pixel */
"22 22 27 1",
"  c #3C3C3B3B3737",
". c #3E3E3D3D3939",
"X c #414140403C3C",
"o c #434342423E3E",
"O c #464645454040",
"+ c #484847474343",
"@ c #4B4B4A4A4545",
"# c #4D4D4C4C4747",
"$ c #50504E4E4A4A",
"% c #525251514C4C",
"& c #545453534F4F",
"* c #585857575252",
"= c #5A5A5A5A5555",
"- c #67BC673B6537",
"; c #68BC683B6637",
": c #69BE693D6739",
"> c #6ABE6A3D6839",
", c #6BC16B40693C",
"< c #6CC16C406A3C",
"1 c gray65",
"2 c gray73",
"3 c gray91",
"4 c #EAEAEAEAEAEA",
"5 c gray93",
"6 c #EFEFEFEFEFEF",
"7 c #F1F1F1F1F1F1",
"8 c #F4F4F4F4F4F4",
/* pixels */
"======================",
"**********************",
"&&&&&&&&&&&&&&&&&&&&&&",
"%%%%%%%%%%%%%%%%%%%%%%",
"$$$$$$$$$$$$$$$$$$$$$$",
"######################",
"@@@@@@@@@@@@@@@@@@@@@@",
"++++++++++++++++++++++",
"OOOOOOOOOOOOOOOOOOOOOO",
"oooooooooooooooooooooo",
"XXXXXXXX<1221,XXXXXXXX",
".......>276542:.......",
"       18765431       ",
"       28765432       ",
"       28765432       ",
"       18765431       ",
"       ;276542-       ",
"        ;1221-        ",
"                      ",
"                      ",
"                      ",
"                      "
};
