/* XPM */
static char * bar1_xpm[] = {
"20 20 49 1",
" 	g None",
".	g #666666",
"+	g #656565",
"@	g #636363",
"#	g #626262",
"$	g #5D5D5D",
"%	g #5E5E5E",
"&	g #5C5C5C",
"*	g #585858",
"=	g #575757",
"-	g #535353",
";	g #525252",
">	g #4E4E4E",
",	g #4D4D4D",
"'	g #494949",
")	g #484848",
"!	g #444444",
"~	g #434343",
"{	g #3F3F3F",
"]	g #3E3E3E",
"^	g #3D3D3D",
"/	g #3A3A3A",
"(	g #393939",
"_	g #343434",
":	g #353535",
"<	g #333333",
"[	g #2F2F2F",
"}	g #303030",
"|	g #2E2E2E",
"1	g #2B2B2B",
"2	g #2A2A2A",
"3	g #252525",
"4	g #262626",
"5	g #242424",
"6	g #202020",
"7	g #1F1F1F",
"8	g #1C1C1C",
"9	g #1B1B1B",
"0	g #1A1A1A",
"a	g #161616",
"b	g #151515",
"c	g #111111",
"d	g #101010",
"e	g #0C0C0C",
"f	g #0D0D0D",
"g	g #0B0B0B",
"h	g #060606",
"i	g #070707",
"j	g #050505",
"....+...+.+.+.+.+.++",
"@@#@######@#########",
"$%$$%$$$$$$$$$$$&$$$",
"************=**=*===",
"------------------;-",
">>>>>>>,>,,,,,,,>,,>",
"''')'''')'))''))))))",
"!!!!!~!!~!!!~~!!~~~~",
"{{{]]]]{{]]]{]]]]^]]",
"//(////((/((((((/(((",
"_:::::_____________<",
"[}[[}[[[[[[[[[[[|[|[",
"11112211222222222222",
"33343433333353355333",
"66666666666677666666",
"88889999999999909909",
"aaaaaaaaaabaabbbbbbb",
"cccccccccccccddddccd",
"eefeeeeeggeeeegggggg",
"hihiiiihhhhihhhhjhhh"};
