/* XPM */
static char * stick2a_xpm[] = {
"20 20 65 1",
" 	g None",
".	g #898989",
"+	g #A5A5A5",
"@	g #000000",
"#	g #A8A8A8",
"$	g #656565",
"%	g #8F8F8F",
"&	g #909090",
"*	g #AAAAAA",
"=	g #ADADAD",
"-	g #626262",
";	g #939393",
">	g #949494",
",	g #B0B0B0",
"'	g #5D5D5D",
")	g #919191",
"!	g #ABABAB",
"~	g #AEAEAE",
"{	g #575757",
"]	g #8E8E8E",
"^	g #A9A9A9",
"/	g #ACACAC",
"(	g #535353",
"_	g #A7A7A7",
":	g #858585",
"<	g #A1A1A1",
"[	g #FFFFFF",
"}	g #848484",
"|	g #A3A3A3",
"1	g #808080",
"2	g #9E9E9E",
"3	g #7C7C7C",
"4	g #9B9B9B",
"5	g #787878",
"6	g #989898",
"7	g #EDEDED",
"8	g #EEEEEE",
"9	g #747474",
"0	g #757575",
"a	g #959595",
"b	g #D8D8D8",
"c	g #D9D9D9",
"d	g #8C8C8C",
"e	g #707070",
"f	g #929292",
"g	g #C0C0C0",
"h	g #BFBFBF",
"i	g #717171",
"j	g #6D6D6D",
"k	g #A2A2A2",
"l	g #7F7F7F",
"m	g #6B6B6B",
"n	g #6A6A6A",
"o	g #9A9A9A",
"p	g #676767",
"q	g #8B8B8B",
"r	g #9D9D9D",
"s	g #727272",
"t	g #6E6E6E",
"u	g #737373",
"v	g #797979",
"w	g #767676",
"x	g #878787",
"y	g #A4A4A4",
"z	g #818181",
".....+@..#@$$$$$$$$$",
"%&%&%*@%&=@---------",
";>;>;=@>>>,@''''''''",
")&)&)!@))))~@@@@@@{{",
"]]]]]^@]]]]]//////@(",
".....+@@@@@......._@",
":::::<@[[[[@}}}}::|@",
"111112@[[[[[@111112@",
"333334@[[[[[[@33334@",
"555556@7787777@555;@",
"99090a@bbbbcbbb@99d@",
"eeeeef@ghhghghh@ie}@",
"jjjjj&@k|kk|kk|@jjl@",
"mnmnmm]@4o44444@nm5@",
"pppppppq@2rrrrr@pps@",
"ppppppppq@~~~~@qppt@",
"mnnnnnnn]@@@@@]mmnt@",
"iiiiiiii;@;;;;iiiiu@",
"5vv5vv5v6@v5vv555vw@",
"xxxxxxxxy@xxxxxxxxz@"};
