/* XPM */
static char * stick1a_xpm[] = {
"20 20 70 1",
" 	g None",
".	g #606060",
"+	g #787878",
"@	g #000000",
"#	g #7C7C7C",
"$	g #666666",
"%	g #636363",
"&	g #646464",
"*	g #7A7A7A",
"=	g #8D8D8D",
"-	g #626262",
";	g #656565",
">	g #898989",
",	g #8E8E8E",
"'	g #5D5D5D",
")	g #888888",
"!	g #8C8C8C",
"~	g #575757",
"{	g #868686",
"]	g #8A8A8A",
"^	g #525252",
"/	g #848484",
"(	g #5B5B5B",
"_	g #828282",
":	g #FFFFFF",
"<	g #585858",
"[	g #808080",
"}	g #565656",
"|	g #7F7F7F",
"1	g #7E7E7E",
"2	g #545454",
"3	g #7D7D7D",
"4	g #EDEDED",
"5	g #EEEEEE",
"6	g #767676",
"7	g #515151",
"8	g #7B7B7B",
"9	g #D8D8D8",
"0	g #D9D9D9",
"a	g #6F6F6F",
"b	g #4E4E4E",
"c	g #797979",
"d	g #C0C0C0",
"e	g #BFBFBF",
"f	g #4F4F4F",
"g	g #676767",
"h	g #4C4C4C",
"i	g #777777",
"j	g #A2A2A2",
"k	g #A3A3A3",
"l	g #616161",
"m	g #4A4A4A",
"n	g #9B9B9B",
"o	g #9A9A9A",
"p	g #5A5A5A",
"q	g #474747",
"r	g #737373",
"s	g #9E9E9E",
"t	g #9D9D9D",
"u	g #444444",
"v	g #717171",
"w	g #AEAEAE",
"x	g #4D4D4D",
"y	g #454545",
"z	g #727272",
"A	g #494949",
"B	g #696969",
"C	g #757575",
"D	g #4B4B4B",
"E	g #5E5E5E",
".....+@..#@$$$$$$$$$",
"%%%&%*@&&=@---------",
"&&&;&>@;;;,@''''''''",
"-----)@----!@@@@@@~~",
".....{@.....]]]]]]@^",
"'''''/@@@@@'''''''{@",
"(((((_@::::@((((((/@",
"<<<<<[@:::::@<<<<<[@",
"}}}}}|@::::::@}}}}1@",
"222223@4454444@2226@",
"777778@99990999@77a@",
"bbbbbc@deededee@fbg@",
"hhhhhi@jkjjkjjk@hhl@",
"mmmmmm6@nonnnnn@mmp@",
"qqqqqqqr@sttttt@qq2@",
"uuuuuuuuv@wwww@vuux@",
"yyyyyyyyz@@@@@zyyym@",
"AAAAAAAAB@CCCCAAAAD@",
"hhhhhhhh}@hhhhhhhhA@",
"ppppppppE@pppppppp^@"};
