/* XPM */
static char * 00_xpm[] = {
"19 19 50 1",
" 	c None",
".	c #AFAFAF",
"+	c #8B8B8B",
"@	c #919191",
"#	c #909090",
"$	c #8F8F8F",
"%	c #8E8E8E",
"&	c #8D8D8D",
"*	c #8C8C8C",
"=	c #838383",
"-	c #898989",
";	c #888888",
">	c #878787",
",	c #868686",
"'	c #858585",
")	c #848484",
"!	c #7B7B7B",
"~	c #818181",
"{	c #808080",
"]	c #7F7F7F",
"^	c #7E7E7E",
"/	c #7D7D7D",
"(	c #7C7C7C",
"_	c #737373",
":	c #6F6F6F",
"<	c #6E6E6E",
"[	c #6B6B6B",
"}	c #3B3B3B",
"|	c #3A3A3A",
"1	c #393939",
"2	c #383838",
"3	c #636363",
"4	c #343434",
"5	c #333333",
"6	c #323232",
"7	c #5B5B5B",
"8	c #2E2E2E",
"9	c #2D2D2D",
"0	c #2C2C2C",
"a	c #2B2B2B",
"b	c #535353",
"c	c #262626",
"d	c #252525",
"e	c #242424",
"f	c #3E3E3E",
"g	c #181818",
"h	c #171717",
"i	c #202020",
"j	c #0D0D0D",
"k	c #0B0B0B",
"...................",
"+@@###$%$%%&&&***++",
"=-;;;>>>>,,''))))==",
"!~~{{{]]^^/^//((!!!",
"_:::<<<<<<<<<<<<<<_",
"[}}|||111222111222[",
"3444456566666566663",
"78899900aaaa00aaaa7",
"bcddddeeeeeeeeeeeeb",
"fggggghhhhhhhhhhhhf",
"ijjjjjjjjjjjjjjjjji",
"ikkkkkkkkkkkkkkkkki",
"ikkkkkkkkkkkkkkkkki",
"ikkkkkkkkkkkkkkkkki",
"ikkkkkkkkkkkkkkkkki",
"iiiiiiiiiiiiiiiiiii",
"iiiiiiiiiiiiiiiiiii",
"iiiiiiiiiiiiiiiiiii",
"iiiiiiiiiiiiiiiiiii"};
