/* XPM */
static char * minufcs_xpm[] = {
"19 19 47 1",
" 	c None",
".	c #AFAFAF",
"+	c #8B8B8B",
"@	c #919191",
"#	c #909090",
"$	c #8F8F8F",
"%	c #8E8E8E",
"&	c #8D8D8D",
"*	c #8C8C8C",
"=	c #838383",
"-	c #898989",
";	c #888888",
">	c #878787",
",	c #868686",
"'	c #858585",
")	c #848484",
"!	c #7B7B7B",
"~	c #818181",
"{	c #808080",
"]	c #7F7F7F",
"^	c #7E7E7E",
"/	c #7D7D7D",
"(	c #7C7C7C",
"_	c #6E6E6E",
":	c #6F6F6F",
"<	c #737373",
"[	c #383838",
"}	c #6B6B6B",
"|	c #343434",
"1	c #333333",
"2	c #323232",
"3	c #636363",
"4	c #2E2E2E",
"5	c #2D2D2D",
"6	c #2C2C2C",
"7	c #2B2B2B",
"8	c #5B5B5B",
"9	c #262626",
"0	c #252525",
"a	c #242424",
"b	c #535353",
"c	c #171717",
"d	c #181818",
"e	c #3E3E3E",
"f	c #0D0D0D",
"g	c #202020",
"h	c #0B0B0B",
"...................",
"+@@###$%$%%&&&***++",
"=-;;;>>>>,,''))))==",
"!~~{{{]]^^/^//((!!!",
"_:::______________<",
"[[[[[[[[[[[[[[[[[[}",
"|||||12122222122223",
"4445566666666677778",
"99000aaaaaaaaaaaaab",
"cdddddcccccdcccccce",
"fffff+++++++ffffffg",
"hhhhh+++++++fhhhhhg",
"hhhhhhhhhhhhhhhhhhg",
"hhhhhhhhhhhhhhhhhhg",
"hhhhhhhhhhhhhhhhhhg",
"ggggggggggggggggggg",
"ggggggggggggggggggg",
"ggggggggggggggggggg",
"ggggggggggggggggggg"};
