/* XPM */
static char * tbarufcs_xpm[] = {
"19 19 35 1",
" 	c None",
".	c #939393",
"+	c #404040",
"@	c #3F3F3F",
"#	c #3E3E3E",
"$	c #3D3D3D",
"%	c #3B3B3B",
"&	c #3C3C3C",
"*	c #3A3A3A",
"=	c #393939",
"-	c #383838",
";	c #373737",
">	c #363636",
",	c #353535",
"'	c #343434",
")	c #333333",
"!	c #323232",
"~	c #313131",
"{	c #303030",
"]	c #2F2F2F",
"^	c #2E2E2E",
"/	c #2D2D2D",
"(	c #2C2C2C",
"_	c #2B2B2B",
":	c #2A2A2A",
"<	c #292929",
"[	c #282828",
"}	c #272727",
"|	c #262626",
"1	c #242424",
"2	c #232323",
"3	c #222222",
"4	c #212121",
"5	c #181818",
"6	c #0B0B0B",
"...................",
"+++@@@#######$$$$$$",
"%&%%%******=====---",
"---;;;;;>>>>>>>>,,,",
"'''''')!)!!!~~~~~~~",
"{{{]]]]]^^^^^^^^^^/",
"((((((((____:::<<<<",
"[[}}}}}}}|}||||||||",
"1111112222333333334",
"5555555555555555555",
"6666666666666666666",
"6666666666666666666",
"6666666666666666666",
"6666666666666666666",
"6666666666666666666",
"6666666666666666666",
"6666666666666666666",
"6666666666666666666",
"6666666666666666666"};
