/* XPM */
static char * close_focus_xpm[] = {
"19 19 41 1",
" 	c None",
".	c #8E8E8E",
"+	c #424242",
"@	c #434343",
"#	c #444444",
"$	c #535353",
"%	c #3E3E3E",
"&	c #3F3F3F",
"*	c #404040",
"=	c #3A3A3A",
"-	c #3B3B3B",
";	c #3C3C3C",
">	c #3D3D3D",
",	c #363636",
"'	c #373737",
")	c #383838",
"!	c #393939",
"~	c #333333",
"{	c #343434",
"]	c #353535",
"^	c #2F2F2F",
"/	c #E7E7E7",
"(	c #A7A7A7",
"_	c #313131",
":	c #2C2C2C",
"<	c #2D2D2D",
"[	c #2E2E2E",
"}	c #272727",
"|	c #282828",
"1	c #292929",
"2	c #2A2A2A",
"3	c #242424",
"4	c #252525",
"5	c #323232",
"6	c #262626",
"7	c #202020",
"8	c #212121",
"9	c #222222",
"0	c #1E1E1E",
"a	c #1F1F1F",
"b	c #141414",
"...................",
"++++++@@@@@@@#####$",
"%%%%%%%&&&&&&&****$",
"==-------;;;;;;;>>$",
",,,''''''')))))))!$",
"~~~~{{{{{{{{]]]]]]$",
"^^^^^^//(+(//_____$",
"::::::///(///<[[[[$",
"}}||||!/////~11122$",
"3334445/////~66666$",
"777788///(///99999$",
"000000//(5(//aaaaa$",
"$$$$$$$$$$$$$$$$$$$",
"666}}}}}}}}}}}||||$",
"$$$$$$$$$$$$$$$$$$$",
"5~~~~~~~~~~~{{{{{{$",
"$$$$$$$$$$$$$$$$$$$",
"&&&&&&&&&&********$",
"bbbbbbbbbbbbbbbbbb$"};
