/* XPM */
static char * close2_xpm[] = {
"20 20 37 1",
" 	c #898989",
".	c #000000",
"+	c #A4A4A4",
"@	c #8F8F8F",
"#	c #A8A8A8",
"$	c #909090",
"%	c #939393",
"&	c #949494",
"*	c #ABABAB",
"=	c #919191",
"-	c #A9A9A9",
";	c #8E8E8E",
">	c #848484",
",	c #858585",
"'	c #A0A0A0",
")	c #808080",
"!	c #9D9D9D",
"~	c #7C7C7C",
"{	c #9A9A9A",
"]	c #787878",
"^	c #979797",
"/	c #747474",
"(	c #757575",
"_	c #707070",
":	c #717171",
"<	c #6D6D6D",
"[	c #6B6B6B",
"}	c #6A6A6A",
"|	c #8C8C8C",
"1	c #8D8D8D",
"2	c #676767",
"3	c #8A8A8A",
"4	c #868686",
"5	c #878787",
"6	c #797979",
"7	c #989898",
"8	c #A2A2A2",
"       .+           ",
"@@@@@@@.#@@@@@$@@@@$",
"%&&%%%&.*&%&%%&&%%%&",
"$=====$.-==$==$===$=",
";;;;;;;.#;;;;##;;;;;",
"       .+   +..+    ",
">>,,>>>.'>>'.,>.'>,>",
")))))))).!!.)).!))))",
"~~~~~~~~~..~~.{~~~~~",
"]]]]]]]]]]]].^]]]]]]",
"///(///(//(/.&//////",
"_________..:_.=_____",
"<<<<<<<<.;;.<<.;<<<<",
"[[[}}}}.|}}1.}[.1[}[",
"22222..322223...3222",
"2222.4422222244.4222",
"[}[}.5}}}}}[}}}.4[[}",
"::::.@:::::::::.@:::",
"]]]6.7]6]66]]]].^6]6",
"5555.8555555555.8555"};
