/* XPM */
static char * stick2_xpm[] = {
"20 20 55 1",
" 	g None",
".	g #898989",
"+	g #A5A5A5",
"@	g #000000",
"#	g #A8A8A8",
"$	g #666666",
"%	g #8F8F8F",
"&	g #909090",
"*	g #AAAAAA",
"=	g #ADADAD",
"-	g #636363",
";	g #939393",
">	g #949494",
",	g #B0B0B0",
"'	g #5E5E5E",
")	g #919191",
"!	g #ABABAB",
"~	g #AEAEAE",
"{	g #585858",
"]	g #8E8E8E",
"^	g #A9A9A9",
"/	g #ACACAC",
"(	g #535353",
"_	g #A7A7A7",
":	g #858585",
"<	g #A1A1A1",
"[	g #848484",
"}	g #A3A3A3",
"|	g #808080",
"1	g #9E9E9E",
"2	g #7C7C7C",
"3	g #9B9B9B",
"4	g #787878",
"5	g #989898",
"6	g #747474",
"7	g #757575",
"8	g #959595",
"9	g #8C8C8C",
"0	g #707070",
"a	g #929292",
"b	g #717171",
"c	g #6D6D6D",
"d	g #7F7F7F",
"e	g #6B6B6B",
"f	g #6A6A6A",
"g	g #676767",
"h	g #8B8B8B",
"i	g #727272",
"j	g #6E6E6E",
"k	g #737373",
"l	g #797979",
"m	g #767676",
"n	g #878787",
"o	g #A4A4A4",
"p	g #818181",
".....+@..#@$$$$$$$$$",
"%&%&%*@%&=@---------",
";>;>;=@>>>,@''''''''",
")&)&)!@))))~@@@@@@{{",
"]]]]]^@]]]]]//////@(",
".....+@@@@@......._@",
":::::<@<<<<@[[[[::}@",
"|||||1@||||1@|||||1@",
"222223@222223@22223@",
"444445@4444445@444;@",
"666678@66676668@669@",
"00000a@0000000a@b0[@",
"ccccc&@ccccccc&@ccd@",
"efefee]@fefefe]@fe4@",
"gggggggh@gggggh@ggi@",
"ggggggggh@gggg@hggj@",
"efefffff]@@@@@]eefj@",
"bbbbbbbb;@;;;;bbbbk@",
"4444ll4l5@l4ll444lm@",
"nnnnnnnno@nnnnnnnnp@"};
