/* XPM */
static char * max_xpm[] = {
"20 20 4 1",
" 	c None",
".	c #FFFFFF",
"+	c #222222",
"@	c #000000",
"....................",
"++++++++++++++++++++",
"++++++++++++++++++++",
"++++++++++++++++++++",
"++++++++++++++++++++",
"++++++++++++++++++++",
"++++++++++++++++++++",
"++++++++++++++++++++",
"++++++++++++++++++++",
"++++++++++++++++++++",
"++++++++++.+++++++++",
"+++++++++.+.@+++++++",
"++++++++.++@.@++++++",
"++++++++++@+++@+++++",
"++++++++++++++++++++",
"++++++++++++++++++++",
"++++++++++++++++++++",
"++++++++++++++++++++",
"++++++++++++++++++++",
"++++++++++++++++++++"};
