/* XPM */
static char *minpr[] = {
/* columns rows colors chars-per-pixel */
"22 22 33 1",
"  c #3C3C3B3B3737",
". c #515146463D3D",
"X c #4B4B4A4A4545",
"o c #4D4D4C4C4747",
"O c #50504E4E4A4A",
"+ c #525251514C4C",
"@ c #545453534F4F",
"# c #585857575252",
"$ c #5A5A5A5A5555",
"% c #A9A9A9A9A9A9",
"& c #B7B7B7B7B7B7",
"* c gray74",
"= c #C0C0C0C0C0C0",
"- c #C6C6C6C6C6C6",
"; c #D0D0D0D0D0D0",
": c gray82",
"> c gray83",
", c gray86",
"< c #DDDDDDDDDDDD",
"1 c #DFDFDFDFDFDF",
"2 c #E1E1E1E1E1E1",
"3 c #E2E2E2E2E2E2",
"4 c #E4E4E4E4E4E4",
"5 c gray90",
"6 c #E6E6E6E6E6E6",
"7 c #E9E9E9E9E9E9",
"8 c #EAEAEAEAEAEA",
"9 c gray92",
"0 c #EEEEEEEEEEEE",
"q c #EFEFEFEFEFEF",
"w c #F1F1F1F1F1F1",
"e c #F3F3F3F3F3F3",
"r c gray96",
/* pixels */
"$$$$$$$$$$$$$$$$$$$$$$",
"######################",
"@@@@@@@@@@@@@@@@@@@@@@",
"++++++++++++++++++++++",
"OOOOOOOOOOOOOOOOOOOOOO",
"oooooooooooooooooooooo",
"X---------------------",
"%rrrrrrrrrrrrrrrrrrrrr",
"%eeeeeeeeeeeeeeeeeeeee",
"%wwwwwwwwwwwwwwwwwwwww",
"%qqqqqqqqqqqqqqqqqqqqq",
"%000000000000000000000",
"%999999>*499994*>99999",
"%888888;..>88>..;88888",
"%7777777:..==..:777777",
"%66666666,....,6666666",
"%5555555552..255555555",
"%333333333333333333333",
"%222222222222222222222",
"%111111111111111111111",
"%<<<<<<<<<<<<<<<<<<<<<",
" &&&&&&&&&&&&&&&&&&&&&"
};
