/* XPM */
static char * close_focus_xpm[] = {
"19 19 69 1",
" 	c None",
".	c #767676",
"+	c #525252",
"@	c #393939",
"#	c #313131",
"$	c #101010",
"%	c #0F0F0F",
"&	c #111111",
"*	c #171717",
"=	c #242424",
"-	c #454B4F",
";	c #8698A5",
">	c #3D4347",
",	c #303030",
"'	c #121212",
")	c #141414",
"!	c #1A1A1A",
"~	c #272727",
"{	c #474C50",
"]	c #3C4246",
"^	c #2F2F2F",
"/	c #161616",
"(	c #151515",
"_	c #CDE6F5",
":	c #B8D1E0",
"<	c #1D1D1D",
"[	c #2A2A2A",
"}	c #444749",
"|	c #36393B",
"1	c #191919",
"2	c #1B1B1B",
"3	c #212121",
"4	c #2D2D2D",
"5	c #474A4C",
"6	c #343739",
"7	c #1E1E1E",
"8	c #BED6E6",
"9	c #202020",
"0	c #262626",
"a	c #323232",
"b	c #4B4E50",
"c	c #323537",
"d	c #2B2B2B",
"e	c #232323",
"f	c #2C2C2C",
"g	c #515456",
"h	c #303335",
"i	c #292929",
"j	c #2E2E2E",
"k	c #363636",
"l	c #434343",
"m	c #5B5D5F",
"n	c #2E3133",
"o	c #3F3F3F",
"p	c #414141",
"q	c #474747",
"r	c #676A6C",
"s	c #2D3032",
"t	c #6B7278",
"u	c #6C7379",
"v	c #6E767B",
"w	c #737B80",
"x	c #7D868D",
"y	c #2B2E30",
"z	c #2A2C2F",
"A	c #222222",
"B	c #9FC6E2",
"C	c #282B2D",
"D	c #26292B",
"...................",
"+++++++++++++++++++",
"@@@@@@@@@@@@@@@@@@@",
"###################",
"$$$$%%%%%%%%&*=-;>,",
"'''''''''''')!~{;]^",
"//(((_:(((:_*<[};|^",
"11111:_:1:_:2345;64",
"7777778___:790ab;cd",
"======e___==0f@g;hi",
"jjjjjj:___:j,klm;n~",
"ooooo:_:o:_:pq+r;s0",
"ttttt_:ttt:_uvwx;y=",
";;;;;;;;;;;;;;;;;zA",
"BBBBBBBBBBBBBBBBBC9",
"7777777777777DDDD77",
"<<<<<<<<<<<<<<<<<<<",
"2222222222222222222",
"1111111111111111111"};
