/* XPM */
static char * hilite_menu_xpm[] = {
"40 19 354 2",
"  	c None",
". 	c #000101",
"+ 	c #010102",
"@ 	c #020303",
"# 	c #030505",
"$ 	c #050708",
"% 	c #06090A",
"& 	c #080B0C",
"* 	c #0A0D0F",
"= 	c #0C1012",
"- 	c #0E1215",
"; 	c #101518",
"> 	c #12171A",
", 	c #13191C",
"' 	c #141A1E",
") 	c #161C20",
"! 	c #161D22",
"~ 	c #181E23",
"{ 	c #181F23",
"] 	c #192024",
"^ 	c #192025",
"/ 	c #181F24",
"( 	c #171E22",
"_ 	c #161D21",
": 	c #151B1F",
"< 	c #14191D",
"[ 	c #12171B",
"} 	c #101618",
"| 	c #0F1316",
"1 	c #0D1113",
"2 	c #0B0E10",
"3 	c #090B0D",
"4 	c #07090A",
"5 	c #040506",
"6 	c #010202",
"7 	c #020203",
"8 	c #030405",
"9 	c #050607",
"0 	c #090C0E",
"a 	c #0F1416",
"b 	c #1A2126",
"c 	c #1C242A",
"d 	c #1E272D",
"e 	c #20292F",
"f 	c #212B32",
"g 	c #222D33",
"h 	c #232E35",
"i 	c #252F36",
"j 	c #253037",
"k 	c #253036",
"l 	c #242F35",
"m 	c #232D34",
"n 	c #222C32",
"o 	c #202A30",
"p 	c #1F282E",
"q 	c #1D252B",
"r 	c #1A2227",
"s 	c #151C20",
"t 	c #12181C",
"u 	c #101417",
"v 	c #0C1013",
"w 	c #0A0D0E",
"x 	c #07090B",
"y 	c #080B0D",
"z 	c #182024",
"A 	c #1C252A",
"B 	c #242E35",
"C 	c #273239",
"D 	c #29363D",
"E 	c #2B3841",
"F 	c #2E3B44",
"G 	c #2F3D46",
"H 	c #313F48",
"I 	c #32414A",
"J 	c #33414A",
"K 	c #33424C",
"L 	c #33424B",
"M 	c #32414B",
"N 	c #314049",
"O 	c #303E47",
"P 	c #2F3C45",
"Q 	c #2C3941",
"R 	c #2A373E",
"S 	c #28333B",
"T 	c #242F36",
"U 	c #212A31",
"V 	c #1D262B",
"W 	c #192125",
"X 	c #101519",
"Y 	c #060708",
"Z 	c #060809",
"` 	c #29353D",
" .	c #35454F",
"..	c #384853",
"+.	c #3A4B56",
"@.	c #3C4E5A",
"#.	c #3E505C",
"$.	c #3F535E",
"%.	c #40545F",
"&.	c #415561",
"*.	c #425562",
"=.	c #425662",
"-.	c #425561",
";.	c #415460",
">.	c #40535F",
",.	c #3F515D",
"'.	c #3E4F5B",
").	c #3B4D57",
"!.	c #394A55",
"~.	c #364651",
"{.	c #2A363E",
"].	c #253138",
"^.	c #192126",
"/.	c #1C2429",
"(.	c #2B373F",
"_.	c #374852",
":.	c #3C4E59",
"<.	c #445865",
"[.	c #485C6A",
"}.	c #4A5F6D",
"|.	c #4C6170",
"1.	c #4D6472",
"2.	c #4E6573",
"3.	c #4F6675",
"4.	c #506877",
"5.	c #516877",
"6.	c #506776",
"7.	c #4D6371",
"8.	c #4B616F",
"9.	c #495E6C",
"0.	c #465A67",
"a.	c #435663",
"b.	c #3E505B",
"c.	c #394A54",
"d.	c #0F1417",
"e.	c #263239",
"f.	c #303E46",
"g.	c #384954",
"h.	c #475C69",
"i.	c #4C6371",
"j.	c #536C7B",
"k.	c #576F80",
"l.	c #597283",
"m.	c #5A7484",
"n.	c #5B7686",
"o.	c #5C7888",
"p.	c #5C7889",
"q.	c #5D788A",
"r.	c #5D798B",
"s.	c #5F7A8B",
"t.	c #5E7A8B",
"u.	c #5E798A",
"v.	c #5B7687",
"w.	c #5A7686",
"x.	c #5A7485",
"y.	c #587182",
"z.	c #556E7E",
"A.	c #526978",
"B.	c #4E6473",
"C.	c #28333A",
"D.	c #1E272C",
"E.	c #0E1316",
"F.	c #1B2328",
"G.	c #3C4D59",
"H.	c #4F6574",
"I.	c #556F7E",
"J.	c #5A7586",
"K.	c #617E90",
"L.	c #648193",
"M.	c #668396",
"N.	c #678598",
"O.	c #678698",
"P.	c #68869A",
"Q.	c #69879B",
"R.	c #69889C",
"S.	c #6A899D",
"T.	c #6A899C",
"U.	c #68879A",
"V.	c #658396",
"W.	c #638092",
"X.	c #607C8E",
"Y.	c #577181",
"Z.	c #13181C",
"`.	c #212A30",
" +	c #2D3B43",
".+	c #3A4C56",
"++	c #475B69",
"@+	c #526A79",
"#+	c #637F91",
"$+	c #678699",
"%+	c #6B8A9F",
"&+	c #6D8EA2",
"*+	c #6F90A5",
"=+	c #7293A8",
"-+	c #7395A9",
";+	c #7495AB",
">+	c #7496AB",
",+	c #7496AC",
"'+	c #7497AC",
")+	c #7394AA",
"!+	c #7192A7",
"~+	c #7090A4",
"{+	c #6D8DA1",
"]+	c #648295",
"^+	c #5D798A",
"/+	c #546D7C",
"(+	c #485D6B",
"_+	c #253137",
":+	c #34434C",
"<+	c #7598AE",
"[+	c #789BB1",
"}+	c #799DB3",
"|+	c #7B9FB5",
"1+	c #7CA0B6",
"2+	c #7CA1B8",
"3+	c #7DA1B9",
"4+	c #7DA2B9",
"5+	c #7DA2BA",
"6+	c #7EA2BA",
"7+	c #7CA0B8",
"8+	c #7B9FB6",
"9+	c #7A9DB4",
"0+	c #779AB1",
"a+	c #6F8FA4",
"b+	c #688699",
"c+	c #516978",
"d+	c #445864",
"e+	c #27323A",
"f+	c #36454F",
"g+	c #5E798B",
"h+	c #7090A5",
"i+	c #7597AC",
"j+	c #7CA0B7",
"k+	c #7EA3BA",
"l+	c #7FA4BB",
"m+	c #7FA3BA",
"n+	c #7DA1B8",
"o+	c #7B9EB5",
"p+	c #799CB3",
"q+	c #7699AE",
"r+	c #6E8DA2",
"s+	c #668497",
"t+	c #5C7788",
"u+	c #506876",
"v+	c #435662",
"w+	c #34434D",
"x+	c #263138",
"y+	c #171E23",
"z+	c #2F3D45",
"A+	c #3D4E59",
"B+	c #546E7D",
"C+	c #658395",
"D+	c #6E8EA2",
"E+	c #7091A6",
"F+	c #7294A9",
"G+	c #7395AB",
"H+	c #7598AD",
"I+	c #7597AD",
"J+	c #7497AD",
"K+	c #7394A9",
"L+	c #7191A6",
"M+	c #6E8FA3",
"N+	c #6C8C9F",
"O+	c #638093",
"P+	c #536B7A",
"Q+	c #3B4C57",
"R+	c #33414B",
"S+	c #485D6A",
"T+	c #587282",
"U+	c #5D7889",
"V+	c #617D8F",
"W+	c #648194",
"X+	c #668397",
"Y+	c #69889B",
"Z+	c #69899C",
"`+	c #6B8A9D",
" @	c #6B8A9E",
".@	c #658294",
"+@	c #627F91",
"@@	c #5F7B8D",
"#@	c #566F7F",
"$@	c #465B67",
"%@	c #313F49",
"&@	c #28343B",
"*@	c #3B4B57",
"=@	c #495F6C",
"-@	c #4E6674",
";@	c #526A7A",
">@	c #597282",
",@	c #5B7586",
"'@	c #5C7687",
")@	c #5F7A8C",
"!@	c #5E7A8A",
"~@	c #597484",
"{@	c #556D7D",
"]@	c #4D6372",
"^@	c #475D6A",
"/@	c #2C3942",
"(@	c #3E515C",
"_@	c #435764",
":@	c #465A68",
"<@	c #4A5F6C",
"[@	c #4F6674",
"}@	c #4F6776",
"|@	c #516977",
"1@	c #4A606E",
"2@	c #485E6B",
"3@	c #455966",
"4@	c #3D4F5A",
"5@	c #384953",
"6@	c #2B3840",
"7@	c #06080A",
"8@	c #2A373F",
"9@	c #2F3E46",
"0@	c #374751",
"a@	c #3A4A55",
"b@	c #3C4D58",
"c@	c #40535E",
"d@	c #435763",
"e@	c #435762",
"f@	c #394954",
"g@	c #364650",
"h@	c #32404A",
"i@	c #2E3C45",
"j@	c #0E1315",
"k@	c #0A0C0E",
"l@	c #060709",
"m@	c #090C0D",
"n@	c #0D1013",
"o@	c #111619",
"p@	c #1E262C",
"q@	c #212B31",
"r@	c #252F37",
"s@	c #2D3A42",
"t@	c #303F48",
"u@	c #2F3E47",
"v@	c #2E3C44",
"w@	c #1D252A",
"x@	c #1F292E",
"y@	c #222C33",
"z@	c #242E34",
"A@	c #202A2F",
"B@	c #1F282D",
"C@	c #12181B",
"D@	c #13191D",
"E@	c #000000",
"F@	c #020304",
"G@	c #0B0F11",
"H@	c #0D1114",
"I@	c #0E1214",
"J@	c #0B0E11",
"K@	c #080A0C",
"L@	c #040607",
"M@	c #010101",
". + @ # $ % & * = - ; > , ' ) ! ~ { ] ^ ^ ^ / { ( _ : < [ } | 1 2 3 4 $ 5 @ 6 . ",
"7 8 9 4 0 = a [ : ( b c d e f g h i j j j j k l m n o p q r / s t u v w x $ 8 7 ",
"8 $ y = ; ' z A e B C D E F G H I J K K K K L M N O P Q R S T U V W : X v 3 Y 5 ",
"Z 0 - , ] d T ` F N  ...+.@.#.$.%.&.*.*.*.=.-.;.>.,.'.).!.~.M G {.].p ^.< | * Z ",
"0 | : /.B (.N _.:.;.<.[.}.|.1.2.3.4.5.5.5.5.5.6.3.2.7.8.9.0.a.b.c.L Q i q ) d.* ",
"- : V e.f.g.>.h.i.6.j.k.l.m.n.o.p.q.r.s.s.t.u.q.q.v.w.x.y.z.A.B.9.*.+.H C.D.s E.",
"[ F.].H G.0.H.I.J.t.K.L.M.N.O.P.Q.R.S.S.S.S.T.R.Q.U.P.N.V.W.X.p.Y.4.h.b.I C /.Z.",
"_ `. +.+++@+v.#+$+%+&+*+=+=+-+;+;+;+>+>+,+,+,+,+'+,+)+)+!+~+{+R.]+^+/+(+:.P n ( ",
"W _+:+*.6.v.M.{+=+<+[+}+|+1+2+2+3+3+4+5+6+6+6+6+4+4+3+7+8+9+0+,+a+b+q.c+d+ .C r ",
"r e+f+d+@+g+U.h+i+[+|+j+4+4+k+k+l+l+l+m+m+k+k+k+4+3+n+j+o+p+q+)+r+s+t+u+v+w+x+^.",
"y+n z+A+9.B+g+C+S.D+E+F+;+G+'+H+H+H+I+I+I+J+J+'+,+;+K+K+L+M+N+P.O+t+P+h.Q+ +U _ ",
"Z./.e+R+#.S+c+T+U+V+W+X+b+Q.Y+Z+S.`+ @ @ @ @S.Z+Q.P.b+s+.@+@@@v.#@3.$@:.%@x+F.[ ",
"| ) d &@N *@=.=@-@;@#@>@,@'@p.t.t.t.)@@@@@)@!@q.q.v.J.~@Y.{@4.]@^@;.c.O C V : - ",
"* d.) V j /@K !.(@_@:@<@8.1.[@}@4.c+c+c+c+c+|@6.3.2.i.1@2@3@-.4@5@I 6@B c : | 0 ",
"7@* | ' b e x+8@9@K 0@a@b@#.c@;.-.=.d@d@d@e@*.;.>.,.4@Q+f@g@h@i@D k d ^ , j@k@Z ",
"5 l@m@n@o@: b p@q@r@&@(.s@G t@h@L K w+w+w+w+L R+N u@v@Q {.e+B o w@^ ' ; = 3 $ # ",
"7 8 $ x * n@; Z.) / F.V x@U y@z@T j ].x+x+j j T m n A@B@A r ~ : C@d.= 0 4 9 8 7 ",
". 6 @ 5 $ 4 m@2 1 | o@C@' s _ y+/ z W W ^ ^ / / ( _ : D@[ ; j@n@* y 4 $ # @ + . ",
"E@. + 6 F@# 9 l@4 & 0 * G@= H@- | | d.d.d.d.| E.I@1 = J@* m@K@7@$ L@8 @ 6 M@. E@"};
