/* XPM */
static char *closepr[] = {
/* columns rows colors chars-per-pixel */
"22 22 41 1",
"  c #3C3C3B3B3737",
". c #4B4B4A4A4545",
"X c #4D4D4C4C4747",
"o c #50504E4E4A4A",
"O c #525251514C4C",
"+ c #545453534F4F",
"@ c #585857575252",
"# c #5A5A5A5A5555",
"$ c #82827D7D7979",
"% c #E3E391913131",
"& c #E5E596963636",
"* c #E6E69B9B3B3B",
"= c #CACA96965D5D",
"- c #E8E8A0A04040",
"; c #E9E9A5A54545",
": c #EBEBAAAA4A4A",
"> c #ECECAFAF4F4F",
", c #EDEDB4B45454",
"< c #EFEFB9B95959",
"1 c #F0F0BEBE5E5E",
"2 c #CACA99996060",
"3 c #CCCC9C9C6363",
"4 c #CCCC9F9F6666",
"5 c #CDCDA2A26969",
"6 c #CECEA5A56C6C",
"7 c #CFCFA8A86F6F",
"8 c #D0D0ABAB7272",
"9 c #D0D0AEAE7575",
"0 c #D2D2B1B17878",
"q c #D2D2B4B47B7B",
"w c #D3D3B7B77E7E",
"e c #F2F2C3C36363",
"r c #F3F3C8C86868",
"t c #F5F5CDCD6D6D",
"y c #F6F6D2D27272",
"u c #9B9B96969292",
"i c #D4D4BABA8181",
"p c #D5D5BDBD8484",
"a c #C3C3B8B89595",
"s c #D6D6C0C08787",
"d c #D7D7C4C48A8A",
/* pixels */
"######################",
"@@@@@@@@@@@@@@@@@@@@@@",
"++++++++++++++++++++++",
"OOOOOOOOOOOOOOOOOOOOOO",
"oooooooooooooooooooooo",
"XXXXXXXXXXXXXXXXXXXXXX",
"adddddddddddddddddddd.",
"syyyyyyyyyyyyyyyyyyyys",
"pttttttttttttttttttttp",
"irrrrrrrrrrrrrrrrrrrri",
"weeeeeeeeeeeeeeeeeeeew",
"q1111111$u111u$111111q",
"0<<<<<<<u$u<u$u<<<<<<0",
"9,,,,,,,,u$u$u,,,,,,,9",
"8>>>>>>>>>u$u>>>>>>>>8",
"7::::::::u$u$u:::::::7",
"6;;;;;;;u$u;u$u;;;;;;6",
"5-------$u---u$------5",
"4********************4",
"3&&&&&&&&&&&&&&&&&&&&3",
"2%%%%%%%%%%%%%%%%%%%%2",
"===================== "
};
