/* XPM */
static char *minufcs[] = {
/* columns rows colors chars-per-pixel */
"22 22 26 1",
"  c #3C3C3B3B3737",
". c #4B4B4A4A4545",
"X c #4D4D4C4C4747",
"o c #50504E4E4A4A",
"O c #525251514C4C",
"+ c #545453534F4F",
"@ c #585857575252",
"# c #5A5A5A5A5555",
"$ c #9D9D9D9D9C9C",
"% c #ACACACACACAC",
"& c gray73",
"* c #BFBFBDBDBBBB",
"= c #CFCFCFCFCECE",
"- c #D1D1D1D1D0D0",
"; c #D3D3D3D3D2D2",
": c LightGray",
"> c gray84",
", c #D7D7D7D7D7D7",
"< c #DADADADAD9D9",
"1 c #DBDBDBDBDADA",
"2 c #DCDCDCDCDBDB",
"3 c gray87",
"4 c #DFDFDFDFDFDF",
"5 c #E1E1E1E1E1E1",
"6 c gray89",
"7 c #E5E5E5E5E4E4",
/* pixels */
"######################",
"@@@@@@@@@@@@@@@@@@@@@@",
"++++++++++++++++++++++",
"OOOOOOOOOOOOOOOOOOOOOO",
"oooooooooooooooooooooo",
"XXXXXXXXXXXXXXXXXXXXXX",
".&&&&&&&&&&&&&&&&&&&&&",
"$777777777777777777777",
"$666666666666666666666",
"$555555555555555555555",
"$444444444444444444444",
"$333333333333333333333",
"$222222222222222222222",
"$1111111**1111**111111",
"$<<<<<<<<**<<**<<<<<<<",
"$,,,,,,,,,****,,,,,,,,",
"$>>>>>>>>>>**>>>>>>>>>",
"$:::::::::::::::::::::",
"$;;;;;;;;;;;;;;;;;;;;;",
"$---------------------",
"$=====================",
" %%%%%%%%%%%%%%%%%%%%%"
};
