/* XPM */
static char *maxfcs[] = {
/* columns rows colors chars-per-pixel */
"22 22 37 1",
"  c #4D4D4C4C4747",
". c #50504E4E4A4A",
"X c #525251514C4C",
"o c #545453534F4F",
"O c #585857575252",
"+ c #5A5A5A5A5555",
"@ c #898989898989",
"# c #939393939393",
"$ c gray58",
"% c #959595959595",
"& c #9B9B9B9B9B9B",
"* c gray66",
"= c #B7B7B7B7B7B7",
"- c #B9B9B9B9B9B9",
"; c gray74",
": c gray",
"> c gray76",
", c #C6C6C6C6C6C6",
"< c gray81",
"1 c gray82",
"2 c #D2D2D2D2D2D2",
"3 c #DDDDDDDDDDDD",
"4 c #DFDFDFDFDFDF",
"5 c gray88",
"6 c #E1E1E1E1E1E1",
"7 c #E2E2E2E2E2E2",
"8 c gray90",
"9 c #E6E6E6E6E6E6",
"0 c #E9E9E9E9E9E9",
"q c #EAEAEAEAEAEA",
"w c gray92",
"e c #ECECECECECEC",
"r c #EEEEEEEEEEEE",
"t c #EFEFEFEFEFEF",
"y c #F1F1F1F1F1F1",
"u c #F3F3F3F3F3F3",
"i c gray96",
/* pixels */
"++++++++++++++++++++++",
"OOOOOOOOOOOOOOOOOOOOOO",
"oooooooooooooooooooooo",
"XXXXXXXXXXXXXXXXXXXXXX",
"......................",
"                      ",
",,,,,,,,,,,,,,,,,,,,,,",
"iiiiiiiiiiiiiiiiiiiiii",
"uuuuuuuuuuuuuuuuuuuuuu",
"yyyyyyyyyyyyyyyyyyyyyy",
"tttttttttttttttttttttt",
"rrrrrrrrrrrrrrrrrrrrrr",
"wwwwwwwe;:ewwwwwwwwwww",
"qqqqqq5*@@*5qqqqqqqqqq",
"000002&#>>#&2000000000",
"9999<$&1991&%<99999999",
"88881-388883-188888888",
"7777777777777777777777",
"6666666666666666666666",
"4444444444444444444444",
"3333333333333333333333",
"======================"
};
