/* XPM */
static char *stuckufcs[] = {
/* columns rows colors chars-per-pixel */
"22 22 30 1",
"  c #3C3C3B3B3737",
". c #3E3E3D3D3939",
"X c #414140403C3C",
"o c #434342423E3E",
"O c #464645454040",
"+ c #484847474343",
"@ c #4B4B4A4A4545",
"# c #4D4D4C4C4747",
"$ c #4E4E4C4C4949",
"% c #4E4E4D4D4A4A",
"& c #4F4F4D4D4A4A",
"* c #4F4F4E4E4A4A",
"= c #4F4F4E4E4B4B",
"- c #50504E4E4A4A",
"; c #525251514C4C",
": c #545453534F4F",
"> c #585857575252",
", c #5A5A5A5A5555",
"< c #676766666363",
"1 c #676766666464",
"2 c #6F6F6E6E6B6B",
"3 c #6F6F6E6E6C6C",
"4 c #818181817E7E",
"5 c #828281817E7E",
"6 c #828281817F7F",
"7 c #838383838080",
"8 c #848483838080",
"9 c #848483838181",
"0 c #858584848282",
"q c #868685858383",
/* pixels */
",,,,,,,,,,,,,,,,,,,,,,",
">>>>>>>>>>>>>>>>>>>>>>",
"::::::::::::::::::::::",
";;;;;;;;;;;;;;;;;;;;;;",
"----------------------",
"######################",
"@@@@@@@@@@@@@@@@@@@@@@",
"++++++++++++++++++++++",
"OOOOOOOOOOOOOOOOOOOOOO",
"oooooooooooooooooooooo",
"XXXXXXXX=1331&XXXXXXXX",
".......*309863&.......",
"       1q098651       ",
"       3q098653       ",
"       3q097643       ",
"       1q097641       ",
"       %309763%       ",
"        $<22<$        ",
"                      ",
"                      ",
"                      ",
"                      "
};
