/* XPM */
static char *closepr_custom[] = {
/* columns rows colors chars-per-pixel */
"22 16 34 1",
"  c #82827D7D7979",
". c #8C584A6398FE",
"X c #8C2957659648",
"o c #8FD04FD59C15",
"O c #8EEF5BC198C0",
"+ c #934855489F2C",
"@ c #8C0461CD941D",
"# c #91B6601D9B39",
"$ c #947D64799DB2",
"% c #96C05ABBA243",
"& c #9A38602DA55A",
"* c #974468D4A02B",
"= c #9A0A6D30A2A4",
"- c #9DB165A0A871",
"; c #9CD1718CA51D",
": c #9F9875E7A795",
"> c #A1296B13AB88",
", c #A4A17086AE9F",
"< c #A25E7A43AA0E",
"1 c #A5247E9FAC88",
"2 c #A81A75F9B1B6",
"3 c #AB917B6CB4CD",
"4 c #9B9B96969292",
"5 c #A7EB82FBAF00",
"6 c #AB1A929EAFCD",
"7 c #AAB18757B179",
"8 c #AF0980DFB7E4",
"9 c #AD788BB3B3F2",
"0 c #B03E900FB66A",
"q c #B2828651BAFC",
"w c #B5FA8BC4BE13",
"e c #B305946AB8E4",
"r c #B9729137C12A",
"t c None",
/* pixels */
"6eeeeeeeeeeeeeeeeeeeet",
"0rrrrrrrrrrrrrrrrrrrr0",
"9wwwwwwwwwwwwwwwwwwww9",
"7qqqqqqqqqqqqqqqqqqqq7",
"5888888888888888888885",
"13333333 43334 3333331",
"<22222224 424 4222222<",
":,,,,,,,,4 4 4,,,,,,,:",
";>>>>>>>>>4 4>>>>>>>>;",
"=--------4 4 4-------=",
"*&&&&&&&4 4&4 4&&&&&&*",
"$%%%%%%% 4%%%4 %%%%%%$",
"#++++++++++++++++++++#",
"OooooooooooooooooooooO",
"X....................X",
"@XXXXXXXXXXXXXXXXXXXXt"
};
