/* XPM */
static char * max_focus_xpm[] = {
"19 19 68 1",
" 	c None",
".	c #767676",
"+	c #5B5B5B",
"@	c #404040",
"#	c #323232",
"$	c #1A1A1A",
"%	c #191919",
"&	c #1B1B1B",
"*	c #1C1C1C",
"=	c #121212",
"-	c #111111",
";	c #101010",
">	c #131313",
",	c #151515",
"'	c #141414",
")	c #1D1D1D",
"!	c #9EB6C5",
"~	c #BFD7E7",
"{	c #9EB6C6",
"]	c #181818",
"^	c #262626",
"/	c #BDD6E5",
"(	c #C8E1F0",
"_	c #CAE3F2",
":	c #CAE2F2",
"<	c #CCE4F4",
"[	c #BED6E6",
"}	c #2A2A2A",
"|	c #AFC7D7",
"1	c #353535",
"2	c #2E2E2E",
"3	c #2F2F2F",
"4	c #242424",
"5	c #ABC4D3",
"6	c #BED7E6",
"7	c #2B2B2B",
"8	c #222222",
"9	c #ADC5D5",
"0	c #272727",
"a	c #282828",
"b	c #212121",
"c	c #2C2C2C",
"d	c #383838",
"e	c #C0D8E7",
"f	c #B4CDDC",
"g	c #4D4D4D",
"h	c #484848",
"i	c #4E4E4E",
"j	c #B4CCDC",
"k	c #C0D8E8",
"l	c #393939",
"m	c #3B3B3B",
"n	c #454545",
"o	c #BBD4E3",
"p	c #CEE7F6",
"q	c #CCE5F4",
"r	c #CFE8F7",
"s	c #BCD4E4",
"t	c #464646",
"u	c #3A3A3A",
"v	c #676F74",
"w	c #686F75",
"x	c #8AA2B1",
"y	c #ACC4D4",
"z	c #687076",
"A	c #8698A5",
"B	c #9FC6E2",
"C	c #3D3D3D",
"...................",
"+++++++++++++++++++",
"@@@@@@@@@@@@@@@@@@@",
"###################",
"$$$$$%%%%%%%$&*$%%$",
"==--;-======>===--=",
",,'')!~~~~~~~{)''''",
"]]]]^/(_:::<_[^]]]]",
"))))}[|12334567))**",
"88883690888a9~3888b",
"ccccdefghhhijklccc7",
"mmmmnopq<<<<rstmmmu",
"vvvvwxyyyyyyyxzvvvv",
"AAAAAAAAAAAAAAAAAAA",
"BBBBBBBBBBBBBBBBBBB",
"CCCCCCCCCCCCCCCCCCC",
")))))))))))))))))))",
"&&&&&&&&&&&&&&&&&&&",
"%%%%%%%%%%%%%%%%%%%"};
