/* XPM */
static char * min_focus_xpm[] = {
"19 19 56 1",
" 	c None",
".	c #767676",
"+	c #525252",
"@	c #393939",
"#	c #313131",
"$	c #303030",
"%	c #8698A5",
"&	c #242424",
"*	c #171717",
"=	c #111111",
"-	c #0F0F0F",
";	c #101010",
">	c #2F2F2F",
",	c #3B3B3B",
"'	c #272727",
")	c #1A1A1A",
"!	c #141414",
"~	c #121212",
"{	c #3E3E3E",
"]	c #2A2A2A",
"^	c #1D1D1D",
"/	c #151515",
"(	c #161616",
"_	c #2D2D2D",
":	c #414141",
"<	c #212121",
"[	c #1B1B1B",
"}	c #191919",
"|	c #2B2B2B",
"1	c #464646",
"2	c #323232",
"3	c #262626",
"4	c #202020",
"5	c #1E1E1E",
"6	c #292929",
"7	c #4C4C4C",
"8	c #2C2C2C",
"9	c #232323",
"0	c #565656",
"a	c #434343",
"b	c #363636",
"c	c #2E2E2E",
"d	c #636363",
"e	c #474747",
"f	c #C6DEEE",
"g	c #D7EFFF",
"h	c #CBE3F3",
"i	c #3F3F3F",
"j	c #7B8388",
"k	c #737B80",
"l	c #6E767B",
"m	c #6C7379",
"n	c #6B7278",
"o	c #B4CDDC",
"p	c #222222",
"q	c #9FC6E2",
"...................",
"+++++++++++++++++++",
"@@@@@@@@@@@@@@@@@@@",
"###################",
"$$%@&*=--------;;;;",
">>%,')!~~~~~~~~~~~~",
">>%{]^*//////////((",
"__%:_<[}}}}}}}}}}}}",
"||%1234555^^^555555",
"66%7@83&&&999&&&&&&",
"''%0ab$cccc_ccccccc",
"33%d+e:fgggggghiiii",
"&&%jklmnooooooonnnn",
"pp%%%%%%%%%%%%%%%%%",
"44qqqqqqqqqqqqqqqqq",
"5555555555555555555",
"^^^^^^^^^^^^^^^^^^^",
"[[[[[[[[[[[[[[[[[[[",
"}}}}}}}}}}}}}}}}}}}"};
