/* XPM */
static char * stuck_unfocus_xpm[] = {
"19 19 99 2",
"  	c None",
". 	c #767676",
"+ 	c #757575",
"@ 	c #525252",
"# 	c #515151",
"$ 	c #535353",
"% 	c #545454",
"& 	c #393939",
"* 	c #383838",
"= 	c #3A3A3A",
"- 	c #3B3B3B",
"; 	c #3D3D3D",
"> 	c #3E3E3E",
", 	c #3C3C3C",
"' 	c #303030",
") 	c #313131",
"! 	c #323232",
"~ 	c #333333",
"{ 	c #353535",
"] 	c #373737",
"^ 	c #363636",
"/ 	c #2F2F2F",
"( 	c #4F4F4F",
"_ 	c #232323",
": 	c #181818",
"< 	c #151515",
"[ 	c #1A1A1A",
"} 	c #1B1B1B",
"| 	c #171717",
"1 	c #131313",
"2 	c #111111",
"3 	c #101010",
"4 	c #0F0F0F",
"5 	c #2E2E2E",
"6 	c #505050",
"7 	c #252525",
"8 	c #1D1D1D",
"9 	c #1E1E1E",
"0 	c #2D2D2D",
"a 	c #262626",
"b 	c #1C1C1C",
"c 	c #191919",
"d 	c #1F1F1F",
"e 	c #161616",
"f 	c #141414",
"g 	c #2C2C2C",
"h 	c #2B2B2B",
"i 	c #272727",
"j 	c #494949",
"k 	c #919191",
"l 	c #6D6D6D",
"m 	c #222222",
"n 	c #2A2A2A",
"o 	c #292929",
"p 	c #575757",
"q 	c #3F3F3F",
"r 	c #979797",
"s 	c #9A9A9A",
"t 	c #999999",
"u 	c #282828",
"v 	c #5D5D5D",
"w 	c #454545",
"x 	c #242424",
"y 	c #818181",
"z 	c #929292",
"A 	c #434343",
"B 	c #202020",
"C 	c #656565",
"D 	c #4E4E4E",
"E 	c #212121",
"F 	c #5E5E5E",
"G 	c #414141",
"H 	c #6F6F6F",
"I 	c #5B5B5B",
"J 	c #484848",
"K 	c #343434",
"L 	c #7D7D7D",
"M 	c #6C6C6C",
"N 	c #5C5C5C",
"O 	c #424242",
"P 	c #404040",
"Q 	c #4B4B4B",
"R 	c #8A8A8A",
"S 	c #7E7E7E",
"T 	c #727272",
"U 	c #696969",
"V 	c #636363",
"W 	c #5F5F5F",
"X 	c #5A5A5A",
"Y 	c #595959",
"Z 	c #626262",
"` 	c #949494",
" .	c #8D8D8D",
"..	c #868686",
"+.	c #808080",
"@.	c #7B7B7B",
"#.	c #787878",
"$.	c #747474",
"%.	c #848484",
". . . + + + + + + . . . . + + + + + + ",
"@ @ # # # # # @ $ $ % % $ @ @ # # # # ",
"& * * * * & & = - ; > ; , - = & * * * ",
"' ' ' ' ' ) ! ~ { ] * ] ^ { ~ ) ' ' ' ",
"/ / ( ] _ : < < : [ } } [ | < 1 2 3 4 ",
"5 5 6 * 7 [ | : } 8 9 9 8 [ | < 1 2 2 ",
"5 0 # & a b : c b 9 d d 8 } : e f f f ",
"g h $ - i 8 c c b j k l m } c | < e | ",
"n o p q h d [ c [ r s t % [ : | : [ } ",
"u i v w ) x 8 [ c y z k A : [ } 8 d B ",
"a 7 C D = g 7 E B o F G d B E _ a u n ",
"7 x H I J - K / 0 g h h g 0 / ! { ] = ",
"_ _ L M N 6 j w O P q q P O w J Q D # ",
"E E R S T U V W N X Y Y X N W Z C U M ",
"d d `  ...+.@.#.+ $.T T $.+ #.@.S y %.",
"8 8 8 8 b b b } } [ [ [ [ } } b b b 8 ",
"8 b b b b b } } } } [ [ } } } } b b b ",
"} } [ [ [ [ [ [ [ c c c c [ [ [ [ [ [ ",
"c c c : : : : : : : : : : : : : : : : "};
