/* XPM */
static char * title_xpm[] = {
"19 19 14 1",
" 	c None",
".	c #7C7C7C",
"+	c #7D7D7D",
"@	c #7E7E7E",
"#	c #7F7F7F",
"$	c #505050",
"%	c #515151",
"&	c #525252",
"*	c #2B2B2B",
"=	c #2A2A2A",
"-	c #2C2C2C",
";	c #121212",
">	c #050505",
",	c #000000",
".+@@@@@@@@@@@@@####",
"$%%%%%%%%%%%%&&&&&&",
"******======-***---",
";;;;;;;;;;;;;;;;;;;",
">>>>>>>>>>>>>>>>>>>",
",,,,,,,,,,,,,,,,,,,",
",,,,,,,,,,,,,,,,,,,",
",,,,,,,,,,,,,,,,,,,",
",,,,,,,,,,,,,,,,,,,",
",,,,,,,,,,,,,,,,,,,",
",,,,,,,,,,,,,,,,,,,",
",,,,,,,,,,,,,,,,,,,",
",,,,,,,,,,,,,,,,,,,",
",,,,,,,,,,,,,,,,,,,",
",,,,,,,,,,,,,,,,,,,",
",,,,,,,,,,,,,,,,,,,",
",,,,,,,,,,,,,,,,,,,",
",,,,,,,,,,,,,,,,,,,",
",,,,,,,,,,,,,,,,,,,"};
